<?xml version="1.0" standalone="no"?>
<!DOCTYPE svg PUBLIC "-//W3C//DTD SVG 1.1//EN" "http://www.w3.org/Graphics/SVG/1.1/DTD/svg11.dtd" >
<svg xmlns="http://www.w3.org/2000/svg" xmlns:xlink="http://www.w3.org/1999/xlink" version="1.1">
<metadata>
Created by FontForge 20170731 at Mon Aug  2 23:18:25 2021
 By Aleksey,,,
Copyright 2004-2021 The Caramel Project Authors (https://github.com/googlefonts/caramel)
</metadata>
<defs>
<font id="Caramel-Regular" horiz-adv-x="294" >
  <font-face 
    font-family="Caramel"
    font-weight="400"
    font-stretch="normal"
    units-per-em="1000"
    panose-1="0 0 0 0 0 0 0 0 0 0"
    ascent="800"
    descent="-200"
    x-height="275"
    cap-height="496"
    bbox="-436 -335 1464 923"
    underline-thickness="50"
    underline-position="-163"
    unicode-range="U+000D-FB02"
  />
<missing-glyph horiz-adv-x="429" 
d="M50 0v650h329v-650h-329zM212 374l93 210h-186zM321 127v410l-90 -207zM104 129l89 201l-89 204v-405zM115 64h194l-97 223z" />
    <glyph glyph-name="fi" unicode="fi" horiz-adv-x="318" 
d="M-198 -158q-19 0 -36 8.5t-23 28.5l10 2q2 -15 13 -20t24 -5q46 0 82 25t63.5 61.5t46.5 72.5l125 234h-38l7 10h37l49 92q11 20 27.5 45t37.5 43.5t47 18.5q47 0 53 -46l-7 -3q-4 15 -21 15q-11 0 -24.5 -13t-25 -29t-17.5 -25l-57 -98h53l-7 -10h-52l-151 -261
q-37 -64 -87.5 -105t-128.5 -41zM366 286q-8 0 -23 6.5t-27.5 16t-12.5 18.5q0 11 13 21.5t29 18.5l24 12q2 1 10 4t15.5 6.5t8.5 3.5q3 0 3 -4q0 -1 -12.5 -12.5t-25 -27.5t-12.5 -32q0 -13 8.5 -17t8.5 -10q0 -4 -7 -4zM196 -4q-19 0 -32 12.5t-13 31.5q0 12 11 38
t26 56.5t30 56t22 37.5q8 13 18 26t26 13q6 0 19.5 -4t26 -9.5t12.5 -11.5q-11 -4 -28.5 -22.5t-36 -43.5t-35 -52t-27 -50t-10.5 -35q0 -18 18 -18q14 0 34 15t41.5 37t40.5 44.5t32 37.5t15 15q3 0 3 -4q0 -2 -15 -19.5t-35.5 -40.5t-38 -41.5t-22.5 -23.5
q-16 -15 -37.5 -30t-44.5 -15z" />
    <glyph glyph-name="fl" unicode="fl" horiz-adv-x="346" 
d="M-198 -158q-19 0 -36 8.5t-23 28.5l10 2q2 -15 13 -20t24 -5q46 0 82 25t63.5 61.5t46.5 72.5l125 234h-38l7 10h37l49 92q11 20 27.5 45t37.5 43.5t47 18.5q47 0 53 -46l-7 -3q-4 15 -21 15q-11 0 -24.5 -13t-25 -29t-17.5 -25l-57 -98h53l-7 -10h-52l-151 -261
q-37 -64 -87.5 -105t-128.5 -41zM225 -4q-22 0 -33.5 14.5t-11.5 35.5q0 16 17 53t43 83t54.5 93t52 84t35.5 55q10 15 20 29.5t30 14.5q6 0 21.5 -4t30 -9.5t15.5 -11.5q-19 -7 -46.5 -38.5t-59 -76t-61 -92t-52.5 -87t-33 -60.5q-4 -9 -8.5 -20t-4.5 -22q0 -16 17 -16
q15 0 35 15t41 37t40 44.5t32 37.5t15 15q4 0 4 -4q0 -1 -8.5 -11.5t-18 -20.5t-11.5 -13q-13 -15 -31 -36t-38.5 -41.5t-42.5 -34t-43 -13.5z" />
    <glyph glyph-name="f_f" unicode="ff" horiz-adv-x="302" 
d="M-198 -158q-19 0 -36 8.5t-23 28.5l10 2q2 -15 13 -20t24 -5q46 0 82 25t63.5 61.5t46.5 72.5l125 234h-38l7 10h37l49 92q11 20 27 45t37.5 43.5t47.5 18.5q47 0 53 -46l-7 -3q-4 15 -21 15q-11 0 -24.5 -13t-25 -29t-17.5 -25l-57 -98h53l-7 -10h-52l-151 -261
q-37 -64 -87.5 -105t-128.5 -41zM-47 -158q-19 0 -36 8.5t-23 28.5l10 2q2 -15 13 -20t24 -5q46 0 82 25t63.5 61.5t46.5 72.5l125 234h-38l7 10h37l49 92q11 20 27 45t37.5 43.5t47.5 18.5q47 0 53 -46l-7 -3q-4 15 -21 15q-11 0 -24.5 -13t-25 -29t-17.5 -25l-57 -98h53
l-7 -10h-52l-151 -261q-37 -64 -87.5 -105t-128.5 -41z" />
    <glyph glyph-name="f_f_i" unicode="ffi" horiz-adv-x="472" 
d="M-198 -158q-19 0 -36 8.5t-23 28.5l10 2q2 -15 13 -20t24 -5q46 0 82 25t63.5 61.5t46.5 72.5l125 234h-38l7 10h37l49 92q11 20 27 45t37.5 43.5t47.5 18.5q47 0 53 -46l-7 -3q-4 15 -21 15q-11 0 -24.5 -13t-25 -29t-17.5 -25l-57 -98h53l-7 -10h-52l-151 -261
q-37 -64 -87.5 -105t-128.5 -41zM-47 -158q-19 0 -36 8.5t-23 28.5l10 2q2 -15 13 -20t24 -5q46 0 82 25t63.5 61.5t46.5 72.5l125 234h-38l7 10h37l49 92q11 20 27 45t37.5 43.5t47.5 18.5q47 0 53 -46l-7 -3q-4 15 -21 15q-11 0 -24.5 -13t-25 -29t-17.5 -25l-57 -98h53
l-7 -10h-52l-151 -261q-37 -64 -87.5 -105t-128.5 -41zM496 301q-10 0 -16.5 7.5t-6.5 17.5q0 17 15.5 32.5t32.5 15.5q10 0 15.5 -6.5t5.5 -16.5q0 -16 -14.5 -33t-31.5 -17zM350 -4q-19 0 -31.5 11t-12.5 30q0 15 10 41t25 56t29.5 55.5t23.5 38.5q8 13 18 26t27 13
q5 0 18.5 -4t26 -9.5t12.5 -11.5q-11 -4 -28 -22.5t-36 -43.5t-35.5 -52t-27 -50t-10.5 -35q0 -18 18 -18q14 0 34 15t41.5 37t40.5 44.5t32 37.5t15 15q4 0 4 -4q0 -2 -10 -14t-25.5 -29.5t-32 -35t-28.5 -30.5t-16 -16q-16 -15 -37.5 -30t-44.5 -15z" />
    <glyph glyph-name="f_f_l" unicode="ffl" horiz-adv-x="482" 
d="M-198 -158q-19 0 -36 8.5t-23 28.5l10 2q2 -15 13 -20t24 -5q46 0 82 25t63.5 61.5t46.5 72.5l125 234h-38l7 10h37l49 92q11 20 27 45t37.5 43.5t47.5 18.5q47 0 53 -46l-7 -3q-4 15 -21 15q-11 0 -24.5 -13t-25 -29t-17.5 -25l-57 -98h53l-7 -10h-52l-151 -261
q-37 -64 -87.5 -105t-128.5 -41zM-47 -158q-19 0 -36 8.5t-23 28.5l10 2q2 -15 13 -20t24 -5q46 0 82 25t63.5 61.5t46.5 72.5l125 234h-38l7 10h37l49 92q11 20 27 45t37.5 43.5t47.5 18.5q47 0 53 -46l-7 -3q-4 15 -21 15q-11 0 -24.5 -13t-25 -29t-17.5 -25l-57 -98h53
l-7 -10h-52l-151 -261q-37 -64 -87.5 -105t-128.5 -41zM362 -4q-22 0 -33.5 14.5t-11.5 35.5q0 16 17 53t43 83t54.5 93t52 84t35.5 55q10 15 20 29.5t30 14.5q6 0 21.5 -4t30 -9.5t15.5 -11.5q-19 -7 -46.5 -38.5t-59 -76t-61 -92t-52.5 -87t-33 -60.5q-4 -9 -8.5 -20
t-4.5 -22q0 -16 17 -16q15 0 35 15t41 37t40 44.5t32 37.5t15 15q4 0 4 -4q0 -1 -8.5 -11.5t-18 -20.5t-11.5 -13q-13 -15 -31 -36t-38.5 -41.5t-42.5 -34t-43 -13.5z" />
    <glyph glyph-name=".notdef" horiz-adv-x="429" 
d="M50 0v650h329v-650h-329zM212 374l93 210h-186zM321 127v410l-90 -207zM104 129l89 201l-89 204v-405zM115 64h194l-97 223z" />
    <glyph glyph-name=".null" horiz-adv-x="0" 
 />
    <glyph glyph-name="nonmarkingreturn" horiz-adv-x="333" 
 />
    <glyph glyph-name="CR" unicode="&#xd;" horiz-adv-x="320" 
 />
    <glyph glyph-name="space" unicode=" " horiz-adv-x="199" 
 />
    <glyph glyph-name="exclam" unicode="!" horiz-adv-x="320" 
d="M119 110q-4 0 -5.5 4.5t-1.5 7.5q0 16 14.5 52t38.5 83t52 96t55.5 90.5t50 67.5t33.5 26q6 0 25 -1.5t36.5 -5t17.5 -9.5q0 -1 -1 -2t-1 -2q-70 -70 -134.5 -151t-117.5 -165q-11 -17 -21 -35.5t-21 -36.5q-2 -5 -8 -12t-12 -7zM106 -24q-6 0 -18 6t-22 14.5t-10 15.5
q0 9 14 20t30.5 19.5t23.5 8.5q4 0 7.5 -2.5t3.5 -6.5q0 -3 -1 -4q-12 -15 -16 -33q-1 -4 -1 -13.5t-2 -17t-9 -7.5z" />
    <glyph glyph-name="quotedbl" unicode="&#x22;" horiz-adv-x="297" 
d="M222 286q-6 0 -6 7q0 4 3 7q17 16 31 35t14 44q0 7 -1.5 13t-1.5 13q0 11 10 11q6 0 19 -3.5t23.5 -10t10.5 -14.5q0 -6 -13.5 -22.5t-31.5 -34.5t-34.5 -31.5t-22.5 -13.5zM134 286q-6 0 -6 7q0 3 2 7q18 16 32 35t14 44q0 7 -1.5 13t-1.5 13q0 11 10 11q6 0 19 -3.5
t23.5 -10t10.5 -14.5q0 -6 -13.5 -22.5t-32 -34.5t-34.5 -31.5t-22 -13.5z" />
    <glyph glyph-name="numbersign" unicode="#" horiz-adv-x="527" 
d="M97 25q-5 0 -6.5 5t-1.5 9q0 12 7.5 31.5t16.5 39t13 31.5h-72q-5 0 -19.5 0.5t-27.5 4t-13 11.5t14 11.5t19 3.5h111q11 29 21.5 58t20.5 58q-16 0 -33.5 -0.5t-34.5 -0.5q-5 0 -19.5 1t-27.5 4.5t-13 11.5t14 11t19 3q26 0 52.5 -0.5t53.5 -0.5l30 86q2 3 7 16t9 13
q5 0 6 -4.5t1 -8.5q0 -28 -6.5 -52.5t-16.5 -50.5q29 0 56.5 -0.5t55.5 -0.5h16q2 6 9.5 24.5t16 39.5t16.5 36.5t12 15.5q5 0 6 -6t1 -9q0 -26 -8 -51t-17 -49q29 0 57 1.5t56 1.5h4q5 0 10.5 -1t5.5 -5q0 -6 -17.5 -11.5t-37 -9t-25.5 -3.5h-64l-43 -117h101q7 0 17.5 -1
t10.5 -6q0 -6 -17.5 -11t-37 -8t-25.5 -3l-60 -1q-3 -7 -9.5 -26t-15 -40t-17.5 -36t-17 -15q-5 0 -6.5 5t-1.5 9q0 11 6.5 31t15 40.5t12.5 31.5h-131q-3 -8 -9.5 -27t-15 -39.5t-17.5 -35.5t-17 -15zM167 172h130q11 29 21 58.5t20 57.5h-128z" />
    <glyph glyph-name="dollar" unicode="$" horiz-adv-x="309" 
d="M40 -39q-7 0 -7 6q0 9 11.5 29.5t27.5 44.5t31 44.5t22 28.5q-16 5 -25.5 16.5t-9.5 27.5q0 9 7 9q3 0 3 -6q0 -22 17 -31t36 -9q30 0 53.5 18.5t37 46t13.5 55.5q0 25 -8.5 48.5t-16.5 48t-8 50.5q0 46 23 78.5t64 50.5q19 8 39 8h10t9 -2q4 6 16 22.5t25 31t19 14.5
q5 0 5 -4q0 -1 -2 -3q-14 -16 -26.5 -32t-23.5 -34q16 -7 22.5 -21.5t6.5 -31.5q0 -5 -1 -18.5t-9 -13.5q-3 0 -3 4q0 6 1.5 12.5t1.5 12.5q0 16 -7 29t-22 20q-6 0 -7 2q-9 3 -18 3q-38 0 -63.5 -27.5t-25.5 -64.5q0 -33 13.5 -63t26.5 -57.5t13 -53.5q0 -41 -24.5 -74.5
t-61.5 -51t-77 -14.5q-28 -33 -56 -68.5t-46 -76.5q-1 -4 -6 -4z" />
    <glyph glyph-name="percent" unicode="%" horiz-adv-x="467" 
d="M89 -77q-9 0 -12.5 9t-3.5 16q0 22 20 62t52.5 90.5t71 103.5t76 101.5t67.5 85t44 52.5q-19 -9 -48.5 -19.5t-60 -17.5t-52.5 -8q1 -1 1 -3q0 -15 -14.5 -39.5t-36.5 -49t-44.5 -41t-39.5 -16.5h-10q-17 0 -26.5 16t-9.5 30q0 18 16.5 49t41 62t50.5 52.5t45 21.5
q34 0 34 -36q0 -12 -3 -24q1 -1 6 -1q24 0 57 8.5t66 20.5t54 22h3q4 0 12.5 -5.5t16 -13t7.5 -12.5q0 -6 -6 -12q-14 -17 -46 -53t-73.5 -83.5t-85 -98.5t-80.5 -98.5t-60 -85t-23 -57.5q0 -10 4.5 -12t4.5 -5q0 -4 -6 -7.5t-9 -3.5zM111 269q13 0 32.5 14.5t38.5 36
t32 42.5t13 34q-7 5 -14 14.5t-12 16.5q-13 0 -31 -16.5t-35 -39.5t-28.5 -45.5t-11.5 -35.5q0 -8 3 -14.5t13 -6.5zM232 -55q-17 0 -26 16t-9 30q0 18 16 49t40.5 62t50.5 52.5t45 21.5q34 0 34 -36q0 -12 -3 -24q2 -3 7 -2t5 -6q0 -4 -5.5 -8t-9.5 -6v-3
q0 -15 -14.5 -39.5t-36 -49t-44 -41t-39.5 -16.5h-11zM244 -35q14 0 33.5 14.5t38.5 36t32 42.5t13 34q-7 5 -14.5 14.5t-12.5 16.5q-13 0 -31 -16.5t-35 -39.5t-28.5 -45.5t-11.5 -35.5q0 -8 3.5 -14.5t12.5 -6.5z" />
    <glyph glyph-name="ampersand" unicode="&#x26;" horiz-adv-x="450" 
d="M461 -174q-48 0 -87 27t-68 67.5t-49 79.5q-25 -8 -55 -13t-58 -5q-30 0 -56 6.5t-42 25t-16 54.5q0 35 17 65.5t43.5 57t55.5 49t54 41.5q-1 5 -1 9.5v8.5q0 33 17.5 68t39.5 59q17 15 44.5 30.5t50.5 15.5q18 0 27 -14l-5 -6q-9 9 -25 9q-28 0 -48 -15.5t-33 -39.5
t-19.5 -50.5t-6.5 -49.5q17 10 44.5 28.5t57 40.5t51.5 44.5t26 40.5q-1 8 -11 8h-6.5t-3.5 4q0 2 3 4.5t5 2.5q14 0 27.5 -11t22 -26t8.5 -28q0 -21 -17.5 -43t-44.5 -43.5t-57.5 -40.5t-58 -34t-44.5 -25q0 -98 37 -197q36 16 75.5 42t70 60.5t38.5 74.5q1 2 1 5v4
q0 15 -12 20q-1 1 -3 1.5t-2 2.5t3 4t4 2q18 0 27 -15t9 -30q0 -30 -22.5 -59.5t-55.5 -55t-67.5 -45t-58.5 -30.5q8 -22 23 -51t35.5 -56.5t46 -45.5t53.5 -18q29 0 45.5 19.5t25.5 44.5q1 2 3 7t6 5t4.5 -6t0.5 -11q0 -74 -69 -74zM136 -1q29 0 57.5 6t55.5 15
q-40 89 -46 184q-15 -10 -40 -28.5t-50 -40.5t-42 -45t-17 -44q0 -20 14 -30.5t33.5 -13.5t34.5 -3z" />
    <glyph glyph-name="quotesingle" unicode="'" horiz-adv-x="156" 
d="M81 286q-6 0 -6 7q0 3 2 7q18 16 32 35t14 44q0 7 -1.5 13t-1.5 13q0 11 10 11q6 0 19 -3.5t23.5 -10t10.5 -14.5q0 -6 -13.5 -22.5t-32 -34.5t-34.5 -31.5t-22 -13.5z" />
    <glyph glyph-name="parenleft" unicode="(" horiz-adv-x="250" 
d="M127 -23q-41 2 -70 25.5t-44.5 59.5t-15.5 75q0 30 7.5 58.5t19.5 55.5q21 45 58 85.5t83.5 73.5t97 56t96.5 33q12 3 25.5 5.5t25.5 2.5q2 0 7.5 -2t5.5 -6t-7 -5.5t-9 -2.5q-21 -2 -40.5 -6t-39.5 -11q-52 -18 -100.5 -52.5t-87 -79t-64.5 -93.5q-16 -32 -28 -68
t-12 -72t15 -65.5t50 -42.5q8 -3 16.5 -4t17.5 -3q2 0 8.5 -1t6.5 -6q0 -6 -7.5 -8t-10.5 -2h-4z" />
    <glyph glyph-name="parenright" unicode=")" horiz-adv-x="434" 
d="M15 -23q-2 0 -8 2t-6 6t7.5 5.5t8.5 1.5q21 3 41 6.5t39 10.5q53 18 101 52.5t87.5 79t64.5 93.5q17 32 28.5 67.5t11.5 72.5q0 35 -15.5 65t-50.5 43q-15 5 -34 7q-2 1 -8.5 2.5t-6.5 5.5q0 5 7.5 7t10.5 2h4q41 -2 70 -25.5t44.5 -59t15.5 -75.5q0 -29 -7.5 -58
t-19.5 -55q-21 -45 -58 -85.5t-83.5 -73.5t-96.5 -56.5t-97 -33.5q-12 -2 -25 -4.5t-25 -2.5z" />
    <glyph glyph-name="asterisk" unicode="*" horiz-adv-x="343" 
d="M159 231q-6 0 -7.5 9t-1.5 13q0 9 3 25t6.5 32.5t5.5 26.5q-3 -2 -14.5 -11t-26 -19.5t-28.5 -18.5t-22 -8t-8 6q0 5 5 12t8 9l69 50q-4 0 -13.5 -0.5t-22.5 -0.5q-24 0 -48.5 3t-24.5 12q0 5 10 8.5t14 3.5l93 4q-10 14 -19 29t-20 28q-4 6 -11 16t-7 18t6 8
q5 0 12 -4.5t10 -7.5l53 -68l19 78q1 5 4.5 20t10.5 15q5 0 6.5 -8.5t1.5 -15.5q0 -24 -4 -47l-8 -46q1 1 13.5 10t29.5 20.5t31 20.5t18 9q5 0 5 -5q0 -10 -15.5 -25.5t-34 -28.5t-27.5 -19h87q6 0 13.5 -1.5t7.5 -6.5q0 -7 -15.5 -11t-36.5 -6t-39 -2.5t-23 -0.5
l10.5 -13.5t23.5 -31t23.5 -32.5t10.5 -18q0 -6 -5 -6q-7 0 -19.5 10t-26.5 24.5t-25.5 27t-16.5 18.5q-1 -6 -5.5 -22.5t-10 -35.5t-12 -32.5t-12.5 -13.5z" />
    <glyph glyph-name="plus" unicode="+" horiz-adv-x="361" 
d="M154 27q-2 0 -2 2t8 19t19.5 39.5t20.5 41.5t11 23q-24 -1 -48.5 -2.5t-48.5 -1.5q-7 0 -15 2.5t-8 11.5q0 6 5.5 11.5t11.5 5.5h117l46 96q5 9 17 9q13 0 13 -12q0 -5 -6 -18t-14.5 -29t-15.5 -28.5t-10 -17.5h121h4t3 -2q0 -8 -19.5 -12.5t-46 -7t-49 -3.5t-27.5 -1
q-4 -7 -14.5 -27t-24 -43t-26.5 -39.5t-22 -16.5z" />
    <glyph glyph-name="comma" unicode="," horiz-adv-x="167" 
d="M28 -85q-7 0 -7 7q0 4 3 7q17 16 31 35t14 44q0 6 -1.5 12.5t-1.5 13.5q0 11 10 11q7 0 19.5 -3.5t23.5 -10t11 -14.5q0 -6 -13.5 -22.5t-32 -34.5t-34.5 -31.5t-22 -13.5z" />
    <glyph glyph-name="hyphen" unicode="-" horiz-adv-x="287" 
d="M114 148q-7 0 -15 2.5t-8 11.5q0 6 5.5 11.5t11.5 5.5h161h3.5t2.5 -2q0 -7 -21 -12.5t-50.5 -9.5t-55 -5.5t-34.5 -1.5z" />
    <glyph glyph-name="period" unicode="." horiz-adv-x="199" 
d="M100 -24q-6 0 -18 6t-22 14.5t-10 15.5q0 9 14 20t30.5 19.5t23.5 8.5q4 0 7.5 -2.5t3.5 -6.5q0 -3 -1 -4q-12 -15 -16 -33q-1 -4 -1 -13.5t-2 -17t-9 -7.5z" />
    <glyph glyph-name="slash" unicode="/" horiz-adv-x="403" 
d="M33 -69q-8 0 -12.5 9.5t-4.5 16.5q0 22 14 49t32.5 53.5t30.5 44.5q18 26 36 52.5t37 51.5q5 7 20.5 28t38 50t46.5 60t46 58t37.5 44t19.5 17q7 0 23.5 -3.5t16.5 -12.5q0 -4 -2 -7l-4 -6q-22 -28 -47 -55t-48 -55q-52 -60 -102.5 -120.5t-98.5 -124.5q-10 -13 -28 -36
t-32 -46.5t-14 -40.5q0 -10 5 -12t5 -5q0 -4 -6 -7t-9 -3z" />
    <glyph glyph-name="zero" unicode="0" horiz-adv-x="558" 
d="M89 -26q-56 0 -75 37q-7 13 -7 30q0 24 12 51.5t30 54t36 48.5t30 36q31 34 65.5 62.5t65.5 46.5t48 18q8 0 16 -8.5t12 -18t-1 -12.5q-15 -10 -49 -32.5t-76 -52.5t-81 -63t-64.5 -65.5t-25.5 -58.5q0 -10 5 -20q9 -15 36 -15q49 0 134 41q42 20 87.5 50t87.5 65
t76 69.5t54 65t20 51.5q0 12 -5 18q-9 13 -28.5 18.5t-45.5 5.5q-35 0 -77.5 -8t-81.5 -19t-67 -22q-6 -2 -9.5 8.5t-3.5 20.5q0 12 4 15q37 22 85 35.5t96 13.5q43 0 82 -13t67 -44q13 -13 18 -29t5 -30q0 -17 -5 -29q-16 -43 -56.5 -88t-95 -86.5t-113.5 -74.5t-113 -52.5
t-92 -19.5z" />
    <glyph glyph-name="one" unicode="1" horiz-adv-x="169" 
d="M23 -32q-3 0 -9 6q-7 10 -7 27q0 14 3.5 29t7.5 25q13 36 37 75t52.5 76.5t56.5 71t49 58.5q-4 -1 -19.5 -12.5t-33.5 -25.5t-32.5 -25t-16.5 -13q-5 -4 -11 -4q-8 0 -8 6q0 7 11 16q23 18 52 43.5t57.5 50.5t50 42t28.5 17q4 0 19.5 -4.5t27.5 -11t4 -13.5
q-21 -18 -52 -50.5t-66.5 -73.5t-70 -85t-62.5 -84.5t-45 -72t-17 -47.5v-4q0 -17 -6 -17z" />
    <glyph glyph-name="two" unicode="2" horiz-adv-x="479" 
d="M339 -38q-4 0 -4 5q0 4 3 11q5 9 -13 12.5t-50 3.5q-19 0 -42 -1t-46 -3q-40 -3 -78 -6.5t-64 -6t-30 -2.5q-9 0 -9 15q0 8 1.5 15t1.5 9q64 30 133.5 67t138.5 80.5t130 91.5q33 26 63 52t55 54q14 15 14 26q0 10 -10 14.5t-25 4.5q-28 0 -69.5 -9.5t-83 -26t-72 -37.5
t-36.5 -44q4 -4 4 -10q0 -4 -4 -6t-9 2q-8 7 -17 17.5t-9 21.5q0 20 24.5 37t63 30.5t81 23t80.5 14.5t60 5q28 0 47 -8.5t19 -31.5q0 -10 -5 -25q-10 -28 -50.5 -67.5t-96.5 -77.5q-46 -32 -97 -62t-97 -54t-79.5 -39.5t-44.5 -19.5q17 4 36.5 6.5t39.5 4.5t40 3t39 1
q32 0 57 -4.5t35 -17.5q4 -5 4 -17q0 -18 -9 -33q-10 -18 -20 -18z" />
    <glyph glyph-name="three" unicode="3" horiz-adv-x="447" 
d="M109 -33q-44 0 -75 18t-31 62q0 19 8 46q2 7 10.5 26t21.5 29q5 5 10.5 6t3.5 -7q0 -3 -9.5 -15t-18.5 -27.5t-9 -29.5q0 -25 27.5 -34.5t63.5 -9.5q33 0 66 5.5t51 12.5q86 31 132.5 64.5t51.5 60.5q3 21 -26 31.5t-75 10.5q-64 0 -135 -18q-8 -2 -11 7.5t-3 21t-1 15.5
q43 -1 99 15t104 42q31 17 55.5 39t24.5 37q0 17 -38 17q-26 0 -60 -6.5t-67.5 -19t-58.5 -29.5t-33 -38q2 -2 2 -7q0 -4 -3.5 -6.5t-8.5 2.5q-6 6 -13 14.5t-7 18.5q0 5 3 11q9 18 36 32t63.5 24.5t74 16t67.5 5.5q40 0 57 -11t17 -28q0 -22 -23 -49t-58.5 -49.5
t-72.5 -32.5q26 0 53.5 -7t46.5 -21.5t19 -38.5q0 -14 -8 -31.5t-28 -39.5q-21 -23 -49 -44.5t-56 -37t-50 -24.5q-33 -13 -70 -21t-70 -8z" />
    <glyph glyph-name="four" unicode="4" horiz-adv-x="421" 
d="M202 -84q-6 0 -10 4q-6 5 -9.5 16t-3.5 21q0 6 2 14q11 41 40 88.5t54 87.5q-4 1 -14 1q-19 0 -49.5 -4t-63.5 -10t-62 -12.5t-47.5 -10.5l-18.5 -4q-6 0 -9 8t-3.5 16.5l-0.5 8.5q2 14 23 34.5t55 44t74 48.5t79 48q38 23 71.5 47t79.5 46q10 5 17.5 -9t7.5 -25
q0 -6 -3 -8q-96 -52 -180 -105t-176 -108q17 4 46 9t64.5 9.5t71 7t63.5 1.5q4 6 20.5 27t38 49.5t42.5 56.5t35.5 49.5t15.5 27.5v1q0 11 7 16.5t17 5.5q13 0 25 -9t10 -25q-1 -7 -17 -29.5t-39 -51.5t-46.5 -57t-39.5 -47t-18 -21q23 -2 41.5 -13.5t18.5 -27.5
q0 -17 -26 -33q-7 -4 -12 -4q-3 0 -3 3q0 5 9 14q8 9 8 17q0 14 -18.5 19t-29.5 3q-8 -9 -23 -29t-33.5 -46.5t-35.5 -53t-29 -47.5q-12 -22 -12 -37q0 -7 3 -13q1 -1 1 -3q0 -6 -8 -6z" />
    <glyph glyph-name="five" unicode="5" horiz-adv-x="430" 
d="M60 -52q-26 0 -45 8.5t-19 27.5q0 11 7.5 26.5t24.5 34.5q3 3 4 3t1 -3q0 -2 -1 -6.5t-3 -8.5q-4 -10 -6.5 -18.5t-2.5 -16.5q0 -18 21 -18q11 0 28 5t42 16q39 17 81.5 42.5t81.5 53.5t65 53q23 22 38 44.5t15 38.5q0 14 -12.5 22t-41.5 8q-7 0 -14.5 -0.5t-15.5 -1.5
q-32 -4 -76.5 -17t-77.5 -29q-22 -11 -34 -20t-16 -9q-3 0 -8.5 7t-8.5 15.5t0 11.5q17 20 40.5 46.5t48.5 54.5t47.5 52.5t37.5 41.5q10 13 19 13q7 0 17 -3.5t30 -5.5q22 -2 42 -3t39 -1q38 0 67.5 3t47.5 7q6 2 11 2h8q4 0 4 -2q0 -3 -15 -12q-29 -18 -75 -33.5
t-117 -18.5q-16 -1 -32.5 2.5t-21.5 6.5l-97 -93q40 11 70 14.5t55 3.5q59 0 87.5 -20t28.5 -52q0 -37 -34 -81q-23 -30 -66 -64.5t-94.5 -64.5t-102.5 -49q-34 -13 -72 -13z" />
    <glyph glyph-name="six" unicode="6" horiz-adv-x="421" 
d="M75 -37q-33 0 -54 14t-21 46q0 20 11 51q13 36 47 82.5t81.5 94.5t99.5 89t101 66.5t87 25.5q16 0 29.5 -8t18.5 -25v-2q0 -6 -4 -13t-7 1q-4 12 -17 12q-7 0 -16.5 -2.5t-17.5 -5.5q-41 -14 -89 -44t-95.5 -69t-89 -81t-71.5 -81.5t-41 -69.5q-5 -15 -5 -23
q0 -27 35 -27q26 0 64 13.5t78.5 33.5t75 42.5t53.5 40.5q29 28 41.5 45.5t12.5 27.5q0 14 -21 14q-17 0 -44.5 -9t-57.5 -24q-37 -18 -75 -42t-66 -46t-35 -34q-3 -6 -9 -6q-4 0 -1 9q9 23 36 51t64 54.5t74 45.5q28 14 53 22t44 8q26 0 50.5 -13t24.5 -41q0 -15 -9 -34
t-30 -43q-25 -28 -62.5 -54t-80.5 -47t-85.5 -33t-76.5 -12z" />
    <glyph glyph-name="seven" unicode="7" horiz-adv-x="352" 
d="M8 -73q-16 0 -16 13q0 15 17.5 42.5t46.5 63t64 73t69.5 72.5t63 62.5t45.5 41.5q48 41 83 68t44 28q-2 1 -11 1q-17 0 -46 -5.5t-58.5 -13t-48.5 -13.5q-29 -9 -71.5 -18.5t-77.5 -9.5q-20 0 -35 5q-14 5 -14 18q0 9 6 18.5t12 15.5q15 15 34.5 27t24.5 14q8 4 9.5 1.5
t-0.5 -5.5q-3 -3 -3 -9q0 -5 4 -10t12 -6q7 -1 15 -1.5t18 -0.5q23 0 50 2t50 5q18 2 42.5 4t49.5 2q29 0 51.5 -5t29.5 -20q1 -2 1 -5q0 -9 -11 -9q-12 0 -19 12q-4 -3 -21 -17t-36.5 -30.5t-31.5 -27.5q-14 -13 -41 -40.5t-60 -63t-67 -74.5t-63 -75t-47.5 -64.5
t-21.5 -43.5q-1 -10 -15 -16t-27 -6z" />
    <glyph glyph-name="eight" unicode="8" horiz-adv-x="351" 
d="M105 -25q-49 0 -78 17.5t-29 48.5q0 25 23 59q21 31 64.5 68.5t90.5 77.5q-17 31 -17 66q0 38 22.5 70.5t64.5 47.5q22 8 42 8q30 0 54.5 -14.5t34.5 -34.5q24 15 47 27.5t44 21.5h2q3 0 5 -5t2 -11q0 -9 -4 -10q-39 -17 -89 -47v-6q0 -14 -6 -28q-2 -5 -8 -5.5t-5 4.5
q3 8 4 14.5t1 12.5q-35 -21 -71.5 -45.5t-71.5 -50.5q11 -19 25 -42t25 -48.5t11 -52.5q0 -24 -12.5 -49t-42.5 -50q-53 -44 -128 -44zM220 280q35 28 71.5 53.5t71.5 47.5q-16 28 -53 28q-14 0 -31 -6q-31 -11 -49.5 -33.5t-18.5 -50.5q0 -19 9 -39zM95 -12q33 0 61 15
t46 37q14 17 19.5 34.5t5.5 33.5q0 32 -15 62t-29 57q-34 -27 -67.5 -60t-55.5 -66.5t-22 -61.5q0 -20 11 -32q16 -19 46 -19z" />
    <glyph glyph-name="nine" unicode="9" horiz-adv-x="289" 
d="M67 -84q-36 0 -36 35q0 28 18.5 64.5t47.5 76.5t61 77.5t60.5 66.5t44.5 44q-30 -17 -62.5 -35t-64 -30t-58.5 -12t-44.5 17t-17.5 43q0 4 0.5 9t1.5 9q6 24 29 48.5t55 46t67 38.5t66 27t51 10q15 0 35.5 -14t20.5 -36v-5t-1 -5q-2 -10 -12 -18t-18 -8q-11 0 -11 15
q0 12 4.5 26t5.5 18q-7 3 -17 3q-22 0 -52.5 -12.5t-63.5 -32.5t-63 -43.5t-50 -45.5t-25 -39q-3 -11 9 -15t17 -4q28 0 66.5 11.5t76 29t62.5 34.5q3 2 18 12.5t30.5 20.5t19.5 10q7 0 18 -9.5t9 -20.5q0 -2 -18.5 -21.5t-48 -51t-64.5 -69.5t-68.5 -77.5t-59.5 -75.5
t-38 -63q-2 -4 -4.5 -12t-2.5 -15q0 -11 6 -13q5 -2 4 -5.5t-4 -3.5z" />
    <glyph glyph-name="colon" unicode=":" horiz-adv-x="232" 
d="M201 147q-6 0 -18 6t-22 14.5t-10 15.5q0 9 13.5 20t30 19t23.5 8q12 0 12 -9q0 -1 -0.5 -1.5t-0.5 -1.5q-7 -8 -10.5 -15t-6.5 -18q-1 -4 -0.5 -13.5t-1.5 -17t-9 -7.5zM106 -24q-6 0 -18 6t-22 14.5t-10 15.5q0 9 14 20t30.5 19.5t23.5 8.5q4 0 7.5 -2.5t3.5 -6.5
q0 -3 -1 -4q-12 -15 -16 -33q-1 -4 -1 -13.5t-2 -17t-9 -7.5z" />
    <glyph glyph-name="semicolon" unicode=";" horiz-adv-x="232" 
d="M201 147q-6 0 -18 6t-22 14.5t-10 15.5q0 9 13.5 20t30 19t23.5 8q12 0 12 -9q0 -1 -0.5 -1.5t-0.5 -1.5q-7 -8 -10.5 -15t-6.5 -18q-1 -4 -0.5 -13.5t-1.5 -17t-9 -7.5zM27 -85q-6 0 -6 7q0 4 3 7q17 16 31 35t14 44q0 6 -1.5 12.5t-1.5 13.5q0 11 10 11q6 0 19 -3.5
t23.5 -10t10.5 -14.5q0 -6 -13.5 -22.5t-31.5 -34.5t-34.5 -31.5t-22.5 -13.5z" />
    <glyph glyph-name="less" unicode="&#x3c;" horiz-adv-x="273" 
d="M191 44q-1 0 -2.5 3t-1.5 4q-19 40 -46 73.5t-58 64.5q-1 1 -1 3v3q2 5 15.5 20t33 35t39.5 39.5t36 34.5t22 21q8 8 16.5 17t17.5 16q7 5 14 5q6 0 6 -5q0 -4 -13 -20.5t-33 -38.5t-41 -44.5t-37.5 -39.5t-22.5 -23q5 -10 15.5 -30.5t22 -43t19.5 -42t8 -28.5
q0 -2 -3 -13t-6 -11z" />
    <glyph glyph-name="equal" unicode="=" horiz-adv-x="271" 
d="M155 194q-7 0 -14.5 2t-7.5 11q0 6 5 11.5t11 5.5l161 1q1 0 4 -0.5t3 -2.5q0 -7 -21.5 -12.5t-50.5 -9t-55 -5t-35 -1.5zM103 76q-7 0 -14.5 2t-7.5 12q0 6 5 11.5t11 5.5h161q1 0 4 -0.5t3 -2.5q0 -7 -21.5 -12.5t-50.5 -9t-55 -5t-35 -1.5z" />
    <glyph glyph-name="greater" unicode="&#x3e;" horiz-adv-x="264" 
d="M61 46q-6 0 -6 5q0 4 13 20.5t33 38.5t41 44.5t37.5 39.5t21.5 23q-5 11 -15.5 31t-22 42.5t-19.5 42t-8 28.5q0 2 3.5 12.5t5.5 10.5t3 -2.5t2 -3.5q19 -40 46 -74t58 -64q1 -1 1 -4v-2q-2 -5 -15.5 -20t-33 -35t-39.5 -39.5t-36.5 -35t-22.5 -21.5q-8 -7 -16.5 -16
t-16.5 -16q-7 -5 -14 -5z" />
    <glyph glyph-name="question" unicode="?" horiz-adv-x="347" 
d="M128 110q-7 0 -9 8t-2 13q0 24 21.5 54t52.5 60.5t61 56.5t47 41t36 38t19 47q0 26 -21.5 37t-43.5 11q-30 0 -50 -12t-31 -24t-16 -12q-3 0 -3 5q0 4 2 8t3 7q22 35 59 62t80 27q30 0 53 -17t23 -49t-19.5 -63t-50.5 -61t-66 -58t-66 -54.5t-50.5 -51t-19.5 -47.5
q0 -3 1 -6.5t1 -6.5q0 -4 -3 -8.5t-8 -4.5zM83 -35q-6 0 -18 6t-22.5 14.5t-10.5 15.5q0 9 14 20.5t30.5 19.5t23.5 8q4 0 8 -2t4 -7q0 -2 -2 -4q-12 -15 -16 -32q-1 -4 -1 -13.5t-1.5 -17.5t-8.5 -8z" />
    <glyph glyph-name="at" unicode="@" horiz-adv-x="588" 
d="M168 -28q-52 4 -84.5 35t-32.5 86q0 53 23.5 101.5t62.5 89.5t88 72.5t101 50.5t100 23q7 1 13.5 1h13.5q29 0 60.5 -7.5t53.5 -27t22 -54.5q0 -19 -9 -38t-9 -22q0 -4 2.5 -15.5t2.5 -20.5q0 -46 -26 -87t-59 -71q-64 -56 -136.5 -86t-157.5 -30h-29zM192 -15
q71 0 135 29.5t116 75.5q27 23 52 53.5t36 64.5q1 3 2.5 10.5t1.5 9.5q0 3 -1 3q-2 0 -15.5 -16t-34.5 -39.5t-46.5 -47.5t-51 -40t-47.5 -16q-17 0 -28 9.5t-11 27.5q0 17 10 39.5t17 37.5q-10 -13 -26 -31.5t-34.5 -37t-38 -31t-37.5 -12.5q-19 0 -27 13.5t-8 29.5
q0 11 3 20q5 22 22 46t40 47t46.5 42.5t41.5 31.5q8 6 18 10.5t21 4.5q14 0 25 -7.5t21 -16.5q2 4 3.5 6.5t6.5 2.5q4 0 15.5 -2.5t22.5 -6t11 -7.5q0 -2 -4 -4q-27 -33 -53.5 -74t-43.5 -80q-3 -7 -7 -17.5t-4 -18.5q0 -9 8 -9q10 0 31.5 16.5t47.5 41t50.5 49.5t40.5 44.5
t16 23.5q-6 38 -35.5 63t-64.5 35q-17 5 -37.5 6t-37.5 1h-9.5t-9.5 -2q-3 1 -4 4q2 4 16.5 6t30.5 3t20 1q15 0 30 -1.5t30 -5.5q31 -7 55 -22t41 -42q1 -1 2 -1l1 1q5 15 5 29q0 31 -18 49t-44.5 26t-52.5 8q-7 0 -14.5 -0.5t-15.5 -1.5q-63 -6 -120 -36
q-37 -19 -75.5 -52t-70.5 -74t-51.5 -86.5t-19.5 -89.5q0 -51 29.5 -72t76.5 -21zM200 94q7 0 14 3.5t12 6.5q33 19 62.5 50t55 66.5t45.5 67.5q-2 1 -6 1t-8.5 -1.5t-8.5 -3.5q-48 -25 -91.5 -67t-72.5 -89q-3 -5 -6 -12.5t-3 -13.5q0 -8 7 -8z" />
    <glyph glyph-name="A" unicode="A" horiz-adv-x="525" 
d="M10 -24q-4 0 -4 4q0 8 18.5 34t47 60t58 68t53 59.5t30.5 33.5q-24 -3 -53.5 -10t-56 -20t-40.5 -35q-8 -11 -8 -25t7.5 -20t7.5 -11q0 -2 -6 -2q-19 0 -30.5 19.5t-11.5 36.5q0 11 3 20q11 34 38 54.5t63 31t72.5 13.5t66.5 3q49 50 101 99t110 88q21 14 46 23t51 9
q28 0 49 -14t21 -45q0 -23 -10.5 -45.5t-22.5 -41.5q-7 -11 -23.5 -39t-38.5 -65t-45 -77.5t-42.5 -77t-31.5 -63t-12 -36.5q0 -3 1 -5q-12 -6 -28 -6q-19 0 -23.5 11t-4.5 28q0 15 9.5 38.5t23 49t27 48.5t22.5 38q-7 10 -24.5 16.5t-40 10.5t-42.5 6t-31 2q-16 0 -32 -1
t-32 -3q-38 -40 -75 -82t-72 -85q-17 -20 -34 -42t-35 -42l-7 -7t-9 -4zM452 220q7 12 21.5 36.5t32 54t33.5 59t27.5 53t13.5 33.5q5 20 -8 25t-23 5q-16 0 -35 -8t-32 -17q-52 -37 -100 -81.5t-92 -90.5q16 -1 41.5 -4.5t52 -11t46 -20.5t22.5 -33z" />
    <glyph glyph-name="B" unicode="B" horiz-adv-x="545" 
d="M233 -38q-44 0 -91.5 11t-80.5 42q-2 2 -2 4q0 4 5 4l4 -1q30 -10 61 -14t62 -4q33 0 77 10.5t85.5 31.5t68.5 52t27 72q0 31 -21 46.5t-49.5 21.5t-52.5 6q-26 0 -61 -5.5t-67 -18t-50 -33.5q-35 -43 -60.5 -92.5t-54.5 -96.5q-4 -10 -12 -10q-5 0 -5 6q0 4 1 5
q8 27 21.5 52.5t26.5 49.5q5 9 19.5 33.5t34.5 58t42.5 69t42.5 66.5t34.5 50t18.5 19q5 0 16.5 -3.5t22.5 -8t14 -8.5q-30 -34 -60 -67.5t-59 -67.5q47 6 98 20.5t94 33.5q15 7 36 19.5t42 29t35 34.5t14 37t-15.5 28t-35 11.5t-33.5 2.5q-56 0 -109 -14.5t-106 -31.5
l-8 -2t-8 -1q-12 0 -18 8t-6 19q0 25 21 34q7 3 14.5 4.5t14.5 2.5q48 12 97.5 22t98.5 10q27 0 59.5 -6.5t56 -24.5t23.5 -53q0 -32 -24 -58.5t-60 -46.5t-71.5 -34t-60 -21t-24.5 -8h3q8 0 16.5 0.5t16.5 0.5q24 0 52.5 -4.5t54 -15.5t42 -30.5t16.5 -50.5q0 -21 -8 -40.5
t-20 -36.5q-28 -40 -70 -66t-90 -39t-96 -13z" />
    <glyph glyph-name="C" unicode="C" horiz-adv-x="579" 
d="M222 -36q-54 0 -100.5 20t-74.5 59.5t-28 97.5q0 61 29 116t77.5 100.5t108 79t121.5 51.5t117 18q25 0 51.5 -8t45 -26t18.5 -48q0 -34 -25.5 -64t-52.5 -49l-7.5 -5t-8.5 -3q-5 0 -5 6q0 8 11 22t22 34.5t11 47.5q0 40 -28 55t-63 15q-66 0 -129.5 -25.5t-116 -69.5
t-86.5 -101q-16 -28 -27.5 -60t-11.5 -65q0 -54 29 -84.5t73 -43t90 -12.5q78 0 142.5 19.5t123.5 72.5q2 2 4 2q3 0 3 -6q0 -4 -2 -5q-32 -43 -85.5 -74.5t-113 -49t-112.5 -17.5z" />
    <glyph glyph-name="D" unicode="D" horiz-adv-x="638" 
d="M178 -27q-18 0 -43 1t-49.5 6t-41 16t-16.5 30q0 12 6 25q14 29 37 69t50 83.5t53.5 84t49 70t35.5 41.5q4 3 9 4t9 1q5 0 16.5 -3t11.5 -11q0 -3 -4 -7q-39 -49 -77 -100.5t-76 -102.5q-21 -30 -43 -60t-42 -62q-7 -10 -7 -20q0 -13 13.5 -22.5t47.5 -9.5q46 0 107.5 12
t125.5 35t120.5 57t94 78t44.5 98q1 3 1 6v6q0 46 -28 75.5t-70.5 46t-87.5 23.5t-80 7q-58 0 -112.5 -14t-109.5 -32q-4 -1 -7.5 -2t-8.5 -1q-12 0 -18 8t-6 19q0 25 22 34q9 4 20 6t21 5q53 12 106.5 20t106.5 8q45 0 91.5 -9t87 -31t66.5 -61q37 -54 37 -117
q0 -73 -40.5 -131t-99.5 -96q-43 -28 -98.5 -46.5t-114 -27.5t-109.5 -9z" />
    <glyph glyph-name="E" unicode="E" horiz-adv-x="505" 
d="M157 -23q-14 0 -37 1t-46 6t-39 16.5t-16 32.5q0 17 15 49.5t39.5 73.5t54 85t58 84.5t52 72t35.5 47.5q-10 -2 -34.5 -7t-51.5 -13.5t-46 -20t-19 -26.5q0 -5 1 -7q2 -2 2 -4q0 -7 -8 -7q-7 0 -9.5 11.5t-2.5 16.5q0 23 18.5 41.5t43 32t42.5 19.5q27 10 56.5 15t57.5 9
q6 6 10.5 10t13.5 4q7 0 15 -2.5t12 -7.5q11 0 22.5 0.5t21.5 0.5q28 0 57 -3.5t49.5 -19t20.5 -51.5q0 -8 -3 -20.5t-9.5 -22t-16.5 -9.5q-4 0 -4 1q0 2 6 10t6 18q0 15 -15.5 24t-37.5 12.5t-42 4.5t-30 1q-34 0 -67 -3q-33 -43 -65 -86.5t-64 -86.5q58 0 115.5 -0.5
t115.5 -0.5q5 0 5 -4q0 -9 -9.5 -13.5t-16.5 -5.5q-13 -2 -26.5 -2.5t-27.5 -1.5q-25 -1 -56 -3t-61.5 -6t-53.5 -13q-14 -5 -32.5 -27t-36.5 -51.5t-30 -56.5t-12 -42q0 -22 16.5 -32.5t39 -13.5t38.5 -3q26 0 62 5t74.5 14t73 19.5t58.5 22.5q4 2 7 2q8 0 8 -10
q0 -19 -21 -31.5t-37 -17.5q-30 -9 -74.5 -15.5t-88.5 -10.5t-76 -4z" />
    <glyph glyph-name="F" unicode="F" horiz-adv-x="375" 
d="M20 -15q-5 0 -5 7q0 14 16.5 48.5t43.5 80.5t59 97t63 97.5t55.5 81.5t36.5 50q-10 -1 -37 -6.5t-57 -14t-51.5 -21t-21.5 -27.5q0 -5 1 -7q2 -2 2 -4q0 -7 -8 -7q-7 0 -9.5 11.5t-2.5 16.5q0 23 18.5 41.5t43 32t42.5 19.5q47 16 104.5 22.5t104.5 6.5q28 0 57.5 -3.5
t50 -19t20.5 -51.5q0 -8 -3 -20.5t-9.5 -22t-17.5 -9.5q-3 0 -3 1q0 2 5.5 10t5.5 18q0 15 -15.5 24t-37.5 12.5t-42 4.5t-30 1q-31 0 -63 -3q10 -4 15 -12q-35 -39 -70.5 -79.5t-67.5 -82.5h221q5 0 5 -4q0 -9 -9.5 -13.5t-16.5 -5.5q-13 -2 -27.5 -3t-28.5 -3
q-45 -4 -92 -10t-90 -21q-42 -51 -73 -108.5t-66 -112.5q-3 -4 -6.5 -8t-9.5 -4z" />
    <glyph glyph-name="G" unicode="G" horiz-adv-x="600" 
d="M222 -36q-54 0 -100 20t-74.5 59.5t-28.5 97.5q0 61 29 116t77.5 100.5t108 79t121.5 51.5t117 18q25 0 51.5 -8t45 -26t18.5 -48q0 -34 -25.5 -64t-52.5 -49q-3 -2 -7 -5t-9 -3t-5 6q0 8 11 22t22 34.5t11 47.5q0 40 -28 55t-63 15q-68 0 -131 -26.5t-114 -72.5
t-85 -103q-17 -28 -28.5 -61t-11.5 -66q0 -52 27 -81.5t68.5 -41t85.5 -11.5q35 0 81.5 6.5t92 22.5t79 43t42.5 69q1 3 1 6v6v7q-19 5 -37.5 6.5t-37.5 1.5q-25 0 -60.5 -2.5t-72 -10t-66.5 -21.5t-45 -37q-8 -13 -8 -25q0 -14 7.5 -20t7.5 -11q0 -3 -6 -3q-19 0 -30.5 20
t-11.5 36q0 5 1.5 10.5t2.5 10.5q10 33 35.5 53t59.5 30.5t69 14.5t64 4q17 0 34 -1t33 -3q12 -1 32.5 -5.5t41.5 -12.5t35.5 -20t14.5 -29q0 -2 -1.5 -8.5t-4.5 -6.5q-2 0 -2 1.5t-1 2.5q-6 8 -18.5 13.5t-22.5 7.5q1 -2 1 -8q0 -40 -24.5 -72.5t-64 -57t-85.5 -41t-90 -25
t-76 -8.5z" />
    <glyph glyph-name="H" unicode="H" horiz-adv-x="507" 
d="M39 -26q-4 0 -5 3.5t-1 5.5q0 7 12 31t31 56t39 64.5t36 57.5t22 35q-13 -3 -33.5 -9.5t-40 -17t-33 -24t-13.5 -31.5q0 -14 8.5 -20t8.5 -11q0 -1 -2.5 -1.5t-3.5 -0.5q-20 0 -33 19t-13 37q0 12 4 20q12 37 44.5 57.5t72.5 30t73 12.5q17 28 35.5 56t35.5 56
q-9 9 -9 19q0 7 7.5 18t17 21t15.5 12q5 2 19 4t20 2h3q6 0 13 -2t7 -7q0 -4 -4 -10t-7 -9q-15 -19 -31 -38t-32 -39t-31.5 -40.5t-31.5 -41.5q8 1 15.5 1h14.5q18 0 36.5 -1t36.5 -3q19 -2 45.5 -7t50.5 -15.5t34 -29.5q5 -10 4 -18q20 35 47 80.5t55 88.5t50.5 73.5
t33.5 35.5q10 4 19 4q4 0 11.5 -1.5t7.5 -6.5q0 -4 -3 -8.5l-5 -7.5q-52 -70 -103 -141t-96 -147q-27 -45 -50 -91.5t-45 -94.5q-1 -2 -3.5 -6.5t-5.5 -4.5q-4 0 -4.5 4.5t-0.5 5.5q0 8 -1.5 14.5t0.5 13.5q12 35 28.5 68.5t33.5 64.5q3 7 9.5 18t14.5 26q-1 2 -3 5.5
t-7 5.5q-15 10 -39.5 16t-49.5 8.5t-43 2.5q-31 0 -58.5 -1.5t-59.5 -6.5q-37 -57 -76 -116.5t-72 -119.5q-3 -4 -9.5 -14t-12.5 -10z" />
    <glyph glyph-name="I" unicode="I" horiz-adv-x="434" 
d="M247 370q-16 0 -22 15.5t-6 28.5q0 37 33 51q35 17 82 24t85 7q14 0 34.5 -2t41.5 -8t35 -17.5t14 -30.5q0 -4 -1 -11t-7 -7q-5 0 -5 5q0 2 1 3.5t1 3.5q0 13 -17.5 18.5t-37.5 7t-29 1.5q-10 0 -34.5 -2t-54.5 -6.5t-58 -12.5t-46.5 -19t-18.5 -26q0 -9 6.5 -15t6.5 -7
l-1 -0.5t-2 -0.5zM-12 -73q-9 0 -16 17t-7 24q0 28 19.5 46.5t48.5 29t58.5 15.5t49.5 5q11 20 34 58.5t52 85.5t61.5 94.5t64 85.5t57.5 57q2 1 5.5 1h5.5q7 1 20 -1.5t13 -8.5v-2q0 -5 -6 -11q-53 -63 -104.5 -120t-97.5 -115t-85 -125q11 0 30.5 -3t40 -9.5t35 -17
t14.5 -25.5q0 -3 -1 -3q-1 1 -1 2q-5 9 -22 13t-35 5t-28 1q-29 0 -56 -3q-1 -3 -5 -7.5t-7 -4.5t-3 4t1 6q-12 -2 -35.5 -7t-48.5 -14t-42 -22t-17 -31q0 -9 4.5 -13.5t4.5 -5.5t-2 -1z" />
    <glyph glyph-name="J" unicode="J" horiz-adv-x="465" 
d="M105 -40q-17 0 -41.5 5.5t-43 18.5t-18.5 35q0 48 30 90t78 76t104.5 58.5t110 39t93.5 17.5q10 21 26.5 54.5t34.5 65t34 46.5q-10 -1 -33.5 -5.5t-49 -12t-44 -18.5t-18.5 -26q0 -9 6 -14.5t6 -7.5h-3q-16 0 -22 15t-6 28q0 37 34 52q34 16 81.5 23t84.5 7q14 0 35 -2
t42 -8t35 -17.5t14 -30.5q0 -4 -1.5 -10.5t-6.5 -6.5t-5 4l1 7q0 13 -17.5 18.5t-37.5 7t-28 1.5h-15t-16 -1q-24 -15 -45.5 -45.5t-39 -64t-30.5 -59.5q22 -1 44.5 -8.5t33.5 -27.5q1 -2 1 -4t-1 -2t-8.5 5t-24.5 5q-16 0 -32.5 -2.5t-32.5 -6.5q-24 -45 -45.5 -89
t-49.5 -83t-70 -72q-26 -20 -58.5 -34.5t-65.5 -19.5q-4 -1 -9.5 -1h-10.5zM111 -20q49 0 92 28t79.5 71.5t65.5 90.5t48 85q-34 -9 -83 -30t-99.5 -49.5t-90 -61t-55.5 -64.5q-4 -7 -7.5 -15.5t-3.5 -17.5q0 -22 18 -29.5t36 -7.5z" />
    <glyph glyph-name="K" unicode="K" horiz-adv-x="423" 
d="M469 -61q-29 0 -66 12.5t-74.5 34.5t-69.5 50.5t-51.5 61.5t-19.5 67q0 36 20 66t49 55t56 43q32 21 73.5 45.5t87 48t89.5 42.5t80 31q8 2 19.5 5.5t19.5 3.5q2 0 5 -0.5t3 -4.5q0 -3 -6 -5q-13 -4 -26.5 -8.5t-26.5 -9.5q-47 -17 -104.5 -45.5t-111.5 -62t-92 -66.5
q-25 -22 -45 -51t-20 -64q0 -22 7 -40q12 -35 40.5 -70t64.5 -64t68 -46q10 -4 19 -7.5t19 -7.5q5 -2 5 -7q0 -7 -8 -7h-4zM20 -15q-5 0 -5 7q0 4 1 6q10 32 26 61.5t32 57.5q35 62 72 120q4 7 20 31.5t38 57.5t44 64.5t38 52.5t20 21q8 0 24 -8.5t21 -15.5
q-52 -58 -100 -120t-92 -127q-32 -49 -62 -98t-61 -98q-3 -4 -6.5 -8t-9.5 -4z" />
    <glyph glyph-name="L" unicode="L" horiz-adv-x="469" 
d="M157 -23q-14 0 -38 1t-48.5 6t-41.5 17t-17 33q0 5 1.5 10.5t2.5 10.5q10 28 33.5 67.5t54.5 83.5t64.5 87.5t63.5 80.5t50 61q14 15 28.5 33.5t29.5 31.5q11 10 26 10q2 0 5.5 -0.5t3.5 -3.5q0 -1 -1 -2l-1 -1q-26 -31 -50.5 -62.5t-47.5 -63.5q-13 -17 -36 -49
t-49.5 -72t-51 -79.5t-40 -72.5t-15.5 -52q0 -22 16.5 -32.5t39 -13.5t38.5 -3q35 0 84.5 9t97.5 23t80 29q4 2 6 2q8 0 8 -10q0 -20 -20.5 -32t-36.5 -17q-21 -6 -52.5 -11.5t-66 -9.5t-66.5 -6.5t-54 -2.5z" />
    <glyph glyph-name="M" unicode="M" horiz-adv-x="735" 
d="M620 -25q-17 0 -25.5 12t-8.5 28q0 19 17.5 55.5t44.5 82t57 91t54.5 83.5t36.5 58q7 11 13.5 26t6.5 28q0 12 -9 21.5t-20 9.5q-19 0 -40 -11t-36 -22q-63 -46 -121.5 -101.5t-105.5 -118.5q-20 -26 -37.5 -55t-32.5 -59q-3 -6 -9 -19t-10 -26t-2 -20q-5 -2 -10 -6.5
t-10 -4.5q-19 0 -27 12t-8 28q0 20 15 52.5t39.5 70.5t51 78t51 75.5t39.5 62.5t15 39q0 9 -7.5 15.5t-15.5 6.5q-18 0 -42.5 -10t-39.5 -20q-23 -15 -52.5 -39t-58.5 -49.5t-49 -45.5q-55 -57 -108.5 -117.5t-98.5 -125.5q-8 -11 -15.5 -23t-15.5 -24q-4 -7 -7 -13.5
t-7 -12.5q-3 -7 -14 -7q-4 0 -10 2.5t-6 8.5q0 3 1 4q23 56 49 110.5t54 107.5q28 52 56 103t59 101q8 14 20.5 34.5t23.5 31.5q8 8 23 8q6 0 18 -2.5t22 -8t10 -14.5q0 -3 -4 -7q-34 -35 -65.5 -79.5t-59.5 -90.5t-54 -88q23 25 58.5 62.5t78.5 78t88 76t87.5 57.5t77.5 22
q53 0 53 -54q0 -27 -13 -56t-28 -52q22 21 52.5 48t66 53t70.5 43t66 17q26 0 41.5 -13t15.5 -40q0 -24 -11 -49t-23 -45q-8 -12 -25 -40.5t-39 -65.5t-45 -76.5t-42.5 -76t-31.5 -63t-12 -36.5v-4q-5 -3 -9.5 -7.5t-10.5 -4.5z" />
    <glyph glyph-name="N" unicode="N" horiz-adv-x="484" 
d="M353 -26q-19 0 -30 11t-9 29t19 51.5t41.5 76t52 88t51.5 88t39 75.5t15 51q0 8 -6.5 15.5t-14.5 7.5q-15 0 -37 -10.5t-34 -19.5q-40 -29 -86 -70t-93.5 -89t-91.5 -99t-79.5 -100t-57.5 -92l-4.5 -0.5t-9.5 -0.5q-7 0 -11.5 1.5t-3.5 7.5q36 95 88.5 193.5t103.5 185.5
q20 32 40 65.5t43 63.5q5 6 15.5 9.5t21.5 3.5q14 0 25 -5t11 -16q0 -9 -10 -22q-19 -22 -35.5 -45.5t-33.5 -47.5q-30 -44 -59 -89l-58 -90q23 25 58.5 62.5t78 78t88 76t88 58t77.5 22.5q52 0 52 -54q0 -28 -13 -56.5t-27 -52.5q-8 -13 -24.5 -40.5t-37.5 -63t-42.5 -73.5
t-40 -72.5t-30 -59.5t-11.5 -34q0 -3 2 -5q-6 -3 -10 -8t-10 -5z" />
    <glyph glyph-name="O" unicode="O" horiz-adv-x="484" 
d="M122 -5q-52 0 -81.5 26.5t-29.5 80.5q0 50 22 107t60.5 112t87 100t102.5 72t106 27q54 0 93.5 -31t39.5 -87q0 -49 -21.5 -98.5t-47.5 -90.5q-26 -39 -62 -78t-79 -70.5t-91 -50.5t-99 -19zM153 19q38 0 77.5 20t76.5 51.5t67 66t49 64.5q25 38 45.5 86.5t20.5 94.5
q0 38 -18.5 63t-59.5 25q-38 0 -77.5 -20t-76.5 -51t-67 -65.5t-49 -64.5q-25 -38 -45.5 -86.5t-20.5 -94.5q0 -38 19 -63.5t59 -25.5z" />
    <glyph glyph-name="P" unicode="P" horiz-adv-x="439" 
d="M184 197q-2 0 -5 0.5t-3 3.5q0 7 8.5 11.5t13.5 5.5l21 3q31 4 63 14q20 5 50.5 15t64 25t63 34t48 41.5t18.5 47.5q0 26 -21 39t-48.5 17t-46.5 4q-63 0 -134.5 -18t-132.5 -36q-7 -3 -16 -3q-11 0 -17.5 7.5t-6.5 18.5q0 25 21 34q8 3 15.5 5t14.5 3q59 12 120 22.5
t122 10.5q27 0 57 -4.5t55.5 -16.5t42 -33.5t16.5 -55.5t-24.5 -61.5t-61.5 -47.5t-75 -33t-65 -20q-37 -9 -77 -20t-77 -13h-3zM21 -12q-5 0 -5 6q0 4 1 5q8 27 21.5 52.5t26.5 49.5q5 9 19.5 33.5t34.5 58t42.5 69t42.5 66.5t34.5 50t18.5 19q5 0 16.5 -3.5t22.5 -8
t14 -8.5q-41 -46 -83.5 -93t-78.5 -97q-31 -46 -58.5 -94t-56.5 -95q-4 -10 -12 -10z" />
    <glyph glyph-name="Q" unicode="Q" horiz-adv-x="498" 
d="M101 -139q-10 0 -21.5 2t-19.5 9q-12 10 -20 23.5t-8 29.5q0 27 19 45.5t41 26.5q-42 7 -61.5 36t-19.5 69q0 49 22 106t60 112t87 100.5t102.5 72.5t106.5 27q54 0 93.5 -31.5t39.5 -87.5q0 -49 -21.5 -99t-47.5 -90q-29 -44 -70.5 -86.5t-91 -75t-102.5 -46.5
q-16 -4 -31.5 -6t-32.5 -3q-9 0 -23 -8t-27 -17.5t-19 -16.5q-9 -11 -9 -21q0 -11 8.5 -15.5t18.5 -4.5q21 0 43 5.5t43 11.5q63 17 132 35.5t135 18.5q23 0 50 -5.5t46.5 -21t19.5 -45.5q0 -3 -1 -9.5t-6 -6.5q-4 0 -6 5t-3 8q-3 17 -16.5 23.5t-30 8t-30.5 1.5
q-69 0 -132 -19.5t-128 -42.5q-21 -7 -43.5 -12.5t-45.5 -5.5zM153 19q38 0 77.5 20t76.5 51.5t67 66t49 64.5q25 38 45.5 86.5t20.5 94.5q0 38 -18.5 63t-59.5 25q-38 0 -77.5 -20t-76.5 -51t-67 -65.5t-49 -64.5q-25 -38 -45.5 -86.5t-20.5 -94.5q0 -38 19 -63.5t59 -25.5
z" />
    <glyph glyph-name="R" unicode="R" horiz-adv-x="469" 
d="M54 -67q-9 0 -9 9q0 13 12.5 42t30 63t34 62.5t24.5 41.5q-6 17 -6 35q0 26 14.5 35.5t38.5 7.5q19 30 38.5 59.5t40.5 58.5q9 13 19 27.5t21 25.5q2 2 8 2q5 0 19 -3t14 -10q0 -1 -4 -3q-10 -12 -20 -24.5t-20 -25.5q-26 -33 -51 -67.5t-49 -69.5q25 3 64 15t82.5 31
t82.5 43t63.5 52t24.5 58q0 27 -21 39.5t-48.5 16.5t-46.5 4q-64 0 -134.5 -18t-132.5 -36q-7 -3 -16 -3q-11 0 -17.5 7.5t-6.5 18.5q0 25 22 34q6 3 14 5t15 3q59 12 120 22.5t122 10.5q27 0 57 -4.5t55.5 -16.5t42 -33.5t16.5 -55.5t-24 -64t-60 -53.5t-74 -39.5t-66 -24
q-34 -9 -67.5 -17.5t-67.5 -15.5q7 -26 23 -49t35 -41q37 -34 87.5 -61t99.5 -38q11 -2 20.5 -3t19.5 -3q6 0 6 -6q0 -5 -6.5 -6.5t-11.5 -1.5q-37 0 -84 11.5t-94 32t-85 48.5t-59 61q-15 -24 -33.5 -54t-35 -61t-25.5 -57q-1 -4 -3 -10.5t-8 -6.5z" />
    <glyph glyph-name="S" unicode="S" horiz-adv-x="309" 
d="M140 -12q-36 0 -59.5 17.5t-34.5 46.5t-13 61h7q7 -34 30 -60t60 -26q28 0 48.5 17t31.5 42.5t11 50.5q0 34 -15 59.5t-34.5 47t-34.5 44t-15 50.5q0 10 2 19t5 18q10 28 42 53.5t74 45t82.5 30.5t68.5 11q34 0 43.5 -12.5t16.5 -41.5q1 -2 -3 -3t-6 -1
q-18 -4 -46.5 -16.5t-52.5 -30t-29 -37.5l-9 1q5 25 25 49t41 39q-23 -2 -57.5 -15t-69 -33.5t-58 -45.5t-23.5 -52t14.5 -51t33 -49t33 -52.5t14.5 -60.5t-17.5 -59t-45.5 -41t-60 -15z" />
    <glyph glyph-name="T" unicode="T" horiz-adv-x="354" 
d="M115 -11q-3 0 -3.5 4.5t-0.5 5.5q0 18 14 53t37.5 79.5t51 92t55 92t50 79t34.5 51.5q-27 -1 -68.5 -3.5t-85.5 -9t-80.5 -19.5t-55.5 -35q-4 -4 -7.5 -10t-3.5 -13q0 -13 9.5 -18.5t9.5 -10.5q0 -1 -2.5 -1.5t-3.5 -0.5q-20 0 -37 16t-17 36q0 5 1.5 10t2.5 10
q13 32 48 51t79.5 28.5t88 12.5t73.5 3q21 0 42 -1t41 -3q10 10 27 10q4 0 8 -1.5t4 -6.5q0 -2 -2 -6q10 -1 30 -5t41.5 -11t36.5 -17.5t15 -24.5q0 -3 -1.5 -9t-6.5 -6q-1 0 -1.5 1.5t-1.5 2.5q-4 5 -12.5 8.5t-15.5 5.5q-26 8 -54.5 12t-56.5 5q-61 -81 -118 -165
t-104 -173q-13 -26 -25.5 -53.5t-25.5 -54.5q-1 -2 -3.5 -6.5t-5.5 -4.5z" />
    <glyph glyph-name="U" unicode="U" horiz-adv-x="467" 
d="M407 -90q-48 0 -69 28t-21 74q0 32 9 67t20 65q5 13 10.5 24.5t11.5 23.5q-44 -51 -91.5 -89t-106.5 -72q-21 -12 -47 -23t-52 -11q-27 0 -41 15t-14 41q0 24 9 49t20 46q29 57 65 111.5t71 108.5l16 24t12.5 18.5t15.5 24.5q6 9 11.5 18.5t11.5 18.5q9 15 26 15
q10 0 10 -9q0 -5 -3 -11q-10 -17 -28 -50.5t-40.5 -75.5t-44.5 -87t-41 -87t-30.5 -74t-11.5 -48q0 -24 21 -24q13 0 28.5 7t25.5 13q69 40 120 85t92 95.5t80 106.5t84 119q5 6 15.5 22t22 30t19.5 14q9 0 9 -9q0 -3 -1 -4q-49 -74 -101 -162t-90 -198q-12 -33 -22 -74.5
t-10 -76.5q0 -12 3 -28t12 -28t25 -12q14 0 25 9.5t15 9.5q2 0 2 -4q0 -9 -10.5 -14.5t-23 -8.5t-19.5 -3z" />
    <glyph glyph-name="V" unicode="V" horiz-adv-x="354" 
d="M56 -3q-49 0 -49 51q0 26 12 53.5t25 49.5q8 12 24 39.5t37 63.5t42.5 74.5t40 73.5t30 60t11.5 33q0 3 -1 5q12 6 24 6q18 0 29.5 -11t11.5 -29q0 -17 -17 -50.5t-43 -77t-56 -90t-56 -88.5t-43 -73.5t-17 -45.5q0 -16 18 -16q16 0 40 10t37 20q106 77 192.5 176.5
t162.5 205.5q11 16 27.5 42t27.5 38q11 11 22 11q7 0 13.5 -3t6.5 -11q0 -5 -3 -10q-20 -30 -58 -79t-87.5 -106t-104 -114t-109.5 -104t-104 -75.5t-86 -28.5z" />
    <glyph glyph-name="W" unicode="W" horiz-adv-x="705" 
d="M63 -7q-53 0 -53 54q0 30 16 71.5t41.5 87.5t54.5 91.5t56 83t46 61.5q12 15 25.5 31.5t28.5 28.5q11 10 26 10q10 0 26 -6t16 -19q0 -5 -4 -11q-22 -25 -55.5 -66t-70.5 -90t-69.5 -99.5t-53 -95.5t-20.5 -78q0 -11 5 -18.5t17 -7.5t26.5 6t24.5 12q50 29 97.5 73
t90.5 94t76 96q23 32 45 65.5t43 67.5q9 15 19 31t17 32q15 0 33.5 -7.5t18.5 -26.5q0 -10 -10.5 -29.5t-25.5 -42t-29 -41.5t-20 -28q-13 -19 -25 -38t-23 -39q-12 -22 -28 -55t-28 -66.5t-12 -60.5q0 -16 7 -28.5t26 -12.5q32 0 67 18.5t70 48t67 64.5t57 68t41 57
q22 34 40 79t18 85q0 16 -4 29.5t-18 21.5q-1 1 -4.5 2.5t-3.5 3.5q0 5 10.5 6.5t14.5 1.5q26 0 35 -19.5t9 -41.5q0 -25 -7 -54t-17 -52q-16 -40 -49 -87t-76 -93t-92.5 -84t-99.5 -61t-96 -23q-31 0 -42.5 19.5t-11.5 47.5q0 38 14.5 82.5t30.5 78.5q-16 -22 -42 -50
t-55.5 -56.5t-58 -52.5t-51.5 -37q-21 -12 -49 -22t-52 -10z" />
    <glyph glyph-name="X" unicode="X" horiz-adv-x="316" 
d="M307 -52q-4 0 -12 3.5t-17 11.5q-13 12 -28.5 34t-30 49t-26 52.5t-17.5 43.5q-66 -73 -133 -142l-15 -4.5t-25 -4.5q-11 0 -3 9q43 41 84 85t83 87q-19 61 -31 130t-12 133v20q1 8 11.5 20.5t24.5 22.5t25 10q16 0 16 -22q0 -14 -0.5 -29t-0.5 -29q0 -28 1 -67.5
t4 -78.5t9 -67q48 52 94.5 104.5t91.5 107.5q25 29 49 59t46 61q20 28 28 28q5 0 2 -12t-15 -29q-26 -37 -54.5 -73.5t-57.5 -71.5q-88 -105 -180 -207q5 -21 14 -48.5t20 -56.5t23 -53t22 -36q18 -21 18 -33q0 -7 -8 -7z" />
    <glyph glyph-name="Y" unicode="Y" horiz-adv-x="447" 
d="M79 -191q-19 0 -40 5.5t-35.5 19.5t-14.5 37q0 4 2 9.5t7 5.5t6.5 -4t2.5 -7t1.5 -5.5t1.5 -5.5q6 -13 23 -22t30 -9q39 0 73 20t62 44q65 55 110.5 125.5t82 148t72.5 152.5q-25 -28 -60 -67.5t-76.5 -82t-85.5 -80.5t-87 -63.5t-81 -29.5h-8q-26 0 -40.5 15t-14.5 40
q0 26 10.5 50.5t23.5 45.5q9 15 29.5 49t45.5 77t48.5 85t38.5 73.5t15 41.5q0 3 -1 5q11 6 23 6q17 0 27 -10.5t10 -27.5t-15 -50t-38.5 -74.5t-49.5 -85.5t-49.5 -84t-38.5 -70t-15 -43q0 -17 18 -17q14 0 33.5 10.5t40 25.5t39 30.5t29.5 24.5q71 63 134.5 135t119.5 148
q19 26 36.5 53t36.5 53q5 10 16 10q4 0 7.5 -2t3.5 -7q0 -6 -5 -11q-20 -26 -39 -63t-35.5 -78.5t-30.5 -81.5t-24 -72q-21 -66 -52 -135t-75.5 -127.5t-105.5 -94t-142 -35.5z" />
    <glyph glyph-name="Z" unicode="Z" horiz-adv-x="419" 
d="M9 -12q-19 0 -19 16q0 13 9 27t22.5 24t26.5 10q7 0 13.5 -0.5t13.5 -4.5q14 14 47 48t78 78.5t93 91.5t91.5 88t75 66.5t41.5 27.5q-3 2 -6 2h-5q-19 0 -48.5 -5.5t-58.5 -13t-48 -13.5q-32 -10 -70 -18t-71 -8q-8 0 -20 1.5t-21.5 6.5t-9.5 16q0 17 15 31.5t35.5 24
t34.5 9.5q-2 -3 -2 -9q0 -12 13 -14.5t24 -2.5q48 0 95 6t95 6q6 0 20 -1t29.5 -3.5t26.5 -8t11 -14.5q0 -3 -1.5 -9t-6.5 -6q-4 0 -8.5 5.5t-7.5 7.5q-32 -17 -74.5 -52.5t-89.5 -82t-93 -95t-86 -91.5t-69 -72q24 -7 50.5 -8t51.5 -1q21 0 41.5 1t40.5 3q29 3 47.5 7.5
t34.5 15.5t35 31q6 6 10 6q7 0 7 -5q0 -2 -1.5 -3.5l-3.5 -3.5q-11 -11 -21.5 -29l-21 -36t-24.5 -30q-13 -11 -31 -14t-35 -3q-53 0 -104.5 14t-102.5 27q-7 -5 -20.5 -15t-26.5 -18t-21 -8z" />
    <glyph glyph-name="bracketleft" unicode="[" horiz-adv-x="390" 
d="M120 -12h-24t-39 2t-36 7.5t-15 15.5q0 32 16 81t42 106t57.5 111t63 95.5t57.5 59.5q11 8 35.5 10.5t37.5 2.5q5 0 21.5 -1t31 -3.5t14.5 -9.5v-9q-4 -1 -10 -1q-12 0 -24 1.5t-24 1.5q-8 0 -18.5 -0.5t-17.5 -4.5q-9 -4 -21.5 -17.5t-19.5 -21.5q-18 -21 -42 -57
t-50 -79.5t-48 -88t-35.5 -83.5t-13.5 -66q0 -22 16 -29.5t35 -7.5q13 0 25.5 1.5t25.5 1.5q4 0 11.5 -1t7.5 -7q0 -4 -11 -6.5t-24.5 -3t-23.5 -0.5z" />
    <glyph glyph-name="backslash" unicode="\" horiz-adv-x="445" 
d="M410 -69q-7 0 -13 6q-4 5 0 6q8 4 8 15q0 13 -10 32t-23.5 38t-25.5 34t-15 19q-32 44 -72 93t-82 98t-79 91.5t-63 72.5q-5 6 -5 13q0 6 3 7q2 2 10 4t16.5 3.5t9.5 1.5q5 0 26 -23.5t52 -62.5t67.5 -86.5t72 -96.5t63.5 -92q3 -4 15.5 -21t27 -39.5t25 -46t10.5 -40.5
q0 -20 -17 -26h-1z" />
    <glyph glyph-name="bracketright" unicode="]" horiz-adv-x="371" 
d="M79 -13q-5 0 -21.5 0.5t-31 3.5t-14.5 10l1 8q3 1 9 1q12 0 24 -1.5t24 -1.5q8 0 19 0.5t18 4.5q9 5 21.5 18.5t19.5 21.5q17 21 41.5 57t50 79t47.5 87.5t35.5 83.5t13.5 66q0 23 -16 30.5t-35 7.5q-13 0 -25.5 -2t-24.5 -2q-4 0 -11.5 1t-7.5 8q0 5 13.5 7t28.5 2h19
h25.5t37.5 -2t34 -7t14 -15q0 -31 -16 -81t-42 -106.5t-57.5 -110.5t-62.5 -95.5t-57 -59.5q-10 -7 -35 -10t-39 -3z" />
    <glyph glyph-name="asciicircum" unicode="^" horiz-adv-x="375" 
d="M176 327q-6 0 -6 3q0 4 5 9q8 5 20.5 11.5t20.5 11.5q20 12 39.5 24t38.5 25q5 2 10 5t10 3q8 0 13.5 -6t9.5 -12q4 -5 12.5 -18.5t15.5 -26.5t7 -20q0 -1 -3 -4t-5 -3q-3 0 -16.5 13t-26.5 27.5t-16 18.5q-5 -4 -24 -13.5t-41.5 -20.5t-41 -19t-22.5 -8z" />
    <glyph glyph-name="underscore" unicode="_" horiz-adv-x="537" 
d="M-11 -43q-4 0 -4 5q0 6 4.5 13.5t10.5 7.5h541q6 0 6 -6q0 -5 -3 -10.5t-7 -9.5h-548z" />
    <glyph glyph-name="grave" unicode="`" horiz-adv-x="125" 
d="M161 321q-16 13 -43 25t-54 21.5t-45 13.5q-19 5 -19 13q0 5 7.5 12.5t17.5 7.5q4 0 10 -2q40 -16 76 -40.5t53 -40.5q2 -2 2 -7.5t-5 -2.5z" />
    <glyph glyph-name="a" unicode="a" horiz-adv-x="341" 
d="M218 -4q-19 0 -32 12t-13 32q0 21 11.5 47.5t20.5 44.5q-12 -15 -31 -37.5t-41 -44.5t-45 -36.5t-44 -14.5q-22 0 -31.5 16t-9.5 35q0 12 3 24q7 26 27 54.5t46.5 55t54.5 49.5t50 38q10 7 21.5 12.5t24.5 5.5q16 0 29.5 -8.5t24.5 -19.5q3 5 4.5 8t7.5 3q4 0 18.5 -3
t27.5 -7t13 -8q0 -1 -1 -1q-7 -10 -15 -20l-16 -20q-25 -34 -48.5 -71t-40.5 -77q-2 -6 -4 -12.5t-2 -13.5q0 -18 18 -18q14 0 34 15t41.5 37t40.5 44.5t32 37.5t15 15q3 0 3 -4q0 -2 -15 -19.5t-36 -40.5t-38 -41.5t-22 -23.5q-16 -15 -38 -30t-45 -15zM55 22q8 0 16.5 4.5
t14.5 7.5q39 23 74 60t65 79t54 80q-2 1 -7 1q-10 0 -21 -7q-57 -29 -108.5 -78.5t-85.5 -105.5q-4 -6 -7.5 -14.5t-3.5 -16.5q0 -10 9 -10z" />
    <glyph glyph-name="b" unicode="b" horiz-adv-x="281" 
d="M63 -5q-8 0 -23.5 4t-27.5 12t-12 18q0 16 14.5 49.5t37.5 77t51 90t55.5 89.5t50.5 75t35 46q1 2 3 1.5t3 -0.5q4 0 18 -2.5t27 -7t13 -9.5q0 -2 -1.5 -3t-3.5 -3q-14 -16 -27 -34t-27 -36q-78 -106 -144 -219q23 32 48.5 61.5t55.5 54.5q9 8 26.5 21t28.5 13
q10 0 23 -7.5t23.5 -18.5t10.5 -21q0 -8 -2.5 -15.5t-6.5 -15.5q-22 -48 -60 -90.5t-84.5 -75t-96.5 -52.5q-2 -1 -4 -1.5t-4 -0.5zM62 33q2 0 5 1t5 2q64 34 115.5 88t82.5 118q2 4 3.5 8.5t1.5 8.5q0 7 -7 7q-17 0 -43.5 -18t-55.5 -46t-55 -59.5t-42 -59t-16 -43.5
q0 -7 6 -7z" />
    <glyph glyph-name="c" unicode="c" horiz-adv-x="233" 
d="M90 -1q-27 0 -53 14t-26 46q0 4 0.5 7.5t1.5 7.5q8 35 31 70.5t55 67t67.5 56.5t66.5 40q5 2 12 5.5t11 3.5q8 0 16.5 -12.5t14.5 -27t6 -21.5q0 -6 -2 -8.5t-7 -4.5q-54 -22 -75 -74q-1 -3 -4 -3q-4 0 -4 4q0 12 8.5 30t20.5 34t20 23q-57 -27 -105.5 -70t-71.5 -103
q-8 -19 -8 -38q0 -13 6 -22.5t21 -9.5q9 0 18.5 3.5t17.5 7.5q48 24 86 57.5t74 72.5q2 2 3 2t1 -2q0 -3 -1.5 -6.5t-3.5 -5.5q-26 -33 -62 -68t-71 -58q-28 -18 -64 -18z" />
    <glyph glyph-name="d" unicode="d" horiz-adv-x="329" 
d="M207 -4q-17 0 -31.5 10t-14.5 29q0 12 6.5 31t15.5 37.5t14 29.5q-20 -28 -43.5 -54t-49.5 -49q-10 -7 -26.5 -20t-29.5 -13q-20 0 -36.5 15t-16.5 36q0 14 6 26q16 33 44.5 69.5t64.5 70.5t74 61t72 40q6 2 10 2q10 0 14.5 -10t8.5 -17q19 29 38 57l38 56
q9 13 18.5 27.5t19.5 25.5q1 2 3 1.5t3 -0.5q4 0 18.5 -3t27.5 -6.5t13 -7.5q0 -1 -1 -2q-10 -14 -21 -28l-22 -28q-33 -45 -64.5 -92t-62.5 -95q-19 -31 -38.5 -63t-34.5 -67q-7 -14 -7 -26q0 -18 17 -18q15 0 35 15t41.5 37t40.5 44.5t31.5 37.5t15.5 15t3 -4
q0 -2 -15 -19.5t-36 -40.5t-38 -41.5t-22 -23.5q-16 -15 -38 -30t-45 -15zM45 24q8 0 18 4.5t16 8.5q25 14 51.5 37.5t50.5 50.5t39 50q14 21 26.5 43.5t25.5 43.5q-67 -29 -123 -78.5t-94 -112.5q-4 -7 -10.5 -19.5t-6.5 -20.5q0 -7 7 -7z" />
    <glyph glyph-name="e" unicode="e" horiz-adv-x="233" 
d="M91 -1q-28 0 -54 14t-26 46q0 4 0.5 7.5t1.5 7.5q8 34 29.5 67t52 62t64 51.5t64.5 34.5q3 2 6 3t7 1q9 0 15 -9.5t9 -21.5t3 -19q0 -18 -10.5 -36.5t-23.5 -30.5q6 0 12 -0.5t12 -0.5q2 0 2 -2q0 -1 -2 -2l-4 -2l-30 -3q-28 -3 -58 -9t-57 -16q-13 -18 -26 -45t-13 -50
q0 -13 6 -22.5t21 -9.5q9 0 18.5 3.5t17.5 7.5q48 24 86 57.5t74 72.5q2 2 3 2q2 0 2 -2q0 -3 -2 -6.5t-4 -5.5q-27 -34 -62 -68.5t-71 -57.5q-28 -18 -63 -18zM129 171q23 2 46 3.5t46 1.5q6 8 10.5 21.5t4.5 23.5q0 5 -2 10.5t-9 5.5h-3q-12 -4 -30.5 -16t-35.5 -26
t-27 -24z" />
    <glyph glyph-name="f" unicode="f" horiz-adv-x="151" 
d="M-198 -158q-19 0 -36 8.5t-23 28.5l10 2q2 -15 13 -20t24 -5q46 0 82 25t63.5 61.5t46.5 72.5l125 234h-38l7 10h37l49 92q11 20 27 45t37.5 43.5t47.5 18.5q47 0 53 -46l-7 -3q-4 15 -21 15q-11 0 -24.5 -13t-25 -29t-17.5 -25l-57 -98h53l-7 -10h-52l-151 -261
q-37 -64 -87.5 -105t-128.5 -41z" />
    <glyph glyph-name="g" unicode="g" horiz-adv-x="259" 
d="M-15 -160q-22 0 -41.5 7.5t-26.5 31.5l9 2q3 -14 13.5 -19.5t23.5 -5.5q24 0 46 11q32 15 63.5 51t61 81t54.5 88.5t42 74.5q-28 -35 -60 -69t-67 -63q-13 -10 -30 -20t-36 -10t-31 13.5t-12 32.5q0 8 2 14.5t5 13.5q21 46 60.5 92.5t87 84.5t93.5 57q5 2 10.5 4t11.5 2
q14 0 22 -14.5t9 -26.5q7 8 19.5 20.5t24.5 13.5v-10q-13 -1 -27 -18.5t-27.5 -44.5t-25 -56t-20 -52.5t-12.5 -34.5q-16 -43 -35.5 -87.5t-47.5 -81.5t-66.5 -59.5t-92.5 -22.5zM47 23q8 0 20.5 6.5t24.5 15t18 12.5q35 26 69.5 61.5t64.5 75.5t50 78q-66 -25 -123 -69
t-98 -103q-5 -7 -13 -20t-14.5 -26.5t-6.5 -22.5q0 -8 8 -8z" />
    <glyph glyph-name="h" unicode="h" horiz-adv-x="303" 
d="M181 -4q-18 0 -32 10.5t-14 29.5q0 15 11.5 43t28 59.5t32.5 59t25 42.5q-22 -10 -48.5 -35t-52.5 -56.5t-48 -62.5t-35 -52q-7 -13 -18.5 -23.5t-28.5 -10.5h-8q1 15 13 46.5t32 73t43.5 86t47 86.5t42 74.5t28.5 47.5t20 29.5t31 14.5q7 0 22 -4t28.5 -9.5t15.5 -11.5
q-19 -7 -46.5 -38.5t-59 -76t-61 -92t-52.5 -87t-33 -60.5q0 -1 -0.5 -1.5t-0.5 -1.5t0.5 -1h0.5q1 0 3 3t3 4q15 18 39.5 50t53.5 65t58.5 56t54.5 23q11 0 22.5 -5.5t11.5 -17.5q0 -8 -7 -17q-5 -8 -11.5 -16t-12.5 -16q-24 -32 -45.5 -66.5t-36.5 -72.5q-2 -6 -4.5 -12.5
t-2.5 -13.5q0 -18 18 -18q15 0 34.5 15t41 37t40 44.5t31.5 37.5t16 15t3 -4q0 -2 -15 -19.5t-35.5 -40.5t-38 -41.5t-22.5 -23.5q-16 -16 -37.5 -30.5t-44.5 -14.5z" />
    <glyph glyph-name="i" unicode="i" horiz-adv-x="170" 
d="M194 301q-10 0 -16.5 7.5t-6.5 17.5q0 17 15.5 32.5t32.5 15.5q10 0 15.5 -6.5t5.5 -16.5q0 -16 -14.5 -33t-31.5 -17zM48 -4q-19 0 -31.5 11t-12.5 30q0 15 10 41t25 56t29.5 55.5t23.5 38.5q8 13 18 26t27 13q5 0 18.5 -4t26 -9.5t12.5 -11.5q-11 -4 -28 -22.5
t-36 -43.5t-35.5 -52t-27 -50t-10.5 -35q0 -18 18 -18q14 0 34 15t41.5 37t40.5 44.5t32 37.5t15 15q4 0 4 -4q0 -2 -10 -14t-25.5 -29.5t-32 -35t-28.5 -30.5t-16 -16q-16 -15 -37.5 -30t-44.5 -15z" />
    <glyph glyph-name="j" unicode="j" horiz-adv-x="101" 
d="M179 301q-11 0 -17.5 7.5t-6.5 17.5q0 17 15.5 32.5t32.5 15.5q10 0 16 -6.5t6 -16.5q0 -16 -14.5 -33t-31.5 -17zM-181 -160q-22 0 -41.5 7.5t-26.5 31.5l9 2q3 -14 13.5 -19.5t23.5 -5.5q24 0 46 11q29 14 58 45t57 72t53.5 85t47 84t37.5 68q5 9 14.5 23t21.5 25
t22 10v-9q-14 -1 -29 -24t-27.5 -55t-22 -60.5t-13.5 -39.5q-15 -43 -35 -87.5t-48 -81.5t-67 -59.5t-93 -22.5z" />
    <glyph glyph-name="k" unicode="k" horiz-adv-x="314" 
d="M169 -9q-25 0 -36 18.5t-11 40.5q0 27 12.5 53.5t31.5 50t37 41.5q-23 -11 -51 -36.5t-52.5 -55t-39.5 -51.5q-8 -13 -20 -31t-29 -21h-18q1 15 13 46.5t32 73t43.5 86t47 86.5t42 74.5t28.5 47.5t20 29.5t31 14.5q6 0 21.5 -4t29.5 -9.5t15 -11.5q-17 -6 -41 -32.5
t-50.5 -63t-51.5 -75.5t-45 -71.5t-30 -49.5q-1 -2 -7.5 -13.5t-12.5 -22.5t-6 -12t1 -1q2 0 5 3q48 60 108.5 109.5t136.5 67.5q3 -7 3 -15q0 -20 -14 -35t-34 -23t-38 -8q-15 0 -25 7q-22 -22 -36 -52.5t-14 -62.5q0 -18 8 -36.5t30 -18.5q18 0 39.5 12.5t43 31t39.5 37.5
t30 31.5t13 12.5q4 0 4 -4v-0.5t-1 -1.5q-11 -15 -33 -37.5t-48 -46t-50.5 -41.5t-42.5 -25q-13 -6 -28 -6z" />
    <glyph glyph-name="l" unicode="l" horiz-adv-x="180" 
d="M60 -4q-22 0 -33.5 14.5t-11.5 35.5q0 16 17 53t43 83t54.5 93t52 84t35.5 55q10 15 20 29.5t30 14.5q6 0 21.5 -4t30 -9.5t15.5 -11.5q-19 -7 -46.5 -38.5t-59 -76t-61 -92t-52.5 -87t-33 -60.5q-4 -9 -8.5 -20t-4.5 -22q0 -16 17 -16q15 0 35 15t41 37t40 44.5t32 37.5
t15 15q4 0 4 -4q0 -1 -8.5 -11.5t-18 -20.5t-11.5 -13q-13 -15 -31 -36t-38.5 -41.5t-42.5 -34t-43 -13.5z" />
    <glyph glyph-name="m" unicode="m" horiz-adv-x="463" 
d="M331 -4q-19 0 -28.5 11t-9.5 29t11 45.5t27 58t31.5 57.5t25.5 43q-26 -12 -48.5 -32t-42.5 -40q-23 -24 -40.5 -51t-31.5 -56q-4 -9 -7.5 -17.5t-8.5 -16.5q-4 -10 -21.5 -19t-27.5 -9q-11 0 -11 12q0 18 9 45.5t22.5 57.5t27 57l22.5 45t9 20t-2 2q-3 0 -7 -2.5
t-6 -4.5q-30 -21 -62.5 -57t-61 -75t-47.5 -71q-11 -19 -25.5 -23.5t-34.5 -4.5q7 16 15 31t15 29q12 24 22 47.5t20 47.5q8 21 17 49.5t9 50.5q0 6 -1 12t-4 11l-3 3q0 6 7 6q6 0 21 -7t28.5 -16.5t13.5 -17.5q0 -15 -11.5 -43t-26 -54.5t-24.5 -39.5q-1 -1 -2.5 -3
t-1.5 -4l1 -1q2 0 16 17.5t35.5 43.5t47.5 52.5t52 44t48 17.5q11 0 25 -5.5t14 -19.5q0 -4 -2 -7.5t-4 -7.5q-21 -28 -41 -56t-37 -60q12 16 36 42t52.5 52t56.5 44t49 18q11 0 25 -5.5t14 -19.5q0 -4 -2 -7.5t-4 -7.5q-11 -15 -30.5 -40.5t-40 -55.5t-35 -57t-14.5 -44
q0 -18 18 -18q15 0 35 15t41.5 37t40.5 44.5t31.5 37.5t15.5 15t3 -4q0 -1 -8.5 -11.5t-17.5 -20.5t-12 -13q-13 -15 -32.5 -36.5t-42 -41.5t-46 -33.5t-44.5 -13.5z" />
    <glyph glyph-name="n" unicode="n" horiz-adv-x="320" 
d="M201 -3q-20 0 -30 13.5t-10 32.5q0 26 12 57t27 60t27 49.5t12 26.5q0 2 -2 2q-3 0 -7 -2.5t-6 -4.5q-30 -20 -62.5 -56t-61 -75.5t-47.5 -71.5q-11 -19 -25.5 -23.5t-34.5 -4.5q7 16 15 31t15 29q12 24 22 47.5t20 47.5q8 21 17 49.5t9 50.5q0 6 -1 12t-4 11l-3 3
q0 6 7 6q6 0 21 -7t28.5 -16.5t13.5 -17.5q0 -15 -11.5 -43t-26 -54.5t-24.5 -39.5q-1 -1 -2.5 -3t-1.5 -4l1 -1q2 0 16 17.5t35.5 43.5t47.5 52.5t52 44t48 17.5q11 0 25 -5.5t14 -19.5q0 -4 -2 -7.5t-4 -7.5q-31 -42 -58 -81.5t-48 -89.5q-2 -6 -4.5 -12.5t-2.5 -13.5
q0 -18 18 -18q15 0 35 15t41.5 37t40.5 44.5t32 37.5t15 15q3 0 3 -4q0 -1 -8.5 -11.5t-17.5 -20.5t-12 -13q-17 -19 -38.5 -44.5t-45.5 -46.5t-49 -30q-9 -3 -20 -3z" />
    <glyph glyph-name="o" unicode="o" 
d="M92 -4q-29 0 -53.5 18t-24.5 49q0 23 15 55t39.5 65t54.5 61.5t59.5 46t53.5 17.5q8 0 17.5 -2.5t13.5 -10.5q20 1 28 -11.5t8 -30.5q0 -27 -15.5 -61t-36.5 -65t-38 -51l6 -1q29 -1 51.5 12t42 33t37.5 38l2 2q3 0 3 -5q0 -2 -1 -3q-14 -20 -36 -40.5t-48 -34t-52 -13.5
h-7.5t-7.5 1q-13 -14 -31 -30t-38.5 -27.5t-41.5 -11.5zM98 11q26 0 50.5 22t40.5 40q-6 3 -15 10.5t-9 15.5q0 14 19 26.5t42 22.5t33 15q10 16 18 37.5t8 40.5q0 11 -4.5 19t-17.5 8q-11 0 -23 -5t-21 -10q-51 -27 -92.5 -74t-57.5 -104q-1 -6 -2.5 -12.5t-1.5 -12.5
q0 -16 8 -27.5t25 -11.5z" />
    <glyph glyph-name="p" unicode="p" horiz-adv-x="299" 
d="M-151 -160q-22 0 -41 7.5t-27 31.5l9 2q3 -14 13.5 -19.5t23.5 -5.5q36 0 71.5 27.5t69 71.5t62.5 94t52.5 95.5t38.5 74.5q-22 -24 -43.5 -49t-44.5 -50q0 -2 -2 -2q-4 0 -4 4q0 2 8.5 12t18 21t11.5 13l80 98q1 2 5 11t5 11q5 12 14.5 33t23 37.5t28.5 16.5t15 -12
q0 -7 -4 -15.5t-9 -14.5q-10 -13 -21.5 -25.5t-22.5 -25.5l-9 -9t-9 -10q-6 -9 -10.5 -22.5t-9.5 -23.5q-13 -31 -25 -62.5t-24 -63.5l-6 -16q22 34 53 77t67.5 81t71.5 57q3 2 6 2h6q20 0 37.5 -14.5t17.5 -35.5q0 -7 -2 -13.5t-5 -13.5q-20 -43 -57 -85.5t-81.5 -76.5
t-89.5 -52q-5 -1 -11 -3.5t-12 -2.5q-7 0 -15 3.5t-14 7.5q-20 -45 -48.5 -82.5t-67.5 -60.5t-93 -23zM68 22q65 29 119.5 77.5t90.5 109.5q5 8 13 23.5t8 25.5q0 9 -8 9q-9 0 -24 -8.5t-28.5 -19.5t-20.5 -17q-26 -23 -55 -57.5t-54 -72t-41 -70.5z" />
    <glyph glyph-name="q" unicode="q" horiz-adv-x="299" 
d="M100 -200q-8 0 -23.5 4.5t-28.5 12t-13 17.5q0 15 10 41t25.5 56.5t33 61t32.5 55.5t23 38q-7 -8 -21 -23t-31 -30t-32.5 -25.5t-26.5 -10.5q-20 0 -36.5 15t-16.5 36q0 14 6 26q15 32 41 65.5t58.5 65t67 57.5t64.5 41q5 2 20 8.5t18 6.5q2 0 8 -9.5t11.5 -20t5.5 -13.5
v-3q5 -1 17.5 -4t23.5 -7t11 -8q0 -2 -1 -2.5t-3 -2.5l-4 -6q-8 -12 -17 -23l-18 -22q-36 -49 -71.5 -98.5t-67.5 -100.5q-20 -31 -39.5 -64t-33.5 -68q-2 -4 -4 -10.5t-2 -11.5q0 -6 4 -6q5 0 14.5 8.5t12.5 12.5q19 24 36 49t35 49q35 48 73.5 94t79.5 89q0 1 2 1
q3 0 3 -3q0 -2 -1 -2q-16 -22 -34.5 -42t-35.5 -42q-38 -49 -72.5 -102.5t-65.5 -109.5q-6 -11 -13.5 -25.5t-23.5 -14.5zM45 24q8 0 17.5 4.5t16.5 8.5q20 11 42 29t42 38.5t33 38.5q11 14 20 29.5t19 29.5q8 13 17.5 25.5t17.5 25.5q2 2 3.5 5t2.5 6q-74 -32 -136 -87.5
t-97 -128.5q-1 -4 -3 -8t-2 -9q0 -7 7 -7z" />
    <glyph glyph-name="r" unicode="r" horiz-adv-x="266" 
d="M144 -4q-20 0 -32.5 12t-12.5 32t12.5 49t30.5 61t36 60.5t29 46.5q-7 -3 -17 -3q-11 0 -23 3.5t-23 7.5q-3 -5 -14.5 -21.5t-27 -38t-31.5 -41.5t-27.5 -33.5t-15.5 -13.5q-3 0 -3 3q0 2 3 5q11 14 22.5 27t22.5 27q17 21 32 44t27 48q-6 4 -16 12t-10 16q0 11 13 21.5
t29 18.5l24 12q4 1 18.5 7.5t15.5 6.5q4 0 4 -4q0 -1 -12.5 -12.5t-25 -27.5t-12.5 -32q0 -14 12 -20t24 -6q11 0 18 4q3 5 8 5q8 0 20 -2.5t22 -8t10 -15.5q0 -7 -4 -13.5t-9 -11.5q-10 -12 -29.5 -35.5t-40 -51.5t-34.5 -53t-14 -39q0 -10 7 -16.5t17 -6.5q16 0 37 15.5
t42.5 38t40.5 44.5t32 37.5t15 15.5q4 0 4 -4q0 -2 -10 -14t-25.5 -29.5t-32 -35t-28.5 -30.5t-16 -16q-16 -15 -37.5 -30t-44.5 -15z" />
    <glyph glyph-name="s" unicode="s" horiz-adv-x="178" 
d="M55 -37q-29 0 -42.5 22.5t-13.5 48.5q0 2 0.5 6t4.5 4q3 0 4 -3.5t2 -5.5q9 -30 41 -30q17 0 28 11t11 29q0 20 -10 42t-20.5 47t-10.5 52q0 22 7 39q7 18 26.5 34.5t45.5 29.5t52 20t44 7q21 0 28 -10t7 -30q0 -4 -1 -10.5t-6 -8.5q-22 -7 -47 -19.5t-34 -35.5
q-1 -3 -4 -3q-5 0 -5 5q0 14 17 31.5t28 24.5q-29 -8 -57.5 -22.5t-47 -37.5t-18.5 -58q0 -31 13 -58.5t13 -58.5q0 -25 -13.5 -43.5t-41.5 -18.5z" />
    <glyph glyph-name="t" unicode="t" horiz-adv-x="178" 
d="M56 -4q-18 0 -31.5 10.5t-13.5 29.5q0 17 12.5 46t30 62t34.5 61t27 44h-39l6 10h39q14 23 27.5 46t29.5 45q9 13 19.5 24.5t27.5 11.5q6 0 20 -3.5t26.5 -8.5t13.5 -11q-15 -5 -34.5 -25.5t-36.5 -43t-26 -35.5h46l-6 -10h-47q-10 -13 -29.5 -41.5t-40.5 -61.5
t-35.5 -61.5t-14.5 -43.5q0 -20 22 -20q15 0 35 15t41 37t40 44.5t32 37.5t15 15q3 0 3 -4q0 -1 -8.5 -11.5t-17.5 -20.5t-12 -13q-13 -15 -30.5 -36t-38.5 -41.5t-43 -34t-43 -13.5z" />
    <glyph glyph-name="u" unicode="u" horiz-adv-x="305" 
d="M54 -4q-19 0 -31 14t-12 33q0 31 13.5 64.5t32 64.5t32 55t13.5 34q0 5 -3 6q18 8 34 8q10 0 25 -4.5t15 -17.5q0 -4 -2 -7.5t-4 -6.5q-30 -42 -57 -84t-47 -90q-2 -6 -4.5 -13t-2.5 -14q0 -17 17 -17q15 0 35 21.5t41 54t41.5 68t37 64t25.5 41.5q1 2 6 2q4 0 18.5 -3
t27.5 -7t13 -8q0 -1 -1 -1q-7 -10 -15 -20l-16 -20q-25 -34 -48.5 -71t-40.5 -77q-2 -6 -4 -12.5t-2 -13.5q0 -18 18 -18q15 0 35 15t41 37t40 44.5t32 37.5t15 15q4 0 4 -4q0 -1 -8.5 -11.5t-18 -20.5t-11.5 -13q-18 -21 -44 -50t-55.5 -51.5t-59.5 -22.5q-41 0 -41 42
q0 17 6 32q-9 -14 -23 -31.5t-31 -30.5t-36 -13z" />
    <glyph glyph-name="v" unicode="v" horiz-adv-x="239" 
d="M83 -6q-30 0 -43 18t-13 46q0 20 4.5 40.5t10.5 39.5q2 8 9.5 27.5t16.5 41.5t17.5 39.5t13.5 22.5q2 1 6 1q5 0 19 -2.5t26.5 -6.5t12.5 -9q0 -1 -1 -1.5t-2 -2.5l-13 -21q-17 -28 -32 -57.5t-26 -61.5q-6 -16 -12 -38t-6 -39q0 -7 2.5 -15t12.5 -8q13 0 32.5 15
t38 33.5l26.5 26.5q20 21 43 53t39 66.5t16 64.5q0 15 -5.5 25.5t-5.5 14.5t6 4q11 0 18 -9.5t11 -22t4 -21.5q0 -14 -4 -25q-5 -16 -23.5 -45t-45 -62.5t-55.5 -63.5t-55 -49t-43 -19z" />
    <glyph glyph-name="w" unicode="w" horiz-adv-x="417" 
d="M209 -6q-26 0 -38.5 19.5t-12.5 42.5q0 8 1 14.5t4 13.5q-10 -15 -28 -36t-39 -36.5t-42 -15.5q-19 0 -31 14t-12 33q0 31 13.5 64.5t32 64.5t32 55t13.5 34q0 5 -3 6q18 8 34 8q10 0 25 -4.5t15 -17.5q0 -4 -1.5 -7.5t-3.5 -6.5q-30 -42 -57 -84t-47 -90q-2 -6 -5 -13
t-3 -14q0 -17 17 -17q12 0 27.5 12.5t31 30.5t28 35.5t18.5 27.5q15 25 29.5 50t29.5 50q7 11 13 22t13 21q2 2 6 2q5 0 19 -3t27 -7t13 -8q0 -1 -13 -17t-31.5 -40.5t-37.5 -53.5t-32 -57t-13 -50q0 -10 4 -19t16 -9q11 0 22 6.5t19 12.5q23 18 49 46t48.5 61.5t37 68
t14.5 64.5q0 14 -5.5 25.5t-5.5 14.5q0 4 7 4q10 0 17 -9.5t11 -22t4 -21.5q0 -26 -18 -60.5t-45 -70t-55.5 -64.5t-48.5 -44q-13 -10 -29.5 -17.5t-33.5 -7.5z" />
    <glyph glyph-name="x" unicode="x" horiz-adv-x="271" 
d="M-4 -126q-17 0 -32.5 9t-15.5 28q0 20 16 48.5t39 58.5t45.5 55.5t35.5 39.5q-2 16 -3 31.5t-1 31.5q-2 -3 -10.5 -13.5t-16.5 -20t-11 -9.5t-3 3q0 1 5.5 8t12 14.5t7.5 10.5q11 18 13.5 31t3 26t4.5 29q1 4 15 10t29.5 10.5t19.5 4.5q2 0 2 -2q-5 -28 -9 -56t-6 -56
q11 10 36 32t55 46.5t56.5 41.5t41.5 17q7 0 8 -6l-2 -1q-19 -3 -46.5 -21t-57 -43t-54 -48.5t-37.5 -37.5v-4q0 -15 2.5 -37.5t12 -40t30.5 -17.5t46.5 17t49 39.5t39 39.5t16.5 17q3 0 3 -4q0 -1 -0.5 -1.5l-0.5 -0.5q-13 -16 -35 -39t-47.5 -46t-51.5 -38.5t-47 -15.5
q-20 0 -33.5 12.5t-20.5 31t-11 34.5q-12 -15 -30.5 -38t-36 -49.5t-29.5 -52t-12 -45.5q0 -11 4 -18t16 -7q3 0 3 -4q0 -5 -7 -5z" />
    <glyph glyph-name="y" unicode="y" horiz-adv-x="257" 
d="M-21 -158q-19 0 -36 8.5t-24 28.5l9 2q4 -14 14.5 -19.5t23.5 -5.5q25 0 45 11q31 15 61 51t57.5 81.5t50 89t37.5 73.5q-8 -12 -25.5 -36t-38.5 -51.5t-40.5 -48t-31.5 -25.5t-20 -5q-19 0 -31 14t-12 33q0 30 13.5 64t32 65t32 55t13.5 34q0 5 -3 6q18 8 33 8
q10 0 25.5 -4.5t15.5 -17.5q0 -4 -2 -7.5t-4 -6.5q-29 -41 -56.5 -83.5t-47.5 -90.5q-2 -6 -4.5 -12.5t-2.5 -14.5q0 -17 17 -17q11 0 29.5 18.5t40.5 47.5t43 60t37.5 57t23.5 37q5 9 15.5 24.5t23 28.5t23.5 13q9 0 16 -7.5t7 -15.5q0 -12 -12 -12q-25 0 -41 -12t-27 -35
q-20 -45 -34 -96.5t-30 -102.5t-41 -92.5t-67 -66.5t-108 -25z" />
    <glyph glyph-name="z" unicode="z" horiz-adv-x="268" 
d="M168 -17q-13 0 -34 5t-41 13t-32 16q-10 -7 -24.5 -18.5t-27.5 -11.5q-8 0 -14.5 4t-6.5 14q0 19 18.5 36t36.5 17q9 0 18.5 -0.5t17.5 -4.5q11 11 33 35t50 52.5t56 55t50.5 44t34.5 18.5q-3 1 -9 1q-26 0 -53.5 -15t-55.5 -30t-55 -15q-6 0 -12.5 2t-10.5 7
q-3 -4 -12.5 -16t-21.5 -26t-21 -24t-11 -10t-4 3q1 1 1 1.5v0.5q5 7 11 13t11 13l22 28t22 27q0 9 9 28t20 35t16 16q3 0 3 -3q0 -2 -1 -5t-1 -6q0 -13 7.5 -15.5t18.5 -2.5q24 0 47 6t48 6q15 0 30 -4.5t22 -19.5q2 -2 2 -5q0 -4 -5 -4q-4 0 -7.5 2.5t-5.5 4.5
q-11 0 -32.5 -17.5t-47.5 -44t-52 -55t-47 -51.5t-32 -34q14 -4 26.5 -9t28.5 -5q32 0 63 19t55.5 44t40.5 44t18 19q3 0 3 -5q0 -2 -8.5 -12t-19.5 -22.5t-20.5 -23t-12.5 -13.5q-9 -9 -16.5 -19t-14.5 -21q-13 -22 -26.5 -42t-44.5 -20z" />
    <glyph glyph-name="braceleft" unicode="{" horiz-adv-x="399" 
d="M181 -54q-23 0 -46.5 1.5t-39 11.5t-15.5 36v7t1 8q7 40 26.5 77.5t26.5 76.5q1 3 1 9q0 19 -10.5 29.5t-25 15t-25.5 4.5l2 12q49 5 75.5 21t45.5 65q8 19 14 40t13 40q14 38 42.5 66.5t89.5 32.5h40q12 0 12 -7t-13 -7q-35 0 -55.5 -13.5t-32.5 -37.5t-23 -55
q-5 -15 -10.5 -30.5t-13.5 -30.5q-9 -20 -33.5 -39.5t-52.5 -33t-50 -18.5q17 -3 35 -12.5t29 -23.5t8 -30q-7 -40 -25.5 -77.5t-25.5 -76.5q-1 -4 -1.5 -8t-0.5 -7q0 -23 15 -27.5t34 -6.5q9 -1 9 -6q0 -4 -9 -6h-11z" />
    <glyph glyph-name="bar" unicode="|" horiz-adv-x="162" 
d="M94 -3q-7 0 -16 5.5t-8 10.5q16 128 21.5 259.5t5.5 261.5q0 2 6.5 3.5t13.5 1.5q8 0 15 -1t7 -3q0 -127 -11.5 -264t-22.5 -264q0 -10 -11 -10z" />
    <glyph glyph-name="braceright" unicode="}" horiz-adv-x="371" 
d="M15 -54q-11 0 -11 7t12 7q36 0 56 13.5t32.5 37.5t23.5 55q5 15 11 30.5t13 30.5q10 20 34 39t52 33t50 19q-17 3 -35 12.5t-29 23.5t-8 30q7 40 25.5 77t25.5 77q1 5 1.5 8.5t0.5 6.5q0 23 -14.5 27t-34.5 7q-9 2 -9 6q0 5 9 6h11q23 0 46.5 -1.5t39.5 -11t16 -35.5
q0 -4 -0.5 -7.5t-1.5 -8.5q-7 -40 -26.5 -77.5t-26.5 -77.5q-1 -4 -1 -10q0 -18 10.5 -28t25 -14.5t25.5 -4.5l-3 -13q-48 -4 -74.5 -20t-45.5 -65q-7 -19 -13 -39.5t-14 -40.5q-14 -37 -42.5 -66t-90.5 -33h-40z" />
    <glyph glyph-name="asciitilde" unicode="~" horiz-adv-x="235" 
d="M53 348q-1 0 -2 1q-4 10 5.5 26.5t30.5 16.5q11 0 31 -3t39.5 -5.5t28.5 -1.5q11 0 17 8.5t10 8.5q2 0 2 -2q2 -5 -2.5 -15t-14.5 -18.5t-24 -8.5q-11 0 -30.5 3.5t-39 7.5t-30.5 4q-9 0 -12 -5.5t-4 -11t-5 -5.5z" />
    <glyph glyph-name="DEL" horiz-adv-x="667" 
 />
    <glyph glyph-name="uni00A0" unicode="&#xa0;" horiz-adv-x="199" 
 />
    <glyph glyph-name="exclamdown" unicode="&#xa1;" horiz-adv-x="150" 
d="M110 188q-8 0 -8 6q0 1 0.5 1.5l0.5 0.5q9 12 11 22v6q0 6 1 12t6 6q6 0 19.5 -7.5t13.5 -15.5q0 -5 -9 -12.5t-19.5 -13t-15.5 -5.5zM-41 -122q-3 0 -15.5 1t-24 3.5t-11.5 5.5q0 1 0.5 1.5t0.5 1.5q46 45 88 98t76 107q7 12 13.5 24t13.5 23q2 4 5.5 8.5t7.5 4.5
q3 0 3.5 -3t0.5 -5q0 -12 -13 -43t-33.5 -69.5t-43 -74.5t-41 -59.5t-27.5 -23.5z" />
    <glyph glyph-name="cent" unicode="&#xa2;" horiz-adv-x="362" 
d="M35 36q-7 0 -7 6q0 9 12 30.5t29 47t32.5 47t22.5 30.5q-26 14 -26 44q0 11 5 26q11 32 34.5 68.5t55 70.5t66 61t65.5 40q5 2 9.5 3t9.5 0q4 7 16 23.5t25.5 31.5t19.5 15q5 0 5 -3q0 -1 -1 -2t-1 -2q-14 -16 -27 -32.5t-24 -34.5q11 -8 11 -24q0 -6 -5.5 -24
t-12.5 -33.5t-14 -15.5q-6 0 -6 6t9.5 19t9.5 27q0 4 -2 4q-1 0 -4 -2t-5 -2q-61 -31 -109 -76.5t-77 -107.5q-4 -11 -8.5 -24t-4.5 -25q0 -8 3.5 -15t13.5 -7q8 0 15.5 3.5t14.5 7.5q43 26 78 60t67 71q2 2 3 2l1 -1q0 -4 -2.5 -7.5t-4.5 -5.5q-13 -17 -33.5 -41.5t-45 -48
t-50 -39t-48.5 -15.5q-30 -34 -60 -72t-49 -79q-2 -5 -6 -5z" />
    <glyph glyph-name="sterling" unicode="&#xa3;" horiz-adv-x="451" 
d="M159 -23q-16 0 -38.5 2t-44 8.5t-35.5 19.5t-14 36q0 17 10 43.5t24 56t28 55.5t23 41q-25 -3 -51 -3q-9 0 -20 2.5t-11 15.5q0 8 7.5 15.5t15.5 7.5h82q22 37 50 80.5t62.5 83t76 65t89.5 25.5q44 0 66.5 -26.5t22.5 -69.5q0 -12 -2.5 -25.5t-9.5 -24.5l-8 6q1 5 1.5 9
t0.5 8q0 29 -15 52.5t-47 23.5q-33 0 -64 -22.5t-59 -56t-51 -68.5t-40 -60h112l-6 -13q-31 -7 -62.5 -10.5t-62.5 -6.5q-9 -13 -25.5 -40.5t-34 -58.5t-29.5 -58t-12 -41q0 -20 15 -30t34.5 -13t34.5 -3q40 0 88 9t95 23t84 29l-42 -57q-56 -13 -118.5 -21.5t-119.5 -8.5z
" />
    <glyph glyph-name="currency" unicode="&#xa4;" horiz-adv-x="295" 
d="M27 219l-14 15l51 39q-7 10 -9.5 21t-2.5 22q0 23 10 42q-12 10 -24.5 19.5t-25.5 19.5l17 14q14 -9 27.5 -18t26.5 -17q21 9 45 9t46 -9q14 9 28.5 18t28.5 17l13 -15l-50 -38q11 -18 11 -42q0 -11 -2.5 -22t-9.5 -21l51 -39l-13 -15l-30 18t-30 19q-10 -4 -21.5 -6
t-22.5 -2q-22 0 -42 7zM128 273q47 0 47 43t-47 43t-47 -43t47 -43z" />
    <glyph glyph-name="yen" unicode="&#xa5;" horiz-adv-x="523" 
d="M189 -5q19 33 35 67.5t29 69.5q-19 -1 -37.5 -3t-37.5 -2q-7 0 -17.5 2t-10.5 12q0 7 7 12t13 5h91q6 20 11 39.5t7 40.5q-16 -1 -33.5 -3t-34.5 -2q-7 0 -17.5 2t-10.5 12q0 7 7 12t14 5h78q1 5 1 10.5v11.5q0 44 -15 87t-47 74q-9 8 -20 11t-22 3q-23 0 -44.5 -10.5
t-26.5 -10.5q-1 0 -1 1q0 5 12.5 15t26.5 19.5t18 11.5q15 10 29.5 18t33.5 8q32 0 53.5 -26t34.5 -63.5t19 -75.5t6 -62v-11t-1 -11q13 20 35 51.5t51 67t60.5 67t62.5 51.5t58 20q24 0 41 -19t27 -39l1 -5q0 -5 -4 -5t-15.5 12.5t-37.5 12.5q-7 0 -14.5 -2t-14.5 -5
q-73 -31 -129 -86t-97 -121h79l-6 -10q-21 -4 -42 -6t-43 -4q-12 -21 -22.5 -42.5t-21.5 -44.5h101l-5 -9q-26 -4 -52.5 -7t-52.5 -5q-8 -19 -15 -37.5t-14 -38.5q-4 -10 -7 -19.5t-7 -18.5q-3 -9 -15.5 -14.5t-27 -8.5t-23.5 -4z" />
    <glyph glyph-name="brokenbar" unicode="&#xa6;" horiz-adv-x="316" 
d="M122 404v303h59v-303h-59zM122 0v303h59v-303h-59z" />
    <glyph glyph-name="section" unicode="&#xa7;" horiz-adv-x="309" 
d="M66 -120q-59 0 -87.5 40t-30.5 93h7q8 -37 33.5 -64.5t66.5 -27.5q30 0 52.5 18t35 45t12.5 55q0 36 -16.5 62.5t-38.5 49.5t-38.5 47t-16.5 54q0 28 14.5 52.5t35.5 45.5t42 36q8 24 33 46.5t59.5 41t72.5 32.5t72 21.5t58 7.5q36 0 46.5 -12.5t19.5 -43.5q1 -3 -3.5 -4
t-6.5 -1q-15 -3 -37 -11.5t-44 -20.5t-39 -26.5t-21 -30.5l-10 1q6 27 28 52.5t44 40.5q-24 -2 -62 -15.5t-76 -35t-64 -48.5t-26 -56q0 -28 15.5 -54t36.5 -52t36.5 -55.5t15.5 -64.5q0 -40 -24.5 -70t-61.5 -43q-5 -32 -25 -55.5t-48.5 -36.5t-59.5 -13zM195 37
q21 18 32.5 44.5t11.5 53.5q0 30 -12 53.5t-29.5 43.5t-34 39.5t-26.5 41t-6 48.5q-24 -17 -36.5 -43t-12.5 -55q0 -24 14.5 -51.5t34.5 -57.5t38.5 -60t25.5 -57z" />
    <glyph glyph-name="dieresis" unicode="&#xa8;" horiz-adv-x="201" 
d="M159 319q-6 0 -16.5 5t-19.5 12.5t-9 13.5q0 8 12 17.5t26.5 16.5t20.5 7q10 0 10 -7q0 -3 -1 -4q-7 -7 -9 -13l-5 -15q-2 -6 -1.5 -19.5t-7.5 -13.5zM45 319q-6 0 -16.5 5t-19.5 12.5t-9 13.5q0 8 12 17.5t26.5 16.5t20.5 7q10 0 10 -7q0 -3 -1 -4q-7 -7 -9 -13l-5 -15
q-2 -6 -1.5 -19.5t-7.5 -13.5z" />
    <glyph glyph-name="copyright" unicode="&#xa9;" horiz-adv-x="633" 
d="M224 18q-62 4 -105 39.5t-43 101.5q0 23 5 45t13 43q19 47 60.5 88t92 71.5t96.5 46.5q28 9 56.5 15t57.5 8q8 1 15.5 1h14.5q23 0 51 -4.5t54 -15t42.5 -30t16.5 -49.5q0 -16 -6.5 -30.5t-6.5 -19.5q0 -3 1.5 -5t2.5 -5l3 -10q2 -7 3 -15t1 -16q0 -43 -23 -79.5
t-54 -63.5q-68 -60 -147 -88t-169 -28h-32zM249 31q74 0 144.5 28t125.5 77q22 19 45 52.5t39 70t16 65.5q0 6 -1.5 12t-1.5 11q0 2 5 3t6 2q1 2 1.5 10t0.5 10q0 16 -6 28.5t-16 23.5q-22 24 -54.5 32t-63.5 8q-8 0 -17 -0.5t-17 -1.5q-73 -6 -140 -41q-47 -25 -92.5 -69.5
t-75 -98.5t-29.5 -111q0 -61 37.5 -86t93.5 -25zM295 95q-27 0 -53 14.5t-26 45.5q0 5 0.5 8.5t1.5 7.5q8 35 34 73.5t62.5 73.5t76.5 61t74 35q7 -2 14.5 -14.5t13 -26.5t5.5 -21q0 -6 -2 -8.5t-7 -4.5q-4 -1 -8.5 -2.5t-8.5 -3.5q-21 -10 -37 -27.5t-22 -39.5q-2 -4 -4 -4
q-3 0 -3 4q0 2 1.5 7t2.5 6q6 20 17.5 40.5t27.5 34.5q-57 -27 -105.5 -70.5t-71.5 -103.5q-8 -19 -8 -37q0 -13 6 -23t20 -10q10 0 19 3.5t18 7.5q47 24 85.5 58t74.5 73q2 2 3 2t1 -3t-1.5 -6t-3.5 -6q-26 -32 -62 -67.5t-71 -58.5q-28 -18 -64 -18z" />
    <glyph glyph-name="ordfeminine" unicode="&#xaa;" horiz-adv-x="333" 
d="M184 282q-13 0 -21.5 8.5t-8.5 24.5t8 36t14 33q-11 -15 -29.5 -39t-39.5 -42.5t-40 -18.5q-15 0 -21.5 12t-6.5 26q0 5 0.5 9.5t1.5 8.5q6 27 27.5 55t47.5 53t45 40q8 5 15.5 9t15.5 4q11 0 20.5 -6.5t16.5 -14.5q2 4 3 6.5t5 2.5q3 0 12.5 -2.5t18.5 -5.5t9 -6
q0 -1 -1 -1l-21 -30q-17 -25 -33 -53t-27 -58q-1 -4 -2.5 -9t-1.5 -10q0 -14 12 -14t30 17t35.5 39t30 39t14.5 17t2 -3q0 -1 -10 -14.5t-24 -30.5t-26 -31.5t-15 -17.5q-10 -11 -25 -22t-31 -11zM74 301q5 0 11 3.5t10 5.5q27 17 50 44.5t43.5 59.5t37.5 60q-2 1 -5 1
q-7 0 -14 -5q-39 -22 -73.5 -59.5t-57.5 -78.5q-3 -4 -5.5 -11t-2.5 -12q0 -8 6 -8z" />
    <glyph glyph-name="guillemotleft" unicode="&#xab;" horiz-adv-x="401" 
d="M336 44q-1 0 -2.5 3t-2.5 4q-18 40 -45 73.5t-58 64.5q-2 2 -2 3t0.5 1.5t0.5 1.5q1 5 14.5 20t33 35t39.5 39.5t36.5 34.5t22.5 21q8 8 16.5 17t17.5 16q5 5 13 5q6 0 6 -5q0 -4 -13 -20.5t-33 -38.5t-40.5 -44.5t-37 -39.5t-22.5 -23q5 -10 15.5 -30.5t22 -43t19.5 -42
t8 -28.5q0 -2 -3 -13t-6 -11zM196 44q-1 0 -2.5 3t-2.5 4q-18 40 -45 73.5t-58 64.5q-2 2 -2 3t0.5 1.5t0.5 1.5q1 5 14.5 20t33 35t39.5 39.5t36.5 34.5t22.5 21q8 8 16.5 17t17.5 16q5 5 13 5q6 0 6 -5q0 -4 -13 -20.5t-33 -38.5t-40.5 -44.5t-37 -39.5t-22.5 -23
q5 -10 15.5 -30.5t22 -43t19.5 -42t8 -28.5q0 -2 -3 -13t-6 -11z" />
    <glyph glyph-name="logicalnot" unicode="&#xac;" horiz-adv-x="411" 
d="M333 56v86h-325v31q89 0 178 0.5t178 0.5v-118h-31z" />
    <glyph glyph-name="uni00AD" unicode="&#xad;" horiz-adv-x="287" 
d="M114 148q-7 0 -15 2.5t-8 11.5q0 6 5.5 11.5t11.5 5.5h161h3.5t2.5 -2q0 -7 -21 -12.5t-50.5 -9.5t-55 -5.5t-34.5 -1.5z" />
    <glyph glyph-name="registered" unicode="&#xae;" horiz-adv-x="655" 
d="M224 18q-62 4 -105 39.5t-43 101.5q0 23 5 45t13 43q19 47 60.5 88t92 71.5t96.5 46.5q28 9 56.5 15t57.5 8q8 1 15.5 1h14.5q23 0 51 -4.5t54 -15t42.5 -30t16.5 -49.5q0 -16 -6.5 -30.5t-6.5 -19.5q0 -3 1.5 -5t2.5 -5l3 -10q2 -7 3 -15t1 -16q0 -43 -23 -79.5
t-54 -63.5q-68 -60 -147 -88t-169 -28h-32zM249 31q42 0 83.5 9.5t79.5 26.5q-19 6 -44 17t-48 26.5t-38 35.5t-15 44q0 8 1 11q-2 2 -2 6q0 11 9.5 17t18.5 7q38 6 74.5 19t68.5 32q9 5 24.5 15.5t28 23.5t12.5 25q0 11 -10.5 14.5t-18.5 3.5q-28 0 -57 -14t-51 -31
q-55 -42 -106 -99t-74 -123q-1 -4 -2.5 -8.5t-6.5 -4.5q-4 0 -5.5 4.5t-1.5 7.5q0 12 13.5 45t34 75t43 84t41.5 73t28 41q1 1 3.5 1h3.5q4 0 17 -1.5t24.5 -3.5t11.5 -5q0 -1 -2 -3q-33 -38 -62.5 -81t-59.5 -84q18 21 47 50t62.5 56.5t67.5 45.5t63 18q14 0 31.5 -6.5
t17.5 -24.5t-16.5 -35t-29.5 -27q-43 -33 -93.5 -54t-99.5 -43q-1 -2 -1 -5v-5q0 -28 19.5 -54t46.5 -46.5t50 -30.5q49 25 89 60q22 19 45 52.5t39 70t16 65.5q0 6 -1.5 12t-1.5 11q0 2 5 3t6 2q1 2 1.5 10t0.5 10q0 15 -6 28.5t-16 23.5q-22 24 -54.5 32t-63.5 8
q-8 0 -17 -0.5t-17 -1.5q-66 -6 -124 -33q-38 -18 -76 -48t-69 -68.5t-49.5 -82t-18.5 -88.5q0 -61 37.5 -86t93.5 -25z" />
    <glyph glyph-name="macron" unicode="&#xaf;" horiz-adv-x="184" 
d="M23 336q-7 0 -15 2t-8 11q0 6 5.5 11.5t11.5 5.5l161 1q1 0 3.5 -0.5t2.5 -2.5q0 -7 -21 -12.5t-50.5 -9t-55 -5t-34.5 -1.5z" />
    <glyph glyph-name="degree" unicode="&#xb0;" horiz-adv-x="312" 
d="M153 434q-23 0 -37 15.5t-14 37.5t12 43t32 34.5t42 13.5q23 0 37 -15.5t14 -38.5q0 -22 -12 -42.5t-31.5 -34t-42.5 -13.5zM153 453q25 0 43 20.5t18 44.5q0 14 -7.5 24t-22.5 10q-24 0 -42 -20t-18 -44q0 -13 7 -24t22 -11z" />
    <glyph glyph-name="plusminus" unicode="&#xb1;" horiz-adv-x="361" 
d="M166 63q-2 0 -2 3q0 2 8 19t19.5 39.5t20.5 41.5t11 23q-24 -1 -48.5 -2.5t-48.5 -1.5q-7 0 -15 2t-8 12q0 6 5.5 11.5t11.5 5.5h117l46 96q2 3 7.5 6t9.5 3q13 0 13 -13q0 -4 -6 -17t-14.5 -29t-15.5 -28.5t-10 -17.5h121q1 0 4 -0.5t3 -2.5q0 -7 -19.5 -11.5t-46 -7
t-49 -3.5t-27.5 -1q-4 -7 -14.5 -27t-24 -43t-26.5 -40t-22 -17zM94 6q-7 0 -15 2t-8 11q0 6 5.5 11.5t11.5 5.5l161 1q1 0 3.5 -0.5t2.5 -2.5q0 -7 -21 -12.5t-50.5 -9t-55 -5t-34.5 -1.5z" />
    <glyph glyph-name="uni00B2" unicode="&#xb2;" horiz-adv-x="431" 
d="M199 396q-4 0 0 9q4 8 -31 8h-21.5t-23.5 -2q-29 -2 -55.5 -5t-29.5 -3q-4 0 -4 9q0 4 0.5 7.5t0.5 4.5q47 25 100.5 58.5t99.5 73.5q33 29 59 59q7 8 7 15q0 10 -17 10q-18 0 -47.5 -9t-54 -23.5t-28.5 -32.5q3 -4 1 -7.5t-6 0.5t-8.5 9t-4.5 12q0 14 18.5 25t45 19
t51.5 12.5t39 4.5t23.5 -4.5t9.5 -17.5q0 -6 -3 -14q-5 -15 -25 -37t-48 -43q-31 -23 -65 -44.5t-59.5 -35.5t-33.5 -17q16 4 38 6q10 1 19.5 2t19.5 1q16 0 29 -3t17 -10q2 -4 2 -8q0 -9 -5 -19q-6 -10 -10 -10z" />
    <glyph glyph-name="uni00B3" unicode="&#xb3;" horiz-adv-x="456" 
d="M101 387q-22 0 -38 9.5t-16 34.5q0 13 4 26q1 4 5.5 14.5t10.5 16.5q3 2 6 3t1 -4q0 -3 -9 -16t-9 -25q0 -13 13.5 -18.5t31.5 -5.5q17 0 33.5 3.5t25.5 6.5q44 19 68 38t24 34q0 11 -14.5 16.5t-37.5 5.5q-15 0 -32 -2.5t-34 -7.5h-1q-5 0 -5 10.5t-1 13.5q21 0 49 8.5
t53 23.5q15 10 27 22t12 21t-18 9t-42 -6.5t-43.5 -18t-24.5 -27.5q2 -4 0 -7t-6 1t-7.5 10.5t-0.5 13.5q6 14 26.5 23.5t46.5 14.5t46 5h9t8 -1q22 -4 22 -20q0 -12 -11.5 -27t-29 -27.5t-36.5 -18.5q19 -1 39.5 -9.5t20.5 -28.5q0 -7 -4 -17t-14 -22q-16 -19 -38.5 -35.5
t-39.5 -23.5q-35 -16 -70 -16z" />
    <glyph glyph-name="acute" unicode="&#xb4;" horiz-adv-x="125" 
d="M22 320q-3 0 -3 4.5t2 6.5q17 16 53 40.5t76 40.5q6 2 10 2q10 0 17.5 -7.5t7.5 -12.5q0 -8 -19 -13q-17 -4 -44.5 -13.5t-54 -21.5t-43.5 -25q-1 -1 -1.5 -1h-0.5z" />
    <glyph glyph-name="uni00B5" unicode="&#xb5;" horiz-adv-x="305" 
d="M-183 -160q-22 0 -41 7.5t-26 31.5l9 2q3 -14 13.5 -19.5t23.5 -5.5q32 0 61.5 19.5t54.5 47.5t41 51q29 42 53 88.5t46 92.5q11 23 22.5 44.5t21.5 43.5q2 4 4 8.5t2 9.5t-3 6q18 8 34 8q10 0 25 -4.5t15 -17.5q0 -4 -1.5 -7.5t-3.5 -6.5q-30 -42 -57 -84t-47 -90
q-3 -6 -5.5 -12.5t-2.5 -14.5q0 -17 17 -17q15 0 35 21t41.5 54t41.5 68t36.5 64t25.5 42q2 2 6 2q5 0 19 -3t27 -7t13 -8v-1q-8 -12 -18 -23.5t-18 -22.5q-24 -33 -46 -68.5t-38 -73.5q-7 -14 -7 -26q0 -18 18 -18q15 0 35 15t41.5 37t40.5 44.5t31.5 37.5t15.5 15t3 -4
q0 -1 -8.5 -11.5t-17.5 -20.5t-12 -13q-18 -21 -43.5 -50t-55.5 -51.5t-60 -22.5q-41 0 -41 42q0 17 6 32q-9 -14 -23 -31.5t-31 -30.5t-36 -13q-20 0 -33 16q-17 -49 -43 -88t-65.5 -61.5t-95.5 -22.5z" />
    <glyph glyph-name="paragraph" unicode="&#xb6;" horiz-adv-x="315" 
d="M45 -123q-8 0 -11 16t-3 21q0 27 10.5 63.5t26 75t32 74.5t28.5 62q20 42 43.5 83.5t45.5 82.5q29 53 59.5 105.5t61.5 103.5q-3 -2 -7.5 -4t-8.5 -4q-29 -6 -60 -9t-60 -7q-19 -3 -51 -8t-63.5 -15t-53.5 -27.5t-22 -44.5q0 -21 13 -45t32.5 -47.5t39.5 -43.5t35 -34
q3 -2 5 -4t2 -7q0 -13 -15 -26t-27 -13q-5 0 -8 3q-24 21 -54 53.5t-52 69.5t-22 71t22.5 58t59.5 40.5t81.5 28t89.5 19t83 13t61 11.5q10 -4 25.5 -10.5t15.5 -19.5q0 -3 -1 -5.5t-3 -5.5q-17 -28 -35.5 -55t-36.5 -54q-46 -70 -90 -140t-83 -143q-11 -20 -28 -53.5
t-33.5 -71.5t-28 -71.5t-11.5 -53.5q0 -14 4.5 -17t4.5 -6q0 -5 -4.5 -7t-8.5 -2zM102 -99q-6 5 -8 13t-2 15q0 29 16 70.5t39 87t46.5 86.5t38.5 68q23 40 47.5 79t48.5 77l54 84t55 82q1 1 6 8t10.5 13.5t6.5 6.5q2 0 11.5 -4.5t18 -11.5t8.5 -15q0 -5 -5 -12
q-19 -27 -40 -54t-41 -54q-42 -56 -82.5 -114t-78.5 -117q-10 -16 -27.5 -44.5t-37 -62.5t-37 -68t-28.5 -62.5t-11 -45.5q0 -10 3 -12t3 -5q0 -4 -4.5 -6t-7.5 -2h-2z" />
    <glyph glyph-name="periodcentered" unicode="&#xb7;" horiz-adv-x="273" 
d="M136 230q-34 0 -34 32v23q0 14 9 23t25 9h22q16 0 25 -9t9 -23v-23q0 -32 -34 -32h-22z" />
    <glyph glyph-name="cedilla" unicode="&#xb8;" horiz-adv-x="158" 
d="M40 -119q-19 0 -26.5 5.5t-7.5 12.5q14 -3 27 -3q17 0 28 5t11 22q0 11 -5.5 21.5t-5.5 29.5q0 15 12.5 24t34.5 9q2 0 5 -1.5t3 -5.5q-13 -1 -19 -8.5t-6 -17.5q0 -16 7.5 -25t7.5 -30q0 -16 -19 -27t-47 -11z" />
    <glyph glyph-name="uni00B9" unicode="&#xb9;" horiz-adv-x="328" 
d="M54 389q-4 5 -4 15q0 8 2 16t4 14q9 27 26.5 56t37 55.5t33.5 44.5q-2 -1 -14 -11t-23.5 -20t-13.5 -11q-3 -3 -6 -3t-3 4t5 9q16 13 36 33t37 35.5t21 15.5q2 0 10 -2.5t14 -6t2 -7.5q-13 -12 -32.5 -35.5t-41 -52t-40.5 -57t-30.5 -51t-11.5 -33.5q0 -18 -8 -8z" />
    <glyph glyph-name="ordmasculine" unicode="&#xba;" horiz-adv-x="333" 
d="M108 273q-23 0 -42.5 14t-19.5 39q0 23 18 55.5t45.5 63.5t57.5 52t54 21q5 0 12.5 -2t11.5 -8q15 1 21.5 -9t6.5 -24q0 -21 -12 -47.5t-28.5 -51t-30.5 -40.5l5 -1q34 -1 59 20.5t44 45.5q1 0 1.5 0.5l0.5 0.5q2 0 2 -4q0 -1 -1 -2q-16 -24 -46 -46.5t-61 -22.5
q-7 0 -11 1q-16 -16 -39.5 -35.5t-47.5 -19.5zM112 285q21 0 40 17.5t32 31.5q-5 2 -12 8t-7 12q0 11 15 21t33 18t26 12q8 12 14 29t6 32q0 21 -17 21q-9 0 -18 -4t-17 -8q-40 -21 -72.5 -58t-45.5 -82q-1 -4 -2 -9t-1 -10q0 -13 6.5 -22t19.5 -9z" />
    <glyph glyph-name="guillemotright" unicode="&#xbb;" horiz-adv-x="401" 
d="M201 46q-6 0 -6 5q0 4 13 20.5t33 38.5t41 44.5t37.5 39.5t21.5 23q-5 11 -15.5 31t-22 42.5t-19.5 42t-8 28.5q0 2 3.5 12.5t5.5 10.5t3 -2.5t2 -3.5q19 -40 46 -74t58 -64q1 -1 1 -4v-2q-2 -5 -15.5 -20t-33 -35t-39.5 -39.5t-36.5 -35t-22.5 -21.5q-8 -7 -16.5 -16
t-16.5 -16q-7 -5 -14 -5zM61 46q-6 0 -6 5q0 4 13 20.5t33 38.5t41 44.5t37.5 39.5t21.5 23q-5 11 -15.5 31t-22 42.5t-19.5 42t-8 28.5q0 2 3.5 12.5t5.5 10.5t3 -2.5t2 -3.5q19 -40 46 -74t58 -64q1 -1 1 -4v-2q-2 -5 -15.5 -20t-33 -35t-39.5 -39.5t-36.5 -35
t-22.5 -21.5q-8 -7 -16.5 -16t-16.5 -16q-7 -5 -14 -5z" />
    <glyph glyph-name="onequarter" unicode="&#xbc;" horiz-adv-x="722" 
d="M23 389q-4 5 -4 15q0 8 2 16t4 14q9 27 26.5 56t37 55.5t33.5 44.5q-3 -1 -15 -11t-23 -20t-13 -11q-3 -3 -6 -3q-4 0 -4 3q0 4 6 10q15 13 35.5 33t37.5 35.5t21 15.5q2 0 10 -2.5t13.5 -6t1.5 -7.5q-13 -12 -32.5 -35.5t-41 -52t-40.5 -57t-30.5 -51t-11.5 -33.5
q0 -10 -2.5 -11t-4.5 3zM53 -38q-4 1 -5 6.5t-1 12.5q0 26 14 58.5t32 64.5t30 53q16 29 32 57.5t32 56.5q4 7 17.5 30t32.5 54.5t39.5 65.5t39 63t31 47.5t15.5 17.5q4 0 12 -5t8 -15q0 -5 -2 -9.5t-4 -6.5q-19 -31 -38.5 -60t-39.5 -59q-43 -64 -85 -130.5t-83 -134.5
l-24 -40t-28 -51t-16 -45q-1 -3 -1 -8t1.5 -7.5t1.5 -4.5q0 -4 -4.5 -8t-6.5 -3zM432 -42q-4 5 -5 13.5t0 15.5q5 23 19.5 50t27.5 49q-9 2 -29.5 -1.5t-43.5 -8.5t-39 -9l-16 -4q-5 0 -6 9t-1 10q1 10 19 26.5t44.5 35.5t52.5 36q20 13 37 26.5t40 25.5q1 0 1 0.5t1 0.5
q5 0 8.5 -11.5t0.5 -13.5q-49 -28 -91 -58t-89 -61q11 3 33 7t47 6.5t44 1.5q3 4 14.5 21t26 37.5t25 38t11.5 21.5q0 5 -4.5 7t0.5 4q6 3 12 3q8 0 15 -5.5t6 -14.5q0 -5 -12 -23t-27.5 -39t-27.5 -36.5t-13 -17.5q11 -1 20.5 -7.5t9.5 -15.5t-13 -18q-3 -3 -6 -3
q-2 0 -2 2q0 3 5 8q4 5 4 10q0 8 -9.5 10.5t-15.5 1.5q-5 -6 -16.5 -24t-24 -38.5t-20.5 -36.5q-6 -12 -6 -20q0 -2 0.5 -4t1.5 -4v-2q0 -2 -3 -2.5t-6 1.5z" />
    <glyph glyph-name="onehalf" unicode="&#xbd;" horiz-adv-x="639" 
d="M-19 389q-4 5 -4 15q0 8 2 16t4 14q9 27 26.5 56t37 55.5t33.5 44.5q-2 -1 -14 -11t-23.5 -20t-13.5 -11q-3 -3 -6 -3t-3 4t5 9q15 13 35.5 33t37.5 35.5t21 15.5q2 0 10 -2.5t14 -6t1 -7.5q-12 -12 -31.5 -35.5t-41 -52t-40.5 -57t-31 -51t-12 -33.5v-3q0 -8 -2.5 -8.5
t-4.5 3.5zM15 -38q-4 1 -5 6.5t-1 12.5v6.5t1 5.5q5 26 18.5 56.5t29.5 59t27 48.5l64 114q4 7 17.5 30t32.5 54.5t39.5 65.5t39 63t31 47.5t15.5 17.5q4 0 12 -5t8 -14q0 -11 -6 -17q-19 -31 -38.5 -60t-39.5 -59q-43 -64 -85 -130.5t-83 -134.5l-24 -40t-28 -51t-16 -45
q-1 -3 -1 -8t1.5 -7.5t1.5 -4.5q0 -4 -4.5 -8t-6.5 -3zM428 -9q-3 0 0 9q3 5 -6 6.5t-24 1.5q-10 0 -21.5 -0.5t-23.5 -1.5q-30 -2 -56 -5t-30 -3t-4 7q0 4 1 8.5t1 5.5q47 25 100.5 58.5t99.5 73.5q16 14 30.5 29t27.5 30q7 8 7 15q0 10 -16 10q-14 0 -34.5 -5t-41.5 -14
t-36.5 -21t-18.5 -25q3 -4 1.5 -7.5t-6.5 0.5q-4 3 -8 8.5t-4 11.5q0 14 18 25.5t44.5 19.5t52 12.5t39.5 4.5t23 -5t9 -17q0 -6 -3 -14q-4 -15 -24 -37t-48 -43q-31 -24 -65 -45t-60 -35t-34 -17q16 4 38 6q10 1 20 1.5t20 0.5q16 0 28.5 -2.5t16.5 -9.5q2 -2 2 -9
q0 -4 -1 -9t-4 -9q-6 -10 -10 -10z" />
    <glyph glyph-name="threequarters" unicode="&#xbe;" horiz-adv-x="782" 
d="M74 387q-22 0 -38 9.5t-16 34.5q0 13 4 26q1 4 5.5 14.5t11.5 16.5q2 2 5 3t2 -4q-1 -3 -10 -16t-9 -24q0 -14 13.5 -19t31.5 -5q17 0 33.5 3t25.5 6q45 19 68.5 38t23.5 34q0 11 -14.5 16.5t-37.5 5.5q-15 0 -32 -2.5t-34 -7.5h-1q-5 0 -5 10.5t-1 13.5q22 0 50 8.5
t52 23.5q15 10 27.5 22t12.5 21t-19 9q-18 0 -42 -6.5t-43.5 -18t-24.5 -27.5q2 -4 0 -7t-5 1q-4 4 -8 10.5t-1 13.5q6 14 27 23.5t47 14.5t46 5q21 0 29.5 -6t8.5 -16q0 -12 -11.5 -26.5t-29 -27t-36.5 -18.5q19 -1 39.5 -9.5t20.5 -28.5q0 -7 -4 -17t-14 -22
q-16 -19 -38.5 -35.5t-39.5 -23.5q-35 -16 -70 -16zM138 -38q-5 0 -6 12t0 19q5 26 19 56.5t30 59t26 48.5l65 114q4 7 17.5 30t32.5 54.5t39.5 65.5t39 63t31 47.5t14.5 17.5q5 0 13 -5t8 -15q0 -5 -2 -9.5t-4 -6.5q-19 -31 -39 -60t-40 -59q-42 -64 -84.5 -130.5
t-83.5 -134.5q-8 -15 -23 -40t-28 -51t-17 -45q-1 -3 -1 -8q0 -6 2 -8t2 -5q-1 -4 -5 -7t-6 -3zM489 -42q-4 5 -5 13.5t0 15.5q5 23 20 50t28 49q-9 2 -30 -1.5t-44 -8.5t-39 -9l-16 -4q-5 0 -6 9t-1 10q2 10 20 26.5t44.5 35.5t52.5 36q20 13 36.5 26.5t39.5 25.5
q1 0 1.5 0.5l0.5 0.5q6 0 9.5 -11.5t-0.5 -13.5q-48 -28 -90.5 -58t-88.5 -61q11 3 32.5 7t46.5 6.5t44 1.5q3 4 14.5 21t26 37.5t25 38t11.5 21.5q0 5 -4 7t0 4q6 3 12 3q8 0 15 -5.5t6 -14.5q0 -5 -12 -23t-27.5 -39t-27.5 -36.5t-13 -17.5q11 -1 20.5 -7.5t9.5 -15.5
t-13 -18q-3 -3 -6 -3q-2 0 -2 2q0 3 5 8q4 5 4 10q0 8 -9.5 10.5t-14.5 1.5q-5 -6 -17 -24t-24 -38.5t-20 -36.5q-4 -6 -5 -10.5t-1 -9.5q0 -6 1 -8v-2q0 -2 -3 -2.5t-6 1.5z" />
    <glyph glyph-name="questiondown" unicode="&#xbf;" horiz-adv-x="311" 
d="M215 183q7 0 9 -8t2 -13q0 -24 -21.5 -54t-52.5 -60.5t-61 -56.5t-47 -41t-36 -38t-19 -47q0 -26 21.5 -37t43.5 -11q31 0 50.5 12t30.5 24t16 12q3 0 3 -5q0 -4 -1.5 -8t-3.5 -7q-22 -35 -59 -62t-80 -27q-30 0 -53 17t-23 49t19.5 63t50.5 61t66 58t66 54.5t50.5 51
t19.5 47.5q0 3 -1 6.5t-1 6.5q0 5 3 9t8 4zM260 328q6 0 18.5 -6t22.5 -14t10 -16q0 -9 -14 -20t-30 -19.5t-24 -8.5q-4 0 -8 2.5t-4 6.5q0 2 2 4q12 15 16 32q1 5 1 14t2 17t8 8z" />
    <glyph glyph-name="Agrave" unicode="&#xc0;" horiz-adv-x="525" 
d="M10 -24q-4 0 -4 4q0 8 18.5 34t47 60t58 68t53 59.5t30.5 33.5q-24 -3 -53.5 -10t-56 -20t-40.5 -35q-8 -11 -8 -25t7.5 -20t7.5 -11q0 -2 -6 -2q-19 0 -30.5 19.5t-11.5 36.5q0 11 3 20q11 34 38 54.5t63 31t72.5 13.5t66.5 3q49 50 101 99t110 88q21 14 46 23t51 9
q28 0 49 -14t21 -45q0 -23 -10.5 -45.5t-22.5 -41.5q-7 -11 -23.5 -39t-38.5 -65t-45 -77.5t-42.5 -77t-31.5 -63t-12 -36.5q0 -3 1 -5q-12 -6 -28 -6q-19 0 -23.5 11t-4.5 28q0 15 9.5 38.5t23 49t27 48.5t22.5 38q-7 10 -24.5 16.5t-40 10.5t-42.5 6t-31 2q-16 0 -32 -1
t-32 -3q-38 -40 -75 -82t-72 -85q-17 -20 -34 -42t-35 -42l-7 -7t-9 -4zM452 220q7 12 21.5 36.5t32 54t33.5 59t27.5 53t13.5 33.5q5 20 -8 25t-23 5q-16 0 -35 -8t-32 -17q-52 -37 -100 -81.5t-92 -90.5q16 -1 41.5 -4.5t52 -11t46 -20.5t22.5 -33zM657 560
q-17 11 -45.5 21.5t-56.5 18t-46 9.5q-10 2 -14.5 5.5t-5.5 6.5q0 5 7 12t17 8l10 -1q41 -13 79 -34.5t57 -35.5q2 -1 2.5 -6.5t-4.5 -3.5z" />
    <glyph glyph-name="Aacute" unicode="&#xc1;" horiz-adv-x="525" 
d="M10 -24q-4 0 -4 4q0 8 18.5 34t47 60t58 68t53 59.5t30.5 33.5q-24 -3 -53.5 -10t-56 -20t-40.5 -35q-8 -11 -8 -25t7.5 -20t7.5 -11q0 -2 -6 -2q-19 0 -30.5 19.5t-11.5 36.5q0 11 3 20q11 34 38 54.5t63 31t72.5 13.5t66.5 3q49 50 101 99t110 88q21 14 46 23t51 9
q28 0 49 -14t21 -45q0 -23 -10.5 -45.5t-22.5 -41.5q-7 -11 -23.5 -39t-38.5 -65t-45 -77.5t-42.5 -77t-31.5 -63t-12 -36.5q0 -3 1 -5q-12 -6 -28 -6q-19 0 -23.5 11t-4.5 28q0 15 9.5 38.5t23 49t27 48.5t22.5 38q-7 10 -24.5 16.5t-40 10.5t-42.5 6t-31 2q-16 0 -32 -1
t-32 -3q-38 -40 -75 -82t-72 -85q-17 -20 -34 -42t-35 -42l-7 -7t-9 -4zM452 220q7 12 21.5 36.5t32 54t33.5 59t27.5 53t13.5 33.5q5 20 -8 25t-23 5q-16 0 -35 -8t-32 -17q-52 -37 -100 -81.5t-92 -90.5q16 -1 41.5 -4.5t52 -11t46 -20.5t22.5 -33zM565 559q-3 0 -2.5 5
t2.5 6q19 14 57 35.5t79 34.5l10 1q10 -1 17 -8t7 -12q-1 -3 -5 -6.5t-15 -5.5q-18 -2 -46 -9.5t-56 -18t-46 -21.5q-1 0 -1 -0.5t-1 -0.5z" />
    <glyph glyph-name="Acircumflex" unicode="&#xc2;" horiz-adv-x="525" 
d="M10 -24q-4 0 -4 4q0 8 18.5 34t47 60t58 68t53 59.5t30.5 33.5q-24 -3 -53.5 -10t-56 -20t-40.5 -35q-8 -11 -8 -25t7.5 -20t7.5 -11q0 -2 -6 -2q-19 0 -30.5 19.5t-11.5 36.5q0 11 3 20q11 34 38 54.5t63 31t72.5 13.5t66.5 3q49 50 101 99t110 88q21 14 46 23t51 9
q28 0 49 -14t21 -45q0 -23 -10.5 -45.5t-22.5 -41.5q-7 -11 -23.5 -39t-38.5 -65t-45 -77.5t-42.5 -77t-31.5 -63t-12 -36.5q0 -3 1 -5q-12 -6 -28 -6q-19 0 -23.5 11t-4.5 28q0 15 9.5 38.5t23 49t27 48.5t22.5 38q-7 10 -24.5 16.5t-40 10.5t-42.5 6t-31 2q-16 0 -32 -1
t-32 -3q-38 -40 -75 -82t-72 -85q-17 -20 -34 -42t-35 -42l-7 -7t-9 -4zM452 220q7 12 21.5 36.5t32 54t33.5 59t27.5 53t13.5 33.5q5 20 -8 25t-23 5q-16 0 -35 -8t-32 -17q-52 -37 -100 -81.5t-92 -90.5q16 -1 41.5 -4.5t52 -11t46 -20.5t22.5 -33zM488 558q-5 0 -5 4
q0 2 1.5 5t8.5 6q5 3 22.5 12.5t38 21t38 21t22.5 12.5q5 4 11 5q2 0 3.5 0.5t2.5 0.5q7 0 11 -3.5t8 -7.5q11 -12 22.5 -25.5t23.5 -27.5q4 -4 9 -10.5t5 -7.5q-2 -2 -7 -2q-4 0 -9 0.5t-10 3.5q-12 4 -34 17t-37 26q-25 -11 -53 -22.5t-47 -19.5q-8 -3 -15 -6t-10 -3z" />
    <glyph glyph-name="Atilde" unicode="&#xc3;" horiz-adv-x="525" 
d="M10 -24q-4 0 -4 4q0 8 18.5 34t47 60t58 68t53 59.5t30.5 33.5q-24 -3 -53.5 -10t-56 -20t-40.5 -35q-8 -11 -8 -25t7.5 -20t7.5 -11q0 -2 -6 -2q-19 0 -30.5 19.5t-11.5 36.5q0 11 3 20q11 34 38 54.5t63 31t72.5 13.5t66.5 3q49 50 101 99t110 88q21 14 46 23t51 9
q28 0 49 -14t21 -45q0 -23 -10.5 -45.5t-22.5 -41.5q-7 -11 -23.5 -39t-38.5 -65t-45 -77.5t-42.5 -77t-31.5 -63t-12 -36.5q0 -3 1 -5q-12 -6 -28 -6q-19 0 -23.5 11t-4.5 28q0 15 9.5 38.5t23 49t27 48.5t22.5 38q-7 10 -24.5 16.5t-40 10.5t-42.5 6t-31 2q-16 0 -32 -1
t-32 -3q-38 -40 -75 -82t-72 -85q-17 -20 -34 -42t-35 -42l-7 -7t-9 -4zM452 220q7 12 21.5 36.5t32 54t33.5 59t27.5 53t13.5 33.5q5 20 -8 25t-23 5q-16 0 -35 -8t-32 -17q-52 -37 -100 -81.5t-92 -90.5q16 -1 41.5 -4.5t52 -11t46 -20.5t22.5 -33zM653 560q-21 0 -34 8.5
t-23.5 16.5t-27.5 8t-30 -12.5t-21 -19.5q-8 -2 -8 2q3 14 16 28.5t30.5 24.5t32.5 10q20 0 35 -6.5t29.5 -13t30.5 -6.5q18 0 37 25q8 0 8 -6q0 -15 -14 -28.5t-31.5 -22t-29.5 -8.5z" />
    <glyph glyph-name="Adieresis" unicode="&#xc4;" horiz-adv-x="525" 
d="M10 -24q-4 0 -4 4q0 8 18.5 34t47 60t58 68t53 59.5t30.5 33.5q-24 -3 -53.5 -10t-56 -20t-40.5 -35q-8 -11 -8 -25t7.5 -20t7.5 -11q0 -2 -6 -2q-19 0 -30.5 19.5t-11.5 36.5q0 11 3 20q11 34 38 54.5t63 31t72.5 13.5t66.5 3q49 50 101 99t110 88q21 14 46 23t51 9
q28 0 49 -14t21 -45q0 -23 -10.5 -45.5t-22.5 -41.5q-7 -11 -23.5 -39t-38.5 -65t-45 -77.5t-42.5 -77t-31.5 -63t-12 -36.5q0 -3 1 -5q-12 -6 -28 -6q-19 0 -23.5 11t-4.5 28q0 15 9.5 38.5t23 49t27 48.5t22.5 38q-7 10 -24.5 16.5t-40 10.5t-42.5 6t-31 2q-16 0 -32 -1
t-32 -3q-38 -40 -75 -82t-72 -85q-17 -20 -34 -42t-35 -42l-7 -7t-9 -4zM452 220q7 12 21.5 36.5t32 54t33.5 59t27.5 53t13.5 33.5q5 20 -8 25t-23 5q-16 0 -35 -8t-32 -17q-52 -37 -100 -81.5t-92 -90.5q16 -1 41.5 -4.5t52 -11t46 -20.5t22.5 -33zM673 558q-6 0 -16.5 5
t-19.5 12.5t-9 13.5q0 8 12 17.5t26.5 16.5t20.5 7q10 0 10 -7q0 -3 -1 -4q-7 -7 -9 -13l-5 -15q-2 -6 -1.5 -19.5t-7.5 -13.5zM563 558q-6 0 -16.5 5t-19.5 12.5t-9 13.5q0 8 12 17.5t26.5 16.5t20.5 7q10 0 10 -7q0 -3 -1 -4q-7 -7 -9 -13l-5 -15q-2 -6 -1.5 -19.5
t-7.5 -13.5z" />
    <glyph glyph-name="Aring" unicode="&#xc5;" horiz-adv-x="525" 
d="M10 -24q-4 0 -4 4q0 8 18.5 34t47 60t58 68t53 59.5t30.5 33.5q-24 -3 -53.5 -10t-56 -20t-40.5 -35q-8 -11 -8 -25t7.5 -20t7.5 -11q0 -2 -6 -2q-19 0 -30.5 19.5t-11.5 36.5q0 11 3 20q11 34 38 54.5t63 31t72.5 13.5t66.5 3q49 50 101 99t110 88q21 14 46 23t51 9
q28 0 49 -14t21 -45q0 -23 -10.5 -45.5t-22.5 -41.5q-7 -11 -23.5 -39t-38.5 -65t-45 -77.5t-42.5 -77t-31.5 -63t-12 -36.5q0 -3 1 -5q-12 -6 -28 -6q-19 0 -23.5 11t-4.5 28q0 15 9.5 38.5t23 49t27 48.5t22.5 38q-7 10 -24.5 16.5t-40 10.5t-42.5 6t-31 2q-16 0 -32 -1
t-32 -3q-38 -40 -75 -82t-72 -85q-17 -20 -34 -42t-35 -42l-7 -7t-9 -4zM452 220q7 12 21.5 36.5t32 54t33.5 59t27.5 53t13.5 33.5q5 20 -8 25t-23 5q-16 0 -35 -8t-32 -17q-52 -37 -100 -81.5t-92 -90.5q16 -1 41.5 -4.5t52 -11t46 -20.5t22.5 -33zM622 558
q-19 0 -30.5 11.5t-11.5 28.5q0 27 24.5 48.5t52.5 21.5q20 0 31.5 -10.5t11.5 -27.5q0 -19 -12 -35.5t-29.5 -26.5t-36.5 -10zM626 575q25 0 40 34q4 9 4 20q0 20 -15 20q-14 0 -29.5 -16.5t-15.5 -36.5q0 -21 16 -21z" />
    <glyph glyph-name="AE" unicode="&#xc6;" horiz-adv-x="707" 
d="M-35 -76q-6 8 -14 22t-8 24q0 11 15.5 35t39 54.5t49 61t46 54t28.5 32.5q-25 -3 -51 -4.5t-51 -5.5l26 39q27 3 53.5 3.5t52.5 0.5q23 26 55 60.5t69.5 71t77.5 67.5t80 50.5t77 19.5q11 0 23 -4t20 -13q4 5 8 10.5t11 5.5q13 0 27 -9t25 -15q56 0 112.5 -0.5
t112.5 -0.5q4 0 4 -2q0 -7 -12 -17.5t-25.5 -18.5t-20.5 -8q-26 0 -53 3t-53 3q-20 0 -41.5 -1.5t-41.5 -7.5q-30 -9 -53.5 -32t-41.5 -51.5t-32 -54.5l-7 -13q65 0 130 0.5t129 0.5q3 0 3 -2q0 -3 -9.5 -11.5t-12.5 -10.5q-37 0 -73.5 -2.5t-72.5 -5.5q-22 -2 -44.5 -4
t-44.5 -5q-9 -1 -21 -5.5t-18 -12.5q-6 -7 -10.5 -17t-9.5 -18l-45 -79q-6 -11 -9 -26t-3 -28q0 -36 26 -48t56 -12q39 0 85 10.5t91.5 26.5t81.5 30q-6 -15 -17 -32.5t-26 -24.5q-7 -3 -15.5 -4.5t-15.5 -3.5q-50 -10 -102 -16t-102 -6h-4q-22 0 -46 3.5t-42 17.5
q-5 -1 -10.5 -2.5t-11.5 -1.5q-17 0 -26 11t-9 28q0 20 12 47.5t27.5 54.5t25.5 45q-20 10 -51.5 16.5t-63 10t-54.5 3.5q-7 0 -13.5 -0.5t-13.5 -0.5q-12 -14 -33.5 -41.5t-46 -62t-47 -69.5t-37 -64.5t-14.5 -47.5zM345 189q24 42 48.5 83.5t47.5 83.5q11 20 21.5 40
t19.5 40q3 8 5.5 16t2.5 16t-3.5 13.5t-12.5 5.5q-22 0 -54.5 -19.5t-69 -50.5t-72 -65t-63.5 -64.5t-44 -47.5q27 -1 59 -7t63 -16.5t52 -27.5z" />
    <glyph glyph-name="Ccedilla" unicode="&#xc7;" horiz-adv-x="579" 
d="M222 -36q-54 0 -100.5 20t-74.5 59.5t-28 97.5q0 61 29 116t77.5 100.5t108 79t121.5 51.5t117 18q25 0 51.5 -8t45 -26t18.5 -48q0 -34 -25.5 -64t-52.5 -49l-7.5 -5t-8.5 -3q-5 0 -5 6q0 8 11 22t22 34.5t11 47.5q0 40 -28 55t-63 15q-66 0 -129.5 -25.5t-116 -69.5
t-86.5 -101q-16 -28 -27.5 -60t-11.5 -65q0 -54 29 -84.5t73 -43t90 -12.5q78 0 142.5 19.5t123.5 72.5q2 2 4 2q3 0 3 -6q0 -4 -2 -5q-32 -43 -85.5 -74.5t-113 -49t-112.5 -17.5zM130 -151q-19 0 -26.5 5.5t-7.5 12.5q14 -3 27 -3q17 0 28 5t11 22q0 11 -5.5 21.5
t-5.5 29.5q0 15 12.5 24t34.5 9q2 0 5 -1.5t3 -5.5q-13 -1 -19 -8.5t-6 -17.5q0 -16 7.5 -25t7.5 -30q0 -16 -19 -27t-47 -11z" />
    <glyph glyph-name="Egrave" unicode="&#xc8;" horiz-adv-x="505" 
d="M157 -23q-14 0 -37 1t-46 6t-39 16.5t-16 32.5q0 17 15 49.5t39.5 73.5t54 85t58 84.5t52 72t35.5 47.5q-10 -2 -34.5 -7t-51.5 -13.5t-46 -20t-19 -26.5q0 -5 1 -7q2 -2 2 -4q0 -7 -8 -7q-7 0 -9.5 11.5t-2.5 16.5q0 23 18.5 41.5t43 32t42.5 19.5q27 10 56.5 15t57.5 9
q6 6 10.5 10t13.5 4q7 0 15 -2.5t12 -7.5q11 0 22.5 0.5t21.5 0.5q28 0 57 -3.5t49.5 -19t20.5 -51.5q0 -8 -3 -20.5t-9.5 -22t-16.5 -9.5q-4 0 -4 1q0 2 6 10t6 18q0 15 -15.5 24t-37.5 12.5t-42 4.5t-30 1q-34 0 -67 -3q-33 -43 -65 -86.5t-64 -86.5q58 0 115.5 -0.5
t115.5 -0.5q5 0 5 -4q0 -9 -9.5 -13.5t-16.5 -5.5q-13 -2 -26.5 -2.5t-27.5 -1.5q-25 -1 -56 -3t-61.5 -6t-53.5 -13q-14 -5 -32.5 -27t-36.5 -51.5t-30 -56.5t-12 -42q0 -22 16.5 -32.5t39 -13.5t38.5 -3q26 0 62 5t74.5 14t73 19.5t58.5 22.5q4 2 7 2q8 0 8 -10
q0 -19 -21 -31.5t-37 -17.5q-30 -9 -74.5 -15.5t-88.5 -10.5t-76 -4zM479 561q-17 11 -45.5 21.5t-56.5 18t-46 9.5q-10 2 -14.5 5.5t-5.5 6.5q0 5 7 12t17 8l10 -1q41 -13 79 -34.5t57 -35.5q2 -1 2.5 -6.5t-4.5 -3.5z" />
    <glyph glyph-name="Eacute" unicode="&#xc9;" horiz-adv-x="505" 
d="M157 -23q-14 0 -37 1t-46 6t-39 16.5t-16 32.5q0 17 15 49.5t39.5 73.5t54 85t58 84.5t52 72t35.5 47.5q-10 -2 -34.5 -7t-51.5 -13.5t-46 -20t-19 -26.5q0 -5 1 -7q2 -2 2 -4q0 -7 -8 -7q-7 0 -9.5 11.5t-2.5 16.5q0 23 18.5 41.5t43 32t42.5 19.5q27 10 56.5 15t57.5 9
q6 6 10.5 10t13.5 4q7 0 15 -2.5t12 -7.5q11 0 22.5 0.5t21.5 0.5q28 0 57 -3.5t49.5 -19t20.5 -51.5q0 -8 -3 -20.5t-9.5 -22t-16.5 -9.5q-4 0 -4 1q0 2 6 10t6 18q0 15 -15.5 24t-37.5 12.5t-42 4.5t-30 1q-34 0 -67 -3q-33 -43 -65 -86.5t-64 -86.5q58 0 115.5 -0.5
t115.5 -0.5q5 0 5 -4q0 -9 -9.5 -13.5t-16.5 -5.5q-13 -2 -26.5 -2.5t-27.5 -1.5q-25 -1 -56 -3t-61.5 -6t-53.5 -13q-14 -5 -32.5 -27t-36.5 -51.5t-30 -56.5t-12 -42q0 -22 16.5 -32.5t39 -13.5t38.5 -3q26 0 62 5t74.5 14t73 19.5t58.5 22.5q4 2 7 2q8 0 8 -10
q0 -19 -21 -31.5t-37 -17.5q-30 -9 -74.5 -15.5t-88.5 -10.5t-76 -4zM387 560q-3 0 -2.5 5t2.5 6q19 14 57 35.5t79 34.5l10 1q10 -1 17 -8t7 -12q-1 -3 -5 -6.5t-15 -5.5q-18 -2 -46 -9.5t-56 -18t-46 -21.5q-1 0 -1 -0.5t-1 -0.5z" />
    <glyph glyph-name="Ecircumflex" unicode="&#xca;" horiz-adv-x="505" 
d="M157 -23q-14 0 -37 1t-46 6t-39 16.5t-16 32.5q0 17 15 49.5t39.5 73.5t54 85t58 84.5t52 72t35.5 47.5q-10 -2 -34.5 -7t-51.5 -13.5t-46 -20t-19 -26.5q0 -5 1 -7q2 -2 2 -4q0 -7 -8 -7q-7 0 -9.5 11.5t-2.5 16.5q0 23 18.5 41.5t43 32t42.5 19.5q27 10 56.5 15t57.5 9
q6 6 10.5 10t13.5 4q7 0 15 -2.5t12 -7.5q11 0 22.5 0.5t21.5 0.5q28 0 57 -3.5t49.5 -19t20.5 -51.5q0 -8 -3 -20.5t-9.5 -22t-16.5 -9.5q-4 0 -4 1q0 2 6 10t6 18q0 15 -15.5 24t-37.5 12.5t-42 4.5t-30 1q-34 0 -67 -3q-33 -43 -65 -86.5t-64 -86.5q58 0 115.5 -0.5
t115.5 -0.5q5 0 5 -4q0 -9 -9.5 -13.5t-16.5 -5.5q-13 -2 -26.5 -2.5t-27.5 -1.5q-25 -1 -56 -3t-61.5 -6t-53.5 -13q-14 -5 -32.5 -27t-36.5 -51.5t-30 -56.5t-12 -42q0 -22 16.5 -32.5t39 -13.5t38.5 -3q26 0 62 5t74.5 14t73 19.5t58.5 22.5q4 2 7 2q8 0 8 -10
q0 -19 -21 -31.5t-37 -17.5q-30 -9 -74.5 -15.5t-88.5 -10.5t-76 -4zM310 559q-5 0 -5 4q0 2 1.5 5t8.5 6q5 3 22.5 12.5t38 21t38 21t22.5 12.5q5 4 11 5q2 0 3.5 0.5t2.5 0.5q7 0 11 -3.5t8 -7.5q11 -12 22.5 -25.5t23.5 -27.5q4 -4 9 -10.5t5 -7.5q-2 -2 -7 -2
q-4 0 -9 0.5t-10 3.5q-12 4 -34 17t-37 26q-25 -11 -53 -22.5t-47 -19.5q-8 -3 -15 -6t-10 -3z" />
    <glyph glyph-name="Edieresis" unicode="&#xcb;" horiz-adv-x="505" 
d="M157 -23q-14 0 -37 1t-46 6t-39 16.5t-16 32.5q0 17 15 49.5t39.5 73.5t54 85t58 84.5t52 72t35.5 47.5q-10 -2 -34.5 -7t-51.5 -13.5t-46 -20t-19 -26.5q0 -5 1 -7q2 -2 2 -4q0 -7 -8 -7q-7 0 -9.5 11.5t-2.5 16.5q0 23 18.5 41.5t43 32t42.5 19.5q27 10 56.5 15t57.5 9
q6 6 10.5 10t13.5 4q7 0 15 -2.5t12 -7.5q11 0 22.5 0.5t21.5 0.5q28 0 57 -3.5t49.5 -19t20.5 -51.5q0 -8 -3 -20.5t-9.5 -22t-16.5 -9.5q-4 0 -4 1q0 2 6 10t6 18q0 15 -15.5 24t-37.5 12.5t-42 4.5t-30 1q-34 0 -67 -3q-33 -43 -65 -86.5t-64 -86.5q58 0 115.5 -0.5
t115.5 -0.5q5 0 5 -4q0 -9 -9.5 -13.5t-16.5 -5.5q-13 -2 -26.5 -2.5t-27.5 -1.5q-25 -1 -56 -3t-61.5 -6t-53.5 -13q-14 -5 -32.5 -27t-36.5 -51.5t-30 -56.5t-12 -42q0 -22 16.5 -32.5t39 -13.5t38.5 -3q26 0 62 5t74.5 14t73 19.5t58.5 22.5q4 2 7 2q8 0 8 -10
q0 -19 -21 -31.5t-37 -17.5q-30 -9 -74.5 -15.5t-88.5 -10.5t-76 -4zM495 559q-6 0 -16.5 5t-19.5 12.5t-9 13.5q0 8 12 17.5t26.5 16.5t20.5 7q10 0 10 -7q0 -3 -1 -4q-7 -7 -9 -13l-5 -15q-2 -6 -1.5 -19.5t-7.5 -13.5zM385 559q-6 0 -16.5 5t-19.5 12.5t-9 13.5
q0 8 12 17.5t26.5 16.5t20.5 7q10 0 10 -7q0 -3 -1 -4q-7 -7 -9 -13l-5 -15q-2 -6 -1.5 -19.5t-7.5 -13.5z" />
    <glyph glyph-name="Igrave" unicode="&#xcc;" horiz-adv-x="434" 
d="M247 370q-16 0 -22 15.5t-6 28.5q0 37 33 51q35 17 82 24t85 7q14 0 34.5 -2t41.5 -8t35 -17.5t14 -30.5q0 -4 -1 -11t-7 -7q-5 0 -5 5q0 2 1 3.5t1 3.5q0 13 -17.5 18.5t-37.5 7t-29 1.5q-10 0 -34.5 -2t-54.5 -6.5t-58 -12.5t-46.5 -19t-18.5 -26q0 -9 6.5 -15t6.5 -7
l-1 -0.5t-2 -0.5zM-12 -73q-9 0 -16 17t-7 24q0 28 19.5 46.5t48.5 29t58.5 15.5t49.5 5q11 20 34 58.5t52 85.5t61.5 94.5t64 85.5t57.5 57q2 1 5.5 1h5.5q7 1 20 -1.5t13 -8.5v-2q0 -5 -6 -11q-53 -63 -104.5 -120t-97.5 -115t-85 -125q11 0 30.5 -3t40 -9.5t35 -17
t14.5 -25.5q0 -3 -1 -3q-1 1 -1 2q-5 9 -22 13t-35 5t-28 1q-29 0 -56 -3q-1 -3 -5 -7.5t-7 -4.5t-3 4t1 6q-12 -2 -35.5 -7t-48.5 -14t-42 -22t-17 -31q0 -9 4.5 -13.5t4.5 -5.5t-2 -1zM516 547q-17 11 -45.5 21.5t-56.5 18t-46 9.5q-10 2 -14.5 5.5t-5.5 6.5q0 5 7 12
t17 8l10 -1q41 -13 79 -34.5t57 -35.5q2 -1 2.5 -6.5t-4.5 -3.5z" />
    <glyph glyph-name="Iacute" unicode="&#xcd;" horiz-adv-x="434" 
d="M247 370q-16 0 -22 15.5t-6 28.5q0 37 33 51q35 17 82 24t85 7q14 0 34.5 -2t41.5 -8t35 -17.5t14 -30.5q0 -4 -1 -11t-7 -7q-5 0 -5 5q0 2 1 3.5t1 3.5q0 13 -17.5 18.5t-37.5 7t-29 1.5q-10 0 -34.5 -2t-54.5 -6.5t-58 -12.5t-46.5 -19t-18.5 -26q0 -9 6.5 -15t6.5 -7
l-1 -0.5t-2 -0.5zM-12 -73q-9 0 -16 17t-7 24q0 28 19.5 46.5t48.5 29t58.5 15.5t49.5 5q11 20 34 58.5t52 85.5t61.5 94.5t64 85.5t57.5 57q2 1 5.5 1h5.5q7 1 20 -1.5t13 -8.5v-2q0 -5 -6 -11q-53 -63 -104.5 -120t-97.5 -115t-85 -125q11 0 30.5 -3t40 -9.5t35 -17
t14.5 -25.5q0 -3 -1 -3q-1 1 -1 2q-5 9 -22 13t-35 5t-28 1q-29 0 -56 -3q-1 -3 -5 -7.5t-7 -4.5t-3 4t1 6q-12 -2 -35.5 -7t-48.5 -14t-42 -22t-17 -31q0 -9 4.5 -13.5t4.5 -5.5t-2 -1zM424 546q-3 0 -2.5 5t2.5 6q19 14 57 35.5t79 34.5l10 1q10 -1 17 -8t7 -12
q-1 -3 -5 -6.5t-15 -5.5q-18 -2 -46 -9.5t-56 -18t-46 -21.5q-1 0 -1 -0.5t-1 -0.5z" />
    <glyph glyph-name="Icircumflex" unicode="&#xce;" horiz-adv-x="434" 
d="M247 370q-16 0 -22 15.5t-6 28.5q0 37 33 51q35 17 82 24t85 7q14 0 34.5 -2t41.5 -8t35 -17.5t14 -30.5q0 -4 -1 -11t-7 -7q-5 0 -5 5q0 2 1 3.5t1 3.5q0 13 -17.5 18.5t-37.5 7t-29 1.5q-10 0 -34.5 -2t-54.5 -6.5t-58 -12.5t-46.5 -19t-18.5 -26q0 -9 6.5 -15t6.5 -7
l-1 -0.5t-2 -0.5zM-12 -73q-9 0 -16 17t-7 24q0 28 19.5 46.5t48.5 29t58.5 15.5t49.5 5q11 20 34 58.5t52 85.5t61.5 94.5t64 85.5t57.5 57q2 1 5.5 1h5.5q7 1 20 -1.5t13 -8.5v-2q0 -5 -6 -11q-53 -63 -104.5 -120t-97.5 -115t-85 -125q11 0 30.5 -3t40 -9.5t35 -17
t14.5 -25.5q0 -3 -1 -3q-1 1 -1 2q-5 9 -22 13t-35 5t-28 1q-29 0 -56 -3q-1 -3 -5 -7.5t-7 -4.5t-3 4t1 6q-12 -2 -35.5 -7t-48.5 -14t-42 -22t-17 -31q0 -9 4.5 -13.5t4.5 -5.5t-2 -1zM347 545q-5 0 -5 4q0 2 1.5 5t8.5 6q5 3 22.5 12.5t38 21t38 21t22.5 12.5q5 4 11 5
q2 0 3.5 0.5t2.5 0.5q7 0 11 -3.5t8 -7.5q11 -12 22.5 -25.5t23.5 -27.5q4 -4 9 -10.5t5 -7.5q-2 -2 -7 -2q-4 0 -9 0.5t-10 3.5q-12 4 -34 17t-37 26q-25 -11 -53 -22.5t-47 -19.5q-8 -3 -15 -6t-10 -3z" />
    <glyph glyph-name="Idieresis" unicode="&#xcf;" horiz-adv-x="434" 
d="M247 370q-16 0 -22 15.5t-6 28.5q0 37 33 51q35 17 82 24t85 7q14 0 34.5 -2t41.5 -8t35 -17.5t14 -30.5q0 -4 -1 -11t-7 -7q-5 0 -5 5q0 2 1 3.5t1 3.5q0 13 -17.5 18.5t-37.5 7t-29 1.5q-10 0 -34.5 -2t-54.5 -6.5t-58 -12.5t-46.5 -19t-18.5 -26q0 -9 6.5 -15t6.5 -7
l-1 -0.5t-2 -0.5zM-12 -73q-9 0 -16 17t-7 24q0 28 19.5 46.5t48.5 29t58.5 15.5t49.5 5q11 20 34 58.5t52 85.5t61.5 94.5t64 85.5t57.5 57q2 1 5.5 1h5.5q7 1 20 -1.5t13 -8.5v-2q0 -5 -6 -11q-53 -63 -104.5 -120t-97.5 -115t-85 -125q11 0 30.5 -3t40 -9.5t35 -17
t14.5 -25.5q0 -3 -1 -3q-1 1 -1 2q-5 9 -22 13t-35 5t-28 1q-29 0 -56 -3q-1 -3 -5 -7.5t-7 -4.5t-3 4t1 6q-12 -2 -35.5 -7t-48.5 -14t-42 -22t-17 -31q0 -9 4.5 -13.5t4.5 -5.5t-2 -1zM532 545q-6 0 -16.5 5t-19.5 12.5t-9 13.5q0 8 12 17.5t26.5 16.5t20.5 7q10 0 10 -7
q0 -3 -1 -4q-7 -7 -9 -13l-5 -15q-2 -6 -1.5 -19.5t-7.5 -13.5zM422 545q-6 0 -16.5 5t-19.5 12.5t-9 13.5q0 8 12 17.5t26.5 16.5t20.5 7q10 0 10 -7q0 -3 -1 -4q-7 -7 -9 -13l-5 -15q-2 -6 -1.5 -19.5t-7.5 -13.5z" />
    <glyph glyph-name="Eth" unicode="&#xd0;" horiz-adv-x="638" 
d="M178 -27q-18 0 -43 1t-49.5 6t-41 16t-16.5 30q0 12 6 25q14 29 37 69t50 83.5t53.5 84t49 70t35.5 41.5q4 3 9 4t9 1q5 0 16.5 -3t11.5 -11q0 -3 -4 -7q-39 -49 -77 -100.5t-76 -102.5q-21 -30 -43 -60t-42 -62q-7 -10 -7 -20q0 -13 13.5 -22.5t47.5 -9.5q46 0 107.5 12
t125.5 35t120.5 57t94 78t44.5 98q1 3 1 6v6q0 46 -28 75.5t-70.5 46t-87.5 23.5t-80 7q-58 0 -112.5 -14t-109.5 -32q-4 -1 -7.5 -2t-8.5 -1q-12 0 -18 8t-6 19q0 25 22 34q9 4 20 6t21 5q53 12 106.5 20t106.5 8q45 0 91.5 -9t87 -31t66.5 -61q37 -54 37 -117
q0 -73 -40.5 -131t-99.5 -96q-43 -28 -98.5 -46.5t-114 -27.5t-109.5 -9zM109 217q-7 0 -15 2t-8 11q0 6 5.5 11.5t11.5 5.5l201 1q1 0 3.5 -0.5t2.5 -2.5q0 -6 -18 -10.5t-45.5 -8t-56.5 -5.5t-51.5 -3t-29.5 -1z" />
    <glyph glyph-name="Ntilde" unicode="&#xd1;" horiz-adv-x="484" 
d="M353 -26q-19 0 -30 11t-9 29t19 51.5t41.5 76t52 88t51.5 88t39 75.5t15 51q0 8 -6.5 15.5t-14.5 7.5q-15 0 -37 -10.5t-34 -19.5q-40 -29 -86 -70t-93.5 -89t-91.5 -99t-79.5 -100t-57.5 -92l-4.5 -0.5t-9.5 -0.5q-7 0 -11.5 1.5t-3.5 7.5q36 95 88.5 193.5t103.5 185.5
q20 32 40 65.5t43 63.5q5 6 15.5 9.5t21.5 3.5q14 0 25 -5t11 -16q0 -9 -10 -22q-19 -22 -35.5 -45.5t-33.5 -47.5q-30 -44 -59 -89l-58 -90q23 25 58.5 62.5t78 78t88 76t88 58t77.5 22.5q52 0 52 -54q0 -28 -13 -56.5t-27 -52.5q-8 -13 -24.5 -40.5t-37.5 -63t-42.5 -73.5
t-40 -72.5t-30 -59.5t-11.5 -34q0 -3 2 -5q-6 -3 -10 -8t-10 -5zM594 560q-21 0 -34 8.5t-23.5 16.5t-27.5 8t-30 -12.5t-21 -19.5q-8 -2 -8 2q3 14 16 28.5t30.5 24.5t32.5 10q20 0 35 -6.5t29.5 -13t30.5 -6.5q18 0 37 25q8 0 8 -6q0 -15 -14 -28.5t-31.5 -22t-29.5 -8.5z
" />
    <glyph glyph-name="Ograve" unicode="&#xd2;" horiz-adv-x="484" 
d="M122 -5q-52 0 -81.5 26.5t-29.5 80.5q0 50 22 107t60.5 112t87 100t102.5 72t106 27q54 0 93.5 -31t39.5 -87q0 -49 -21.5 -98.5t-47.5 -90.5q-26 -39 -62 -78t-79 -70.5t-91 -50.5t-99 -19zM153 19q38 0 77.5 20t76.5 51.5t67 66t49 64.5q25 38 45.5 86.5t20.5 94.5
q0 38 -18.5 63t-59.5 25q-38 0 -77.5 -20t-76.5 -51t-67 -65.5t-49 -64.5q-25 -38 -45.5 -86.5t-20.5 -94.5q0 -38 19 -63.5t59 -25.5zM522 571q-17 11 -45.5 21.5t-56.5 18t-46 9.5q-10 2 -14.5 5.5t-5.5 6.5q0 5 7 12t17 8l10 -1q41 -13 79 -34.5t57 -35.5q2 -1 2.5 -6.5
t-4.5 -3.5z" />
    <glyph glyph-name="Oacute" unicode="&#xd3;" horiz-adv-x="484" 
d="M122 -5q-52 0 -81.5 26.5t-29.5 80.5q0 50 22 107t60.5 112t87 100t102.5 72t106 27q54 0 93.5 -31t39.5 -87q0 -49 -21.5 -98.5t-47.5 -90.5q-26 -39 -62 -78t-79 -70.5t-91 -50.5t-99 -19zM153 19q38 0 77.5 20t76.5 51.5t67 66t49 64.5q25 38 45.5 86.5t20.5 94.5
q0 38 -18.5 63t-59.5 25q-38 0 -77.5 -20t-76.5 -51t-67 -65.5t-49 -64.5q-25 -38 -45.5 -86.5t-20.5 -94.5q0 -38 19 -63.5t59 -25.5zM430 570q-3 0 -2.5 5t2.5 6q19 14 57 35.5t79 34.5l10 1q10 -1 17 -8t7 -12q-1 -3 -5 -6.5t-15 -5.5q-18 -2 -46 -9.5t-56 -18t-46 -21.5
q-1 0 -1 -0.5t-1 -0.5z" />
    <glyph glyph-name="Ocircumflex" unicode="&#xd4;" horiz-adv-x="484" 
d="M122 -5q-52 0 -81.5 26.5t-29.5 80.5q0 50 22 107t60.5 112t87 100t102.5 72t106 27q54 0 93.5 -31t39.5 -87q0 -49 -21.5 -98.5t-47.5 -90.5q-26 -39 -62 -78t-79 -70.5t-91 -50.5t-99 -19zM153 19q38 0 77.5 20t76.5 51.5t67 66t49 64.5q25 38 45.5 86.5t20.5 94.5
q0 38 -18.5 63t-59.5 25q-38 0 -77.5 -20t-76.5 -51t-67 -65.5t-49 -64.5q-25 -38 -45.5 -86.5t-20.5 -94.5q0 -38 19 -63.5t59 -25.5zM353 569q-5 0 -5 4q0 2 1.5 5t8.5 6q5 3 22.5 12.5t38 21t38 21t22.5 12.5q5 4 11 5q2 0 3.5 0.5t2.5 0.5q7 0 11 -3.5t8 -7.5
q11 -12 22.5 -25.5t23.5 -27.5q4 -4 9 -10.5t5 -7.5q-2 -2 -7 -2q-4 0 -9 0.5t-10 3.5q-12 4 -34 17t-37 26q-25 -11 -53 -22.5t-47 -19.5q-8 -3 -15 -6t-10 -3z" />
    <glyph glyph-name="Otilde" unicode="&#xd5;" horiz-adv-x="484" 
d="M122 -5q-52 0 -81.5 26.5t-29.5 80.5q0 50 22 107t60.5 112t87 100t102.5 72t106 27q54 0 93.5 -31t39.5 -87q0 -49 -21.5 -98.5t-47.5 -90.5q-26 -39 -62 -78t-79 -70.5t-91 -50.5t-99 -19zM153 19q38 0 77.5 20t76.5 51.5t67 66t49 64.5q25 38 45.5 86.5t20.5 94.5
q0 38 -18.5 63t-59.5 25q-38 0 -77.5 -20t-76.5 -51t-67 -65.5t-49 -64.5q-25 -38 -45.5 -86.5t-20.5 -94.5q0 -38 19 -63.5t59 -25.5zM518 571q-21 0 -34 8.5t-23.5 16.5t-27.5 8t-30 -12.5t-21 -19.5q-8 -2 -8 2q3 14 16 28.5t30.5 24.5t32.5 10q20 0 35 -6.5t29.5 -13
t30.5 -6.5q18 0 37 25q8 0 8 -6q0 -15 -14 -28.5t-31.5 -22t-29.5 -8.5z" />
    <glyph glyph-name="Odieresis" unicode="&#xd6;" horiz-adv-x="484" 
d="M122 -5q-52 0 -81.5 26.5t-29.5 80.5q0 50 22 107t60.5 112t87 100t102.5 72t106 27q54 0 93.5 -31t39.5 -87q0 -49 -21.5 -98.5t-47.5 -90.5q-26 -39 -62 -78t-79 -70.5t-91 -50.5t-99 -19zM153 19q38 0 77.5 20t76.5 51.5t67 66t49 64.5q25 38 45.5 86.5t20.5 94.5
q0 38 -18.5 63t-59.5 25q-38 0 -77.5 -20t-76.5 -51t-67 -65.5t-49 -64.5q-25 -38 -45.5 -86.5t-20.5 -94.5q0 -38 19 -63.5t59 -25.5zM538 569q-6 0 -16.5 5t-19.5 12.5t-9 13.5q0 8 12 17.5t26.5 16.5t20.5 7q10 0 10 -7q0 -3 -1 -4q-7 -7 -9 -13l-5 -15q-2 -6 -1.5 -19.5
t-7.5 -13.5zM428 569q-6 0 -16.5 5t-19.5 12.5t-9 13.5q0 8 12 17.5t26.5 16.5t20.5 7q10 0 10 -7q0 -3 -1 -4q-7 -7 -9 -13l-5 -15q-2 -6 -1.5 -19.5t-7.5 -13.5z" />
    <glyph glyph-name="multiply" unicode="&#xd7;" horiz-adv-x="478" 
d="M106 73l-34 33l137 132l-137 132l34 32l137 -132l137 132l34 -32l-137 -132l137 -132l-34 -33l-137 132z" />
    <glyph glyph-name="Oslash" unicode="&#xd8;" horiz-adv-x="467" 
d="M48 -110q-7 0 -11.5 10t-4.5 16q0 17 9.5 38t17.5 35q-28 16 -39.5 44t-11.5 59q0 53 23 114.5t63.5 121.5t92 109.5t108.5 79t114 29.5q23 0 49 -8q2 3 11 14t19.5 24t19.5 23t11 10q7 0 23.5 -3.5t16.5 -12.5q0 -4 -2 -7l-4 -6l-26 -32t-27 -32q23 -18 32 -43.5
t9 -53.5q0 -52 -22 -107t-51 -99q-28 -42 -64.5 -84.5t-80 -77t-93.5 -55.5t-104 -21q-11 0 -22 1t-22 4q-7 -11 -17.5 -29.5t-10.5 -32.5q0 -11 5 -13t5 -5q0 -4 -6 -7t-10 -3zM90 38q86 120 172 239.5t177 236.5h-6q-41 0 -83 -22t-81 -56t-71 -71.5t-52 -69.5
q-26 -41 -48 -94t-22 -103q0 -16 3.5 -31t10.5 -29zM159 2q41 0 83 22t81 56t71 72t52 69q26 41 48 94t22 103q0 22 -6.5 43.5t-24.5 35.5q-96 -118 -189 -239t-187 -241q11 -8 24 -11.5t26 -3.5z" />
    <glyph glyph-name="Ugrave" unicode="&#xd9;" horiz-adv-x="467" 
d="M407 -90q-48 0 -69 28t-21 74q0 32 9 67t20 65q5 13 10.5 24.5t11.5 23.5q-44 -51 -91.5 -89t-106.5 -72q-21 -12 -47 -23t-52 -11q-27 0 -41 15t-14 41q0 24 9 49t20 46q29 57 65 111.5t71 108.5l16 24t12.5 18.5t15.5 24.5q6 9 11.5 18.5t11.5 18.5q9 15 26 15
q10 0 10 -9q0 -5 -3 -11q-10 -17 -28 -50.5t-40.5 -75.5t-44.5 -87t-41 -87t-30.5 -74t-11.5 -48q0 -24 21 -24q13 0 28.5 7t25.5 13q69 40 120 85t92 95.5t80 106.5t84 119q5 6 15.5 22t22 30t19.5 14q9 0 9 -9q0 -3 -1 -4q-49 -74 -101 -162t-90 -198q-12 -33 -22 -74.5
t-10 -76.5q0 -12 3 -28t12 -28t25 -12q14 0 25 9.5t15 9.5q2 0 2 -4q0 -9 -10.5 -14.5t-23 -8.5t-19.5 -3zM482 543q-17 11 -45.5 21.5t-56.5 18t-46 9.5q-10 2 -14.5 5.5t-5.5 6.5q0 5 7 12t17 8l10 -1q41 -13 79 -34.5t57 -35.5q2 -1 2.5 -6.5t-4.5 -3.5z" />
    <glyph glyph-name="Uacute" unicode="&#xda;" horiz-adv-x="467" 
d="M407 -90q-48 0 -69 28t-21 74q0 32 9 67t20 65q5 13 10.5 24.5t11.5 23.5q-44 -51 -91.5 -89t-106.5 -72q-21 -12 -47 -23t-52 -11q-27 0 -41 15t-14 41q0 24 9 49t20 46q29 57 65 111.5t71 108.5l16 24t12.5 18.5t15.5 24.5q6 9 11.5 18.5t11.5 18.5q9 15 26 15
q10 0 10 -9q0 -5 -3 -11q-10 -17 -28 -50.5t-40.5 -75.5t-44.5 -87t-41 -87t-30.5 -74t-11.5 -48q0 -24 21 -24q13 0 28.5 7t25.5 13q69 40 120 85t92 95.5t80 106.5t84 119q5 6 15.5 22t22 30t19.5 14q9 0 9 -9q0 -3 -1 -4q-49 -74 -101 -162t-90 -198q-12 -33 -22 -74.5
t-10 -76.5q0 -12 3 -28t12 -28t25 -12q14 0 25 9.5t15 9.5q2 0 2 -4q0 -9 -10.5 -14.5t-23 -8.5t-19.5 -3zM390 542q-3 0 -2.5 5t2.5 6q19 14 57 35.5t79 34.5l10 1q10 -1 17 -8t7 -12q-1 -3 -5 -6.5t-15 -5.5q-18 -2 -46 -9.5t-56 -18t-46 -21.5q-1 0 -1 -0.5t-1 -0.5z" />
    <glyph glyph-name="Ucircumflex" unicode="&#xdb;" horiz-adv-x="467" 
d="M407 -90q-48 0 -69 28t-21 74q0 32 9 67t20 65q5 13 10.5 24.5t11.5 23.5q-44 -51 -91.5 -89t-106.5 -72q-21 -12 -47 -23t-52 -11q-27 0 -41 15t-14 41q0 24 9 49t20 46q29 57 65 111.5t71 108.5l16 24t12.5 18.5t15.5 24.5q6 9 11.5 18.5t11.5 18.5q9 15 26 15
q10 0 10 -9q0 -5 -3 -11q-10 -17 -28 -50.5t-40.5 -75.5t-44.5 -87t-41 -87t-30.5 -74t-11.5 -48q0 -24 21 -24q13 0 28.5 7t25.5 13q69 40 120 85t92 95.5t80 106.5t84 119q5 6 15.5 22t22 30t19.5 14q9 0 9 -9q0 -3 -1 -4q-49 -74 -101 -162t-90 -198q-12 -33 -22 -74.5
t-10 -76.5q0 -12 3 -28t12 -28t25 -12q14 0 25 9.5t15 9.5q2 0 2 -4q0 -9 -10.5 -14.5t-23 -8.5t-19.5 -3zM313 541q-5 0 -5 4q0 2 1.5 5t8.5 6q5 3 22.5 12.5t38 21t38 21t22.5 12.5q5 4 11 5q2 0 3.5 0.5t2.5 0.5q7 0 11 -3.5t8 -7.5q11 -12 22.5 -25.5t23.5 -27.5
q4 -4 9 -10.5t5 -7.5q-2 -2 -7 -2q-4 0 -9 0.5t-10 3.5q-12 4 -34 17t-37 26q-25 -11 -53 -22.5t-47 -19.5q-8 -3 -15 -6t-10 -3z" />
    <glyph glyph-name="Udieresis" unicode="&#xdc;" horiz-adv-x="467" 
d="M407 -90q-48 0 -69 28t-21 74q0 32 9 67t20 65q5 13 10.5 24.5t11.5 23.5q-44 -51 -91.5 -89t-106.5 -72q-21 -12 -47 -23t-52 -11q-27 0 -41 15t-14 41q0 24 9 49t20 46q29 57 65 111.5t71 108.5l16 24t12.5 18.5t15.5 24.5q6 9 11.5 18.5t11.5 18.5q9 15 26 15
q10 0 10 -9q0 -5 -3 -11q-10 -17 -28 -50.5t-40.5 -75.5t-44.5 -87t-41 -87t-30.5 -74t-11.5 -48q0 -24 21 -24q13 0 28.5 7t25.5 13q69 40 120 85t92 95.5t80 106.5t84 119q5 6 15.5 22t22 30t19.5 14q9 0 9 -9q0 -3 -1 -4q-49 -74 -101 -162t-90 -198q-12 -33 -22 -74.5
t-10 -76.5q0 -12 3 -28t12 -28t25 -12q14 0 25 9.5t15 9.5q2 0 2 -4q0 -9 -10.5 -14.5t-23 -8.5t-19.5 -3zM498 541q-6 0 -16.5 5t-19.5 12.5t-9 13.5q0 8 12 17.5t26.5 16.5t20.5 7q10 0 10 -7q0 -3 -1 -4q-7 -7 -9 -13l-5 -15q-2 -6 -1.5 -19.5t-7.5 -13.5zM388 541
q-6 0 -16.5 5t-19.5 12.5t-9 13.5q0 8 12 17.5t26.5 16.5t20.5 7q10 0 10 -7q0 -3 -1 -4q-7 -7 -9 -13l-5 -15q-2 -6 -1.5 -19.5t-7.5 -13.5z" />
    <glyph glyph-name="Yacute" unicode="&#xdd;" horiz-adv-x="447" 
d="M79 -191q-19 0 -40 5.5t-35.5 19.5t-14.5 37q0 4 2 9.5t7 5.5t6.5 -4t2.5 -7t1.5 -5.5t1.5 -5.5q6 -13 23 -22t30 -9q39 0 73 20t62 44q65 55 110.5 125.5t82 148t72.5 152.5q-25 -28 -60 -67.5t-76.5 -82t-85.5 -80.5t-87 -63.5t-81 -29.5h-8q-26 0 -40.5 15t-14.5 40
q0 26 10.5 50.5t23.5 45.5q9 15 29.5 49t45.5 77t48.5 85t38.5 73.5t15 41.5q0 3 -1 5q11 6 23 6q17 0 27 -10.5t10 -27.5t-15 -50t-38.5 -74.5t-49.5 -85.5t-49.5 -84t-38.5 -70t-15 -43q0 -17 18 -17q14 0 33.5 10.5t40 25.5t39 30.5t29.5 24.5q71 63 134.5 135t119.5 148
q19 26 36.5 53t36.5 53q5 10 16 10q4 0 7.5 -2t3.5 -7q0 -6 -5 -11q-20 -26 -39 -63t-35.5 -78.5t-30.5 -81.5t-24 -72q-21 -66 -52 -135t-75.5 -127.5t-105.5 -94t-142 -35.5zM377 549q-3 0 -2.5 5t2.5 6q19 14 57 35.5t79 34.5l10 1q10 -1 17 -8t7 -12q-1 -3 -5 -6.5
t-15 -5.5q-18 -2 -46 -9.5t-56 -18t-46 -21.5q-1 0 -1 -0.5t-1 -0.5z" />
    <glyph glyph-name="Thorn" unicode="&#xde;" horiz-adv-x="439" 
d="M-16 -109q-5 0 -5 6q0 2 0.5 3.5t0.5 2.5q6 18 17.5 44t24 52t20.5 42q36 71 78 148t81 145q-25 -7 -48.5 -14t-45.5 -13q-9 -3 -16 -3q-12 0 -18.5 7.5t-6.5 18.5q0 25 22 34q7 3 14.5 5t14.5 3q29 6 59 12t61 11q36 61 61 99t31 38q9 0 22.5 -2.5t23.5 -6.5t6 -11
q-12 -14 -32 -42.5t-43 -65.5q28 2 53 2q27 0 57 -4.5t56 -16.5t42 -34t16 -56t-24.5 -61.5t-61.5 -47.5t-75 -33t-65 -20q-36 -9 -76 -20t-78 -13h-3q-2 0 -5 1t-3 4q0 6 9 10.5t13 5.5q5 2 10.5 2t11.5 1q16 2 31.5 6t31.5 8q20 5 50 15.5t63.5 25t63 33.5t48 41.5
t18.5 47.5q0 26 -21 39t-48 17t-46 4q-24 0 -49.5 -3t-52.5 -8q-31 -51 -63 -103.5t-57.5 -94.5t-39.5 -62q-32 -45 -59 -93.5t-56 -95.5q-2 -3 -5 -6.5t-8 -3.5z" />
    <glyph glyph-name="germandbls" unicode="&#xdf;" horiz-adv-x="340" 
d="M212 -37q-29 0 -42.5 22.5t-13.5 48.5q0 2 0.5 6t4.5 4q3 0 4 -3.5t2 -5.5q9 -30 41 -30q17 0 28 11t11 29q0 20 -10 42t-20.5 47t-10.5 52q0 22 7 39q9 25 37.5 40t62.5 22t58 7q11 0 19 -1q31 28 51 71.5t20 85.5q0 23 -20 32.5t-40 9.5q-22 0 -44 -8.5t-40 -21.5
q-49 -34 -87 -86t-65.5 -111t-46.5 -114q-22 -64 -50 -123t-67.5 -105.5t-95 -74t-132.5 -27.5q-27 0 -49.5 11t-30.5 39l13 3q4 -19 18 -27t32 -8q33 0 63 16q40 19 81 52t67 70q38 54 76.5 123.5t79 141.5t85.5 132q48 65 106 107.5t120 42.5q16 0 33.5 -6t30 -18
t12.5 -31q0 -29 -14.5 -64.5t-38.5 -68.5t-52 -55q-3 -5 -14.5 -11t-26.5 -10q-29 -8 -56 -22.5t-44 -37.5t-17 -58q0 -31 10 -58.5t10 -58.5q0 -25 -13.5 -43.5t-41.5 -18.5z" />
    <glyph glyph-name="agrave" unicode="&#xe0;" horiz-adv-x="341" 
d="M218 -4q-19 0 -32 12t-13 32q0 21 11.5 47.5t20.5 44.5q-12 -15 -31 -37.5t-41 -44.5t-45 -36.5t-44 -14.5q-22 0 -31.5 16t-9.5 35q0 12 3 24q7 26 27 54.5t46.5 55t54.5 49.5t50 38q10 7 21.5 12.5t24.5 5.5q16 0 29.5 -8.5t24.5 -19.5q3 5 4.5 8t7.5 3q4 0 18.5 -3
t27.5 -7t13 -8q0 -1 -1 -1q-7 -10 -15 -20l-16 -20q-25 -34 -48.5 -71t-40.5 -77q-2 -6 -4 -12.5t-2 -13.5q0 -18 18 -18q14 0 34 15t41.5 37t40.5 44.5t32 37.5t15 15q3 0 3 -4q0 -2 -15 -19.5t-36 -40.5t-38 -41.5t-22 -23.5q-16 -15 -38 -30t-45 -15zM55 22q8 0 16.5 4.5
t14.5 7.5q39 23 74 60t65 79t54 80q-2 1 -7 1q-10 0 -21 -7q-57 -29 -108.5 -78.5t-85.5 -105.5q-4 -6 -7.5 -14.5t-3.5 -16.5q0 -10 9 -10zM345 321q-16 13 -43 25t-54 21.5t-45 13.5q-19 5 -19 13q0 5 7.5 12.5t17.5 7.5q4 0 10 -2q40 -16 76 -40.5t53 -40.5q2 -2 2 -7.5
t-5 -2.5z" />
    <glyph glyph-name="aacute" unicode="&#xe1;" horiz-adv-x="341" 
d="M218 -4q-19 0 -32 12t-13 32q0 21 11.5 47.5t20.5 44.5q-12 -15 -31 -37.5t-41 -44.5t-45 -36.5t-44 -14.5q-22 0 -31.5 16t-9.5 35q0 12 3 24q7 26 27 54.5t46.5 55t54.5 49.5t50 38q10 7 21.5 12.5t24.5 5.5q16 0 29.5 -8.5t24.5 -19.5q3 5 4.5 8t7.5 3q4 0 18.5 -3
t27.5 -7t13 -8q0 -1 -1 -1q-7 -10 -15 -20l-16 -20q-25 -34 -48.5 -71t-40.5 -77q-2 -6 -4 -12.5t-2 -13.5q0 -18 18 -18q14 0 34 15t41.5 37t40.5 44.5t32 37.5t15 15q3 0 3 -4q0 -2 -15 -19.5t-36 -40.5t-38 -41.5t-22 -23.5q-16 -15 -38 -30t-45 -15zM55 22q8 0 16.5 4.5
t14.5 7.5q39 23 74 60t65 79t54 80q-2 1 -7 1q-10 0 -21 -7q-57 -29 -108.5 -78.5t-85.5 -105.5q-4 -6 -7.5 -14.5t-3.5 -16.5q0 -10 9 -10zM300 320q-3 0 -3 4.5t2 6.5q17 16 53 40.5t76 40.5q6 2 10 2q10 0 17.5 -7.5t7.5 -12.5q0 -8 -19 -13q-17 -4 -44.5 -13.5
t-54 -21.5t-43.5 -25q-1 -1 -1.5 -1h-0.5z" />
    <glyph glyph-name="acircumflex" unicode="&#xe2;" horiz-adv-x="341" 
d="M218 -4q-19 0 -32 12t-13 32q0 21 11.5 47.5t20.5 44.5q-12 -15 -31 -37.5t-41 -44.5t-45 -36.5t-44 -14.5q-22 0 -31.5 16t-9.5 35q0 12 3 24q7 26 27 54.5t46.5 55t54.5 49.5t50 38q10 7 21.5 12.5t24.5 5.5q16 0 29.5 -8.5t24.5 -19.5q3 5 4.5 8t7.5 3q4 0 18.5 -3
t27.5 -7t13 -8q0 -1 -1 -1q-7 -10 -15 -20l-16 -20q-25 -34 -48.5 -71t-40.5 -77q-2 -6 -4 -12.5t-2 -13.5q0 -18 18 -18q14 0 34 15t41.5 37t40.5 44.5t32 37.5t15 15q3 0 3 -4q0 -2 -15 -19.5t-36 -40.5t-38 -41.5t-22 -23.5q-16 -15 -38 -30t-45 -15zM55 22q8 0 16.5 4.5
t14.5 7.5q39 23 74 60t65 79t54 80q-2 1 -7 1q-10 0 -21 -7q-57 -29 -108.5 -78.5t-85.5 -105.5q-4 -6 -7.5 -14.5t-3.5 -16.5q0 -10 9 -10zM388 316q-4 0 -9 0.5t-10 3.5q-12 4 -26.5 22t-24.5 33q-22 -16 -49 -28t-41 -19q-8 -4 -15 -6.5t-10 -2.5q-5 0 -5 4q0 2 9 6.5
t20 11.5q24 15 48.5 32t43.5 33q5 5 11 5q15 0 20 -10q5 -12 16 -33t18 -32q3 -4 7 -10.5t4 -7.5q-2 -2 -7 -2z" />
    <glyph glyph-name="atilde" unicode="&#xe3;" horiz-adv-x="341" 
d="M218 -4q-19 0 -32 12t-13 32q0 21 11.5 47.5t20.5 44.5q-12 -15 -31 -37.5t-41 -44.5t-45 -36.5t-44 -14.5q-22 0 -31.5 16t-9.5 35q0 12 3 24q7 26 27 54.5t46.5 55t54.5 49.5t50 38q10 7 21.5 12.5t24.5 5.5q16 0 29.5 -8.5t24.5 -19.5q3 5 4.5 8t7.5 3q4 0 18.5 -3
t27.5 -7t13 -8q0 -1 -1 -1q-7 -10 -15 -20l-16 -20q-25 -34 -48.5 -71t-40.5 -77q-2 -6 -4 -12.5t-2 -13.5q0 -18 18 -18q14 0 34 15t41.5 37t40.5 44.5t32 37.5t15 15q3 0 3 -4q0 -2 -15 -19.5t-36 -40.5t-38 -41.5t-22 -23.5q-16 -15 -38 -30t-45 -15zM55 22q8 0 16.5 4.5
t14.5 7.5q39 23 74 60t65 79t54 80q-2 1 -7 1q-10 0 -21 -7q-57 -29 -108.5 -78.5t-85.5 -105.5q-4 -6 -7.5 -14.5t-3.5 -16.5q0 -10 9 -10zM355 324q-19 0 -30.5 7.5t-21.5 15t-25 7.5q-16 0 -28 -11.5t-19 -17.5q-7 -2 -7 2q3 12 14.5 25.5t27.5 22.5t30 9q26 0 45 -12
t41 -12q10 0 17 5.5t17 17.5q7 0 7 -5q0 -14 -12.5 -26.5t-28.5 -20t-27 -7.5z" />
    <glyph glyph-name="adieresis" unicode="&#xe4;" horiz-adv-x="341" 
d="M218 -4q-19 0 -32 12t-13 32q0 21 11.5 47.5t20.5 44.5q-12 -15 -31 -37.5t-41 -44.5t-45 -36.5t-44 -14.5q-22 0 -31.5 16t-9.5 35q0 12 3 24q7 26 27 54.5t46.5 55t54.5 49.5t50 38q10 7 21.5 12.5t24.5 5.5q16 0 29.5 -8.5t24.5 -19.5q3 5 4.5 8t7.5 3q4 0 18.5 -3
t27.5 -7t13 -8q0 -1 -1 -1q-7 -10 -15 -20l-16 -20q-25 -34 -48.5 -71t-40.5 -77q-2 -6 -4 -12.5t-2 -13.5q0 -18 18 -18q14 0 34 15t41.5 37t40.5 44.5t32 37.5t15 15q3 0 3 -4q0 -2 -15 -19.5t-36 -40.5t-38 -41.5t-22 -23.5q-16 -15 -38 -30t-45 -15zM55 22q8 0 16.5 4.5
t14.5 7.5q39 23 74 60t65 79t54 80q-2 1 -7 1q-10 0 -21 -7q-57 -29 -108.5 -78.5t-85.5 -105.5q-4 -6 -7.5 -14.5t-3.5 -16.5q0 -10 9 -10zM381 319q-6 0 -16.5 5t-19.5 12.5t-9 13.5q0 8 12 17.5t26.5 16.5t20.5 7q10 0 10 -7q0 -3 -1 -4q-7 -7 -9 -13l-5 -15
q-2 -6 -1.5 -19.5t-7.5 -13.5zM267 319q-6 0 -16.5 5t-19.5 12.5t-9 13.5q0 8 12 17.5t26.5 16.5t20.5 7q10 0 10 -7q0 -3 -1 -4q-7 -7 -9 -13l-5 -15q-2 -6 -1.5 -19.5t-7.5 -13.5z" />
    <glyph glyph-name="aring" unicode="&#xe5;" horiz-adv-x="341" 
d="M218 -4q-19 0 -32 12t-13 32q0 21 11.5 47.5t20.5 44.5q-12 -15 -31 -37.5t-41 -44.5t-45 -36.5t-44 -14.5q-22 0 -31.5 16t-9.5 35q0 12 3 24q7 26 27 54.5t46.5 55t54.5 49.5t50 38q10 7 21.5 12.5t24.5 5.5q16 0 29.5 -8.5t24.5 -19.5q3 5 4.5 8t7.5 3q4 0 18.5 -3
t27.5 -7t13 -8q0 -1 -1 -1q-7 -10 -15 -20l-16 -20q-25 -34 -48.5 -71t-40.5 -77q-2 -6 -4 -12.5t-2 -13.5q0 -18 18 -18q14 0 34 15t41.5 37t40.5 44.5t32 37.5t15 15q3 0 3 -4q0 -2 -15 -19.5t-36 -40.5t-38 -41.5t-22 -23.5q-16 -15 -38 -30t-45 -15zM55 22q8 0 16.5 4.5
t14.5 7.5q39 23 74 60t65 79t54 80q-2 1 -7 1q-10 0 -21 -7q-57 -29 -108.5 -78.5t-85.5 -105.5q-4 -6 -7.5 -14.5t-3.5 -16.5q0 -10 9 -10zM327 319q-19 0 -30.5 11.5t-11.5 28.5q0 27 24.5 48.5t52.5 21.5q20 0 31.5 -10.5t11.5 -27.5q0 -19 -12 -35.5t-29.5 -26.5
t-36.5 -10zM331 336q25 0 40 34q4 9 4 20q0 20 -15 20q-14 0 -29.5 -16.5t-15.5 -36.5q0 -21 16 -21z" />
    <glyph glyph-name="ae" unicode="&#xe6;" horiz-adv-x="341" 
d="M44 -1q-22 0 -31.5 16t-9.5 35q0 12 3 24q7 27 27 55t46.5 54.5t54.5 49.5t50 38q10 8 21.5 13t24.5 5q16 0 29.5 -8.5t24.5 -19.5q3 5 4.5 8t7.5 3q10 0 23 -3.5t22 -6.5q6 4 19.5 11.5t27 13.5t20.5 6t14.5 -11t12.5 -23.5t5 -19.5t-9 -12q-17 -10 -33.5 -21.5
t-27.5 -30.5l21 1h10h12t12 -1l0.5 -0.5t0.5 -1.5t-2 -2t-3 -2q-14 -2 -28 -3t-28 -3q0 -6 -3 -6q-5 0 -5 4q-20 -3 -41 -7.5t-41 -12.5q-12 -17 -24.5 -43t-12.5 -47q0 -14 7 -24.5t23 -10.5q8 0 16.5 2.5t15.5 6.5q48 24 85.5 57.5t74.5 72.5q2 2 3 2t1 -2q0 -3 -1.5 -6.5
t-3.5 -5.5q-28 -34 -62.5 -68t-70.5 -58q-28 -18 -64 -18q-27 0 -53 14t-26 46q0 14 8 37.5t14 35.5q-12 -15 -30.5 -37.5t-41 -44.5t-45.5 -36.5t-44 -14.5zM55 22q8 0 16.5 4.5t14.5 7.5q39 23 74 60t65 79t54 80q-2 1 -7 1q-10 0 -21 -7q-57 -29 -108.5 -78.5
t-85.5 -105.5q-4 -6 -7.5 -14.5t-3.5 -16.5q0 -10 9 -10zM300 171q16 2 31 2.5t30 1.5q6 17 14.5 33t18.5 29q-26 -13 -50 -29t-44 -37z" />
    <glyph glyph-name="ccedilla" unicode="&#xe7;" horiz-adv-x="233" 
d="M90 -1q-27 0 -53 14t-26 46q0 4 0.5 7.5t1.5 7.5q8 35 31 70.5t55 67t67.5 56.5t66.5 40q5 2 12 5.5t11 3.5q8 0 16.5 -12.5t14.5 -27t6 -21.5q0 -6 -2 -8.5t-7 -4.5q-54 -22 -75 -74q-1 -3 -4 -3q-4 0 -4 4q0 12 8.5 30t20.5 34t20 23q-57 -27 -105.5 -70t-71.5 -103
q-8 -19 -8 -38q0 -13 6 -22.5t21 -9.5q9 0 18.5 3.5t17.5 7.5q48 24 86 57.5t74 72.5q2 2 3 2t1 -2q0 -3 -1.5 -6.5t-3.5 -5.5q-26 -33 -62 -68t-71 -58q-28 -18 -64 -18zM10 -119q-19 0 -26.5 5.5t-7.5 12.5q14 -3 27 -3q17 0 28 5t11 22q0 11 -5.5 21.5t-5.5 29.5
q0 15 12.5 24t34.5 9q2 0 5 -1.5t3 -5.5q-13 -1 -19 -8.5t-6 -17.5q0 -16 7.5 -25t7.5 -30q0 -16 -19 -27t-47 -11z" />
    <glyph glyph-name="egrave" unicode="&#xe8;" horiz-adv-x="233" 
d="M91 -1q-28 0 -54 14t-26 46q0 4 0.5 7.5t1.5 7.5q8 34 29.5 67t52 62t64 51.5t64.5 34.5q3 2 6 3t7 1q9 0 15 -9.5t9 -21.5t3 -19q0 -18 -10.5 -36.5t-23.5 -30.5q6 0 12 -0.5t12 -0.5q2 0 2 -2q0 -1 -2 -2l-4 -2l-30 -3q-28 -3 -58 -9t-57 -16q-13 -18 -26 -45t-13 -50
q0 -13 6 -22.5t21 -9.5q9 0 18.5 3.5t17.5 7.5q48 24 86 57.5t74 72.5q2 2 3 2q2 0 2 -2q0 -3 -2 -6.5t-4 -5.5q-27 -34 -62 -68.5t-71 -57.5q-28 -18 -63 -18zM129 171q23 2 46 3.5t46 1.5q6 8 10.5 21.5t4.5 23.5q0 5 -2 10.5t-9 5.5h-3q-12 -4 -30.5 -16t-35.5 -26
t-27 -24zM275 321q-16 13 -43 25t-54 21.5t-45 13.5q-19 5 -19 13q0 5 7.5 12.5t17.5 7.5q4 0 10 -2q40 -16 76 -40.5t53 -40.5q2 -2 2 -7.5t-5 -2.5z" />
    <glyph glyph-name="eacute" unicode="&#xe9;" horiz-adv-x="233" 
d="M91 -1q-28 0 -54 14t-26 46q0 4 0.5 7.5t1.5 7.5q8 34 29.5 67t52 62t64 51.5t64.5 34.5q3 2 6 3t7 1q9 0 15 -9.5t9 -21.5t3 -19q0 -18 -10.5 -36.5t-23.5 -30.5q6 0 12 -0.5t12 -0.5q2 0 2 -2q0 -1 -2 -2l-4 -2l-30 -3q-28 -3 -58 -9t-57 -16q-13 -18 -26 -45t-13 -50
q0 -13 6 -22.5t21 -9.5q9 0 18.5 3.5t17.5 7.5q48 24 86 57.5t74 72.5q2 2 3 2q2 0 2 -2q0 -3 -2 -6.5t-4 -5.5q-27 -34 -62 -68.5t-71 -57.5q-28 -18 -63 -18zM129 171q23 2 46 3.5t46 1.5q6 8 10.5 21.5t4.5 23.5q0 5 -2 10.5t-9 5.5h-3q-12 -4 -30.5 -16t-35.5 -26
t-27 -24zM230 320q-3 0 -3 4.5t2 6.5q17 16 53 40.5t76 40.5q6 2 10 2q10 0 17.5 -7.5t7.5 -12.5q0 -8 -19 -13q-17 -4 -44.5 -13.5t-54 -21.5t-43.5 -25q-1 -1 -1.5 -1h-0.5z" />
    <glyph glyph-name="ecircumflex" unicode="&#xea;" horiz-adv-x="233" 
d="M91 -1q-28 0 -54 14t-26 46q0 4 0.5 7.5t1.5 7.5q8 34 29.5 67t52 62t64 51.5t64.5 34.5q3 2 6 3t7 1q9 0 15 -9.5t9 -21.5t3 -19q0 -18 -10.5 -36.5t-23.5 -30.5q6 0 12 -0.5t12 -0.5q2 0 2 -2q0 -1 -2 -2l-4 -2l-30 -3q-28 -3 -58 -9t-57 -16q-13 -18 -26 -45t-13 -50
q0 -13 6 -22.5t21 -9.5q9 0 18.5 3.5t17.5 7.5q48 24 86 57.5t74 72.5q2 2 3 2q2 0 2 -2q0 -3 -2 -6.5t-4 -5.5q-27 -34 -62 -68.5t-71 -57.5q-28 -18 -63 -18zM129 171q23 2 46 3.5t46 1.5q6 8 10.5 21.5t4.5 23.5q0 5 -2 10.5t-9 5.5h-3q-12 -4 -30.5 -16t-35.5 -26
t-27 -24zM318 316q-4 0 -9 0.5t-10 3.5q-12 4 -26.5 22t-24.5 33q-22 -16 -49 -28t-41 -19q-8 -4 -15 -6.5t-10 -2.5q-5 0 -5 4q0 2 9 6.5t20 11.5q24 15 48.5 32t43.5 33q5 5 11 5q15 0 20 -10q5 -12 16 -33t18 -32q3 -4 7 -10.5t4 -7.5q-2 -2 -7 -2z" />
    <glyph glyph-name="edieresis" unicode="&#xeb;" horiz-adv-x="233" 
d="M91 -1q-28 0 -54 14t-26 46q0 4 0.5 7.5t1.5 7.5q8 34 29.5 67t52 62t64 51.5t64.5 34.5q3 2 6 3t7 1q9 0 15 -9.5t9 -21.5t3 -19q0 -18 -10.5 -36.5t-23.5 -30.5q6 0 12 -0.5t12 -0.5q2 0 2 -2q0 -1 -2 -2l-4 -2l-30 -3q-28 -3 -58 -9t-57 -16q-13 -18 -26 -45t-13 -50
q0 -13 6 -22.5t21 -9.5q9 0 18.5 3.5t17.5 7.5q48 24 86 57.5t74 72.5q2 2 3 2q2 0 2 -2q0 -3 -2 -6.5t-4 -5.5q-27 -34 -62 -68.5t-71 -57.5q-28 -18 -63 -18zM129 171q23 2 46 3.5t46 1.5q6 8 10.5 21.5t4.5 23.5q0 5 -2 10.5t-9 5.5h-3q-12 -4 -30.5 -16t-35.5 -26
t-27 -24zM311 319q-6 0 -16.5 5t-19.5 12.5t-9 13.5q0 8 12 17.5t26.5 16.5t20.5 7q10 0 10 -7q0 -3 -1 -4q-7 -7 -9 -13l-5 -15q-2 -6 -1.5 -19.5t-7.5 -13.5zM197 319q-6 0 -16.5 5t-19.5 12.5t-9 13.5q0 8 12 17.5t26.5 16.5t20.5 7q10 0 10 -7q0 -3 -1 -4q-7 -7 -9 -13
l-5 -15q-2 -6 -1.5 -19.5t-7.5 -13.5z" />
    <glyph glyph-name="igrave" unicode="&#xec;" horiz-adv-x="170" 
d="M48 -4q-19 0 -32 12t-13 31q0 4 0.5 7.5t1.5 7.5q8 27 24.5 60.5t36 66.5t34.5 57q5 8 9.5 16.5t10.5 15.5q1 2 6 2q4 0 18.5 -3t27.5 -7t13 -8q0 -1 -1 -1q-7 -10 -15 -20l-16 -20q-25 -34 -48.5 -71t-40.5 -77q-2 -6 -4 -12.5t-2 -13.5q0 -18 17 -18q14 0 34 15
t41.5 37t40.5 44.5t32 37.5t15 15q4 0 4 -4q0 -2 -10 -14t-25.5 -29.5t-32 -35t-28.5 -30.5t-16 -16q-16 -15 -37.5 -30t-44.5 -15zM204 321q-16 13 -43 25t-54 21.5t-45 13.5q-19 5 -19 13q0 5 7.5 12.5t17.5 7.5q4 0 10 -2q40 -16 76 -40.5t53 -40.5q2 -2 2 -7.5t-5 -2.5z
" />
    <glyph glyph-name="iacute" unicode="&#xed;" horiz-adv-x="170" 
d="M48 -4q-19 0 -32 12t-13 31q0 4 0.5 7.5t1.5 7.5q8 27 24.5 60.5t36 66.5t34.5 57q5 8 9.5 16.5t10.5 15.5q1 2 6 2q4 0 18.5 -3t27.5 -7t13 -8q0 -1 -1 -1q-7 -10 -15 -20l-16 -20q-25 -34 -48.5 -71t-40.5 -77q-2 -6 -4 -12.5t-2 -13.5q0 -18 17 -18q14 0 34 15
t41.5 37t40.5 44.5t32 37.5t15 15q4 0 4 -4q0 -2 -10 -14t-25.5 -29.5t-32 -35t-28.5 -30.5t-16 -16q-16 -15 -37.5 -30t-44.5 -15zM159 320q-3 0 -3 4.5t2 6.5q17 16 53 40.5t76 40.5q6 2 10 2q10 0 17.5 -7.5t7.5 -12.5q0 -8 -19 -13q-17 -4 -44.5 -13.5t-54 -21.5
t-43.5 -25q-1 -1 -1.5 -1h-0.5z" />
    <glyph glyph-name="icircumflex" unicode="&#xee;" horiz-adv-x="170" 
d="M48 -4q-19 0 -32 12t-13 31q0 4 0.5 7.5t1.5 7.5q8 27 24.5 60.5t36 66.5t34.5 57q5 8 9.5 16.5t10.5 15.5q1 2 6 2q4 0 18.5 -3t27.5 -7t13 -8q0 -1 -1 -1q-7 -10 -15 -20l-16 -20q-25 -34 -48.5 -71t-40.5 -77q-2 -6 -4 -12.5t-2 -13.5q0 -18 17 -18q14 0 34 15
t41.5 37t40.5 44.5t32 37.5t15 15q4 0 4 -4q0 -2 -10 -14t-25.5 -29.5t-32 -35t-28.5 -30.5t-16 -16q-16 -15 -37.5 -30t-44.5 -15zM247 316q-4 0 -9 0.5t-10 3.5q-12 4 -26.5 22t-24.5 33q-22 -16 -49 -28t-41 -19q-8 -4 -15 -6.5t-10 -2.5q-5 0 -5 4q0 2 9 6.5t20 11.5
q24 15 48.5 32t43.5 33q5 5 11 5q15 0 20 -10q5 -12 16 -33t18 -32q3 -4 7 -10.5t4 -7.5q-2 -2 -7 -2z" />
    <glyph glyph-name="idieresis" unicode="&#xef;" horiz-adv-x="170" 
d="M48 -4q-19 0 -32 12t-13 31q0 4 0.5 7.5t1.5 7.5q8 27 24.5 60.5t36 66.5t34.5 57q5 8 9.5 16.5t10.5 15.5q1 2 6 2q4 0 18.5 -3t27.5 -7t13 -8q0 -1 -1 -1q-7 -10 -15 -20l-16 -20q-25 -34 -48.5 -71t-40.5 -77q-2 -6 -4 -12.5t-2 -13.5q0 -18 17 -18q14 0 34 15
t41.5 37t40.5 44.5t32 37.5t15 15q4 0 4 -4q0 -2 -10 -14t-25.5 -29.5t-32 -35t-28.5 -30.5t-16 -16q-16 -15 -37.5 -30t-44.5 -15zM240 319q-6 0 -16.5 5t-19.5 12.5t-9 13.5q0 8 12 17.5t26.5 16.5t20.5 7q10 0 10 -7q0 -3 -1 -4q-7 -7 -9 -13l-5 -15q-2 -6 -1.5 -19.5
t-7.5 -13.5zM126 319q-6 0 -16.5 5t-19.5 12.5t-9 13.5q0 8 12 17.5t26.5 16.5t20.5 7q10 0 10 -7q0 -3 -1 -4q-7 -7 -9 -13l-5 -15q-2 -6 -1.5 -19.5t-7.5 -13.5z" />
    <glyph glyph-name="eth" unicode="&#xf0;" horiz-adv-x="349" 
d="M207 4q-35 0 -66.5 24t-51.5 60.5t-20 76.5q0 17 5 35q3 10 9 20q25 43 54.5 57.5t49.5 17.5q-15 14 -31.5 28t-31.5 27l-26 -8t-27 -8l-6 -2q-2 -1 -6 -1q-10 0 -11 12v2q0 7 3 13t7 7l38 10q-16 15 -28 26.5t-17 18.5v1q0 2 6.5 9t14 14t11.5 7t28 -15t57 -43l35 9
l41 11h3t2 -2v-1q0 -6 -7 -11.5t-9 -7.5q-9 -7 -20 -10.5t-22 -7.5q32 -29 62.5 -66t50 -79t19.5 -87q0 -22 -5.5 -43.5t-17.5 -42.5q-12 -20 -30 -31t-35 -15.5t-28 -4.5zM240 34q13 0 24 6t21 22q15 27 15 54q0 40 -25 78.5t-59 72.5q-12 4 -25.5 6t-29.5 0q-7 -1 -19 -4
t-23 -23q-10 -17 -10 -42q0 -22 7 -44t16 -39.5t14 -26.5q17 -25 39 -41q10 -6 24.5 -12.5t30.5 -6.5z" />
    <glyph glyph-name="ntilde" unicode="&#xf1;" horiz-adv-x="320" 
d="M201 -3q-20 0 -30 13.5t-10 32.5q0 26 12 57t27 60t27 49.5t12 26.5q0 2 -2 2q-3 0 -7 -2.5t-6 -4.5q-30 -20 -62.5 -56t-61 -75.5t-47.5 -71.5q-11 -19 -25.5 -23.5t-34.5 -4.5q7 16 15 31t15 29q12 24 22 47.5t20 47.5q8 21 17 49.5t9 50.5q0 6 -1 12t-4 11l-3 3
q0 6 7 6q6 0 21 -7t28.5 -16.5t13.5 -17.5q0 -15 -11.5 -43t-26 -54.5t-24.5 -39.5q-1 -1 -2.5 -3t-1.5 -4l1 -1q2 0 16 17.5t35.5 43.5t47.5 52.5t52 44t48 17.5q11 0 25 -5.5t14 -19.5q0 -4 -2 -7.5t-4 -7.5q-31 -42 -58 -81.5t-48 -89.5q-2 -6 -4.5 -12.5t-2.5 -13.5
q0 -18 18 -18q15 0 35 15t41.5 37t40.5 44.5t32 37.5t15 15q3 0 3 -4q0 -1 -8.5 -11.5t-17.5 -20.5t-12 -13q-17 -19 -38.5 -44.5t-45.5 -46.5t-49 -30q-9 -3 -20 -3zM309 324q-19 0 -30.5 7.5t-21.5 15t-25 7.5q-16 0 -28 -11.5t-19 -17.5q-7 -2 -7 2q3 12 14.5 25.5
t27.5 22.5t30 9q26 0 45 -12t41 -12q10 0 17 5.5t17 17.5q7 0 7 -5q0 -14 -12.5 -26.5t-28.5 -20t-27 -7.5z" />
    <glyph glyph-name="ograve" unicode="&#xf2;" 
d="M92 -4q-29 0 -53.5 18t-24.5 49q0 23 15 55t39.5 65t54.5 61.5t59.5 46t53.5 17.5q8 0 17.5 -2.5t13.5 -10.5q20 1 28 -11.5t8 -30.5q0 -27 -15.5 -61t-36.5 -65t-38 -51l6 -1q29 -1 51.5 12t42 33t37.5 38l2 2q3 0 3 -5q0 -2 -1 -3q-14 -20 -36 -40.5t-48 -34t-52 -13.5
h-7.5t-7.5 1q-13 -14 -31 -30t-38.5 -27.5t-41.5 -11.5zM98 11q26 0 50.5 22t40.5 40q-6 3 -15 10.5t-9 15.5q0 14 19 26.5t42 22.5t33 15q10 16 18 37.5t8 40.5q0 11 -4.5 19t-17.5 8q-11 0 -23 -5t-21 -10q-51 -27 -92.5 -74t-57.5 -104q-1 -6 -2.5 -12.5t-1.5 -12.5
q0 -16 8 -27.5t25 -11.5zM311 346q-16 13 -43 25t-54 21.5t-45 13.5q-19 5 -19 13q0 5 7.5 12.5t17.5 7.5q4 0 10 -2q40 -16 76 -40.5t53 -40.5q2 -2 2 -7.5t-5 -2.5z" />
    <glyph glyph-name="oacute" unicode="&#xf3;" 
d="M92 -4q-29 0 -53.5 18t-24.5 49q0 23 15 55t39.5 65t54.5 61.5t59.5 46t53.5 17.5q8 0 17.5 -2.5t13.5 -10.5q20 1 28 -11.5t8 -30.5q0 -27 -15.5 -61t-36.5 -65t-38 -51l6 -1q29 -1 51.5 12t42 33t37.5 38l2 2q3 0 3 -5q0 -2 -1 -3q-14 -20 -36 -40.5t-48 -34t-52 -13.5
h-7.5t-7.5 1q-13 -14 -31 -30t-38.5 -27.5t-41.5 -11.5zM98 11q26 0 50.5 22t40.5 40q-6 3 -15 10.5t-9 15.5q0 14 19 26.5t42 22.5t33 15q10 16 18 37.5t8 40.5q0 11 -4.5 19t-17.5 8q-11 0 -23 -5t-21 -10q-51 -27 -92.5 -74t-57.5 -104q-1 -6 -2.5 -12.5t-1.5 -12.5
q0 -16 8 -27.5t25 -11.5zM266 345q-3 0 -3 4.5t2 6.5q17 16 53 40.5t76 40.5q6 2 10 2q10 0 17.5 -7.5t7.5 -12.5q0 -8 -19 -13q-17 -4 -44.5 -13.5t-54 -21.5t-43.5 -25q-1 -1 -1.5 -1h-0.5z" />
    <glyph glyph-name="ocircumflex" unicode="&#xf4;" 
d="M92 -4q-29 0 -53.5 18t-24.5 49q0 23 15 55t39.5 65t54.5 61.5t59.5 46t53.5 17.5q8 0 17.5 -2.5t13.5 -10.5q20 1 28 -11.5t8 -30.5q0 -27 -15.5 -61t-36.5 -65t-38 -51l6 -1q29 -1 51.5 12t42 33t37.5 38l2 2q3 0 3 -5q0 -2 -1 -3q-14 -20 -36 -40.5t-48 -34t-52 -13.5
h-7.5t-7.5 1q-13 -14 -31 -30t-38.5 -27.5t-41.5 -11.5zM98 11q26 0 50.5 22t40.5 40q-6 3 -15 10.5t-9 15.5q0 14 19 26.5t42 22.5t33 15q10 16 18 37.5t8 40.5q0 11 -4.5 19t-17.5 8q-11 0 -23 -5t-21 -10q-51 -27 -92.5 -74t-57.5 -104q-1 -6 -2.5 -12.5t-1.5 -12.5
q0 -16 8 -27.5t25 -11.5zM354 341q-4 0 -9 0.5t-10 3.5q-12 4 -26.5 22t-24.5 33q-22 -16 -49 -28t-41 -19q-8 -4 -15 -6.5t-10 -2.5q-5 0 -5 4q0 2 9 6.5t20 11.5q24 15 48.5 32t43.5 33q5 5 11 5q15 0 20 -10q5 -12 16 -33t18 -32q3 -4 7 -10.5t4 -7.5q-2 -2 -7 -2z" />
    <glyph glyph-name="otilde" unicode="&#xf5;" 
d="M92 -4q-29 0 -53.5 18t-24.5 49q0 23 15 55t39.5 65t54.5 61.5t59.5 46t53.5 17.5q8 0 17.5 -2.5t13.5 -10.5q20 1 28 -11.5t8 -30.5q0 -27 -15.5 -61t-36.5 -65t-38 -51l6 -1q29 -1 51.5 12t42 33t37.5 38l2 2q3 0 3 -5q0 -2 -1 -3q-14 -20 -36 -40.5t-48 -34t-52 -13.5
h-7.5t-7.5 1q-13 -14 -31 -30t-38.5 -27.5t-41.5 -11.5zM98 11q26 0 50.5 22t40.5 40q-6 3 -15 10.5t-9 15.5q0 14 19 26.5t42 22.5t33 15q10 16 18 37.5t8 40.5q0 11 -4.5 19t-17.5 8q-11 0 -23 -5t-21 -10q-51 -27 -92.5 -74t-57.5 -104q-1 -6 -2.5 -12.5t-1.5 -12.5
q0 -16 8 -27.5t25 -11.5zM321 349q-19 0 -30.5 7.5t-21.5 15t-25 7.5q-16 0 -28 -11.5t-19 -17.5q-7 -2 -7 2q3 12 14.5 25.5t27.5 22.5t30 9q26 0 45 -12t41 -12q10 0 17 5.5t17 17.5q7 0 7 -5q0 -14 -12.5 -26.5t-28.5 -20t-27 -7.5z" />
    <glyph glyph-name="odieresis" unicode="&#xf6;" 
d="M92 -4q-29 0 -53.5 18t-24.5 49q0 23 15 55t39.5 65t54.5 61.5t59.5 46t53.5 17.5q8 0 17.5 -2.5t13.5 -10.5q20 1 28 -11.5t8 -30.5q0 -27 -15.5 -61t-36.5 -65t-38 -51l6 -1q29 -1 51.5 12t42 33t37.5 38l2 2q3 0 3 -5q0 -2 -1 -3q-14 -20 -36 -40.5t-48 -34t-52 -13.5
h-7.5t-7.5 1q-13 -14 -31 -30t-38.5 -27.5t-41.5 -11.5zM98 11q26 0 50.5 22t40.5 40q-6 3 -15 10.5t-9 15.5q0 14 19 26.5t42 22.5t33 15q10 16 18 37.5t8 40.5q0 11 -4.5 19t-17.5 8q-11 0 -23 -5t-21 -10q-51 -27 -92.5 -74t-57.5 -104q-1 -6 -2.5 -12.5t-1.5 -12.5
q0 -16 8 -27.5t25 -11.5zM347 344q-6 0 -16.5 5t-19.5 12.5t-9 13.5q0 8 12 17.5t26.5 16.5t20.5 7q10 0 10 -7q0 -3 -1 -4q-7 -7 -9 -13l-5 -15q-2 -6 -1.5 -19.5t-7.5 -13.5zM233 344q-6 0 -16.5 5t-19.5 12.5t-9 13.5q0 8 12 17.5t26.5 16.5t20.5 7q10 0 10 -7
q0 -3 -1 -4q-7 -7 -9 -13l-5 -15q-2 -6 -1.5 -19.5t-7.5 -13.5z" />
    <glyph glyph-name="divide" unicode="&#xf7;" horiz-adv-x="363" 
d="M252 175q-6 0 -18.5 6t-22.5 14.5t-10 15.5q0 9 14 20t30.5 19.5t23.5 8.5q4 0 7.5 -2.5t3.5 -6.5q0 -3 -1 -4q-12 -15 -16 -33q-1 -4 -1 -13.5t-1.5 -17t-8.5 -7.5zM93 109q-7 0 -14.5 2t-7.5 12q0 6 5 11.5t11 5.5h268q2 0 4.5 -0.5t2.5 -2.5q0 -4 -10.5 -8.5
t-14.5 -5.5q-17 -4 -37.5 -4.5t-39.5 -2.5q-39 -2 -78.5 -3.5t-79.5 -3.5h-9zM145 -24q-6 0 -18 5.5t-22 14t-10 15.5q0 9 13.5 20.5t30 19.5t24.5 8q4 0 7.5 -2t3.5 -7l-1 -4q-11 -14 -17 -32q-1 -4 -0.5 -13.5t-1.5 -17t-9 -7.5z" />
    <glyph glyph-name="oslash" unicode="&#xf8;" 
d="M30 -62q-4 0 -6 5.5t-2 7.5q0 13 9.5 30t16.5 27q-16 9 -25 22.5t-9 32.5q0 23 15 54.5t39.5 65t54 62t59 46t54.5 17.5q8 0 17.5 -2.5t13.5 -10.5l12 -1q2 3 12 14t20 21t12 10q4 0 13.5 -3t9.5 -8q0 -4 -10 -15.5t-21 -23t-15 -15.5q2 -5 2.5 -10.5t0.5 -10.5
q0 -23 -13.5 -56t-36.5 -68t-51 -65t-56.5 -49t-53.5 -19q-16 0 -30 6q-6 -8 -15.5 -22.5t-9.5 -24.5q0 -5 2 -6t2 -3q0 -3 -4.5 -5.5t-6.5 -2.5zM67 35q45 60 92.5 118.5t96.5 114.5q-10 -1 -19 -5.5t-18 -9.5q-49 -26 -92.5 -74t-57.5 -104q-1 -6 -2.5 -12.5t-1.5 -12.5
q0 -4 0.5 -7.5t1.5 -7.5zM99 11q18 0 40.5 15.5t45.5 40.5t43 53t34.5 53.5t18.5 41.5q5 15 5 28q0 5 -2 13q-53 -58 -105.5 -116.5t-102.5 -119.5q9 -9 23 -9z" />
    <glyph glyph-name="ugrave" unicode="&#xf9;" horiz-adv-x="305" 
d="M54 -4q-19 0 -31 14t-12 33q0 31 13.5 64.5t32 64.5t32 55t13.5 34q0 5 -3 6q18 8 34 8q10 0 25 -4.5t15 -17.5q0 -4 -2 -7.5t-4 -6.5q-30 -42 -57 -84t-47 -90q-2 -6 -4.5 -13t-2.5 -14q0 -17 17 -17q15 0 35 21.5t41 54t41.5 68t37 64t25.5 41.5q1 2 6 2q4 0 18.5 -3
t27.5 -7t13 -8q0 -1 -1 -1q-7 -10 -15 -20l-16 -20q-25 -34 -48.5 -71t-40.5 -77q-2 -6 -4 -12.5t-2 -13.5q0 -18 18 -18q15 0 35 15t41 37t40 44.5t32 37.5t15 15q4 0 4 -4q0 -1 -8.5 -11.5t-18 -20.5t-11.5 -13q-18 -21 -44 -50t-55.5 -51.5t-59.5 -22.5q-41 0 -41 42
q0 17 6 32q-9 -14 -23 -31.5t-31 -30.5t-36 -13zM276 321q-16 13 -43 25t-54 21.5t-45 13.5q-19 5 -19 13q0 5 7.5 12.5t17.5 7.5q4 0 10 -2q40 -16 76 -40.5t53 -40.5q2 -2 2 -7.5t-5 -2.5z" />
    <glyph glyph-name="uacute" unicode="&#xfa;" horiz-adv-x="305" 
d="M54 -4q-19 0 -31 14t-12 33q0 31 13.5 64.5t32 64.5t32 55t13.5 34q0 5 -3 6q18 8 34 8q10 0 25 -4.5t15 -17.5q0 -4 -2 -7.5t-4 -6.5q-30 -42 -57 -84t-47 -90q-2 -6 -4.5 -13t-2.5 -14q0 -17 17 -17q15 0 35 21.5t41 54t41.5 68t37 64t25.5 41.5q1 2 6 2q4 0 18.5 -3
t27.5 -7t13 -8q0 -1 -1 -1q-7 -10 -15 -20l-16 -20q-25 -34 -48.5 -71t-40.5 -77q-2 -6 -4 -12.5t-2 -13.5q0 -18 18 -18q15 0 35 15t41 37t40 44.5t32 37.5t15 15q4 0 4 -4q0 -1 -8.5 -11.5t-18 -20.5t-11.5 -13q-18 -21 -44 -50t-55.5 -51.5t-59.5 -22.5q-41 0 -41 42
q0 17 6 32q-9 -14 -23 -31.5t-31 -30.5t-36 -13zM231 320q-3 0 -3 4.5t2 6.5q17 16 53 40.5t76 40.5q6 2 10 2q10 0 17.5 -7.5t7.5 -12.5q0 -8 -19 -13q-17 -4 -44.5 -13.5t-54 -21.5t-43.5 -25q-1 -1 -1.5 -1h-0.5z" />
    <glyph glyph-name="ucircumflex" unicode="&#xfb;" horiz-adv-x="305" 
d="M54 -4q-19 0 -31 14t-12 33q0 31 13.5 64.5t32 64.5t32 55t13.5 34q0 5 -3 6q18 8 34 8q10 0 25 -4.5t15 -17.5q0 -4 -2 -7.5t-4 -6.5q-30 -42 -57 -84t-47 -90q-2 -6 -4.5 -13t-2.5 -14q0 -17 17 -17q15 0 35 21.5t41 54t41.5 68t37 64t25.5 41.5q1 2 6 2q4 0 18.5 -3
t27.5 -7t13 -8q0 -1 -1 -1q-7 -10 -15 -20l-16 -20q-25 -34 -48.5 -71t-40.5 -77q-2 -6 -4 -12.5t-2 -13.5q0 -18 18 -18q15 0 35 15t41 37t40 44.5t32 37.5t15 15q4 0 4 -4q0 -1 -8.5 -11.5t-18 -20.5t-11.5 -13q-18 -21 -44 -50t-55.5 -51.5t-59.5 -22.5q-41 0 -41 42
q0 17 6 32q-9 -14 -23 -31.5t-31 -30.5t-36 -13zM319 316q-4 0 -9 0.5t-10 3.5q-12 4 -26.5 22t-24.5 33q-22 -16 -49 -28t-41 -19q-8 -4 -15 -6.5t-10 -2.5q-5 0 -5 4q0 2 9 6.5t20 11.5q24 15 48.5 32t43.5 33q5 5 11 5q15 0 20 -10q5 -12 16 -33t18 -32q3 -4 7 -10.5
t4 -7.5q-2 -2 -7 -2z" />
    <glyph glyph-name="udieresis" unicode="&#xfc;" horiz-adv-x="305" 
d="M54 -4q-19 0 -31 14t-12 33q0 31 13.5 64.5t32 64.5t32 55t13.5 34q0 5 -3 6q18 8 34 8q10 0 25 -4.5t15 -17.5q0 -4 -2 -7.5t-4 -6.5q-30 -42 -57 -84t-47 -90q-2 -6 -4.5 -13t-2.5 -14q0 -17 17 -17q15 0 35 21.5t41 54t41.5 68t37 64t25.5 41.5q1 2 6 2q4 0 18.5 -3
t27.5 -7t13 -8q0 -1 -1 -1q-7 -10 -15 -20l-16 -20q-25 -34 -48.5 -71t-40.5 -77q-2 -6 -4 -12.5t-2 -13.5q0 -18 18 -18q15 0 35 15t41 37t40 44.5t32 37.5t15 15q4 0 4 -4q0 -1 -8.5 -11.5t-18 -20.5t-11.5 -13q-18 -21 -44 -50t-55.5 -51.5t-59.5 -22.5q-41 0 -41 42
q0 17 6 32q-9 -14 -23 -31.5t-31 -30.5t-36 -13zM312 319q-6 0 -16.5 5t-19.5 12.5t-9 13.5q0 8 12 17.5t26.5 16.5t20.5 7q10 0 10 -7q0 -3 -1 -4q-7 -7 -9 -13l-5 -15q-2 -6 -1.5 -19.5t-7.5 -13.5zM198 319q-6 0 -16.5 5t-19.5 12.5t-9 13.5q0 8 12 17.5t26.5 16.5
t20.5 7q10 0 10 -7q0 -3 -1 -4q-7 -7 -9 -13l-5 -15q-2 -6 -1.5 -19.5t-7.5 -13.5z" />
    <glyph glyph-name="yacute" unicode="&#xfd;" horiz-adv-x="257" 
d="M-21 -158q-19 0 -36 8.5t-24 28.5l9 2q4 -14 14.5 -19.5t23.5 -5.5q25 0 45 11q31 15 61 51t57.5 81.5t50 89t37.5 73.5q-8 -12 -25.5 -36t-38.5 -51.5t-40.5 -48t-31.5 -25.5t-20 -5q-19 0 -31 14t-12 33q0 30 13.5 64t32 65t32 55t13.5 34q0 5 -3 6q18 8 33 8
q10 0 25.5 -4.5t15.5 -17.5q0 -4 -2 -7.5t-4 -6.5q-29 -41 -56.5 -83.5t-47.5 -90.5q-2 -6 -4.5 -12.5t-2.5 -14.5q0 -17 17 -17q11 0 29.5 18.5t40.5 47.5t43 60t37.5 57t23.5 37q5 9 15.5 24.5t23 28.5t23.5 13q9 0 16 -7.5t7 -15.5q0 -12 -12 -12q-25 0 -41 -12t-27 -35
q-20 -45 -34 -96.5t-30 -102.5t-41 -92.5t-67 -66.5t-108 -25zM229 320q-3 0 -3 4.5t2 6.5q17 16 53 40.5t76 40.5q6 2 10 2q10 0 17.5 -7.5t7.5 -12.5q0 -8 -19 -13q-17 -4 -44.5 -13.5t-54 -21.5t-43.5 -25q-1 -1 -1.5 -1h-0.5z" />
    <glyph glyph-name="thorn" unicode="&#xfe;" horiz-adv-x="299" 
d="M-151 -160q-22 0 -41 7.5t-27 31.5l9 2q3 -14 13.5 -19.5t23.5 -5.5q39 0 77 27.5t72.5 74.5t66.5 105t59.5 119.5t51 119t41 103t29.5 70.5q2 4 9.5 1.5t15 -7t7.5 -8.5q0 -7 -6 -23t-8 -23q-24 -62 -46 -110.5t-45.5 -96.5t-53.5 -109l-11 -24q22 34 53 77t67.5 81
t71.5 57q3 2 6 2h6q20 0 37.5 -14.5t17.5 -35.5q0 -7 -2 -13.5t-5 -13.5q-20 -43 -57 -85.5t-81.5 -76.5t-89.5 -52q-5 -1 -11 -3.5t-12 -2.5q-7 0 -15 3.5t-14 7.5q-20 -45 -48.5 -82.5t-67.5 -60.5t-93 -23zM68 22q65 29 119.5 77.5t90.5 109.5q5 8 13 23.5t8 25.5
q0 9 -8 9q-9 0 -24 -8.5t-28.5 -19.5t-20.5 -17q-26 -23 -55 -57.5t-54 -72t-41 -70.5z" />
    <glyph glyph-name="ydieresis" unicode="&#xff;" horiz-adv-x="257" 
d="M-21 -158q-19 0 -36 8.5t-24 28.5l9 2q4 -14 14.5 -19.5t23.5 -5.5q25 0 45 11q31 15 61 51t57.5 81.5t50 89t37.5 73.5q-8 -12 -25.5 -36t-38.5 -51.5t-40.5 -48t-31.5 -25.5t-20 -5q-19 0 -31 14t-12 33q0 30 13.5 64t32 65t32 55t13.5 34q0 5 -3 6q18 8 33 8
q10 0 25.5 -4.5t15.5 -17.5q0 -4 -2 -7.5t-4 -6.5q-29 -41 -56.5 -83.5t-47.5 -90.5q-2 -6 -4.5 -12.5t-2.5 -14.5q0 -17 17 -17q11 0 29.5 18.5t40.5 47.5t43 60t37.5 57t23.5 37q5 9 15.5 24.5t23 28.5t23.5 13q9 0 16 -7.5t7 -15.5q0 -12 -12 -12q-25 0 -41 -12t-27 -35
q-20 -45 -34 -96.5t-30 -102.5t-41 -92.5t-67 -66.5t-108 -25zM310 319q-6 0 -16.5 5t-19.5 12.5t-9 13.5q0 8 12 17.5t26.5 16.5t20.5 7q10 0 10 -7q0 -3 -1 -4q-7 -7 -9 -13l-5 -15q-2 -6 -1.5 -19.5t-7.5 -13.5zM196 319q-6 0 -16.5 5t-19.5 12.5t-9 13.5q0 8 12 17.5
t26.5 16.5t20.5 7q10 0 10 -7q0 -3 -1 -4q-7 -7 -9 -13l-5 -15q-2 -6 -1.5 -19.5t-7.5 -13.5z" />
    <glyph glyph-name="Amacron" unicode="&#x100;" horiz-adv-x="525" 
d="M10 -24q-4 0 -4 4q0 8 18.5 34t47 60t58 68t53 59.5t30.5 33.5q-24 -3 -53.5 -10t-56 -20t-40.5 -35q-8 -11 -8 -25t7.5 -20t7.5 -11q0 -2 -6 -2q-19 0 -30.5 19.5t-11.5 36.5q0 11 3 20q11 34 38 54.5t63 31t72.5 13.5t66.5 3q49 50 101 99t110 88q21 14 46 23t51 9
q28 0 49 -14t21 -45q0 -23 -10.5 -45.5t-22.5 -41.5q-7 -11 -23.5 -39t-38.5 -65t-45 -77.5t-42.5 -77t-31.5 -63t-12 -36.5q0 -3 1 -5q-12 -6 -28 -6q-19 0 -23.5 11t-4.5 28q0 15 9.5 38.5t23 49t27 48.5t22.5 38q-7 10 -24.5 16.5t-40 10.5t-42.5 6t-31 2q-16 0 -32 -1
t-32 -3q-38 -40 -75 -82t-72 -85q-17 -20 -34 -42t-35 -42l-7 -7t-9 -4zM452 220q7 12 21.5 36.5t32 54t33.5 59t27.5 53t13.5 33.5q5 20 -8 25t-23 5q-16 0 -35 -8t-32 -17q-52 -37 -100 -81.5t-92 -90.5q16 -1 41.5 -4.5t52 -11t46 -20.5t22.5 -33zM527 575q-7 0 -15 2
t-8 11q0 6 5.5 11.5t11.5 5.5l171 1q1 0 3.5 -0.5t2.5 -2.5q0 -7 -22.5 -12.5t-54 -9t-58.5 -5t-36 -1.5z" />
    <glyph glyph-name="amacron" unicode="&#x101;" horiz-adv-x="341" 
d="M218 -4q-19 0 -32 12t-13 32q0 21 11.5 47.5t20.5 44.5q-12 -15 -31 -37.5t-41 -44.5t-45 -36.5t-44 -14.5q-22 0 -31.5 16t-9.5 35q0 12 3 24q7 26 27 54.5t46.5 55t54.5 49.5t50 38q10 7 21.5 12.5t24.5 5.5q16 0 29.5 -8.5t24.5 -19.5q3 5 4.5 8t7.5 3q4 0 18.5 -3
t27.5 -7t13 -8q0 -1 -1 -1q-7 -10 -15 -20l-16 -20q-25 -34 -48.5 -71t-40.5 -77q-2 -6 -4 -12.5t-2 -13.5q0 -18 18 -18q14 0 34 15t41.5 37t40.5 44.5t32 37.5t15 15q3 0 3 -4q0 -2 -15 -19.5t-36 -40.5t-38 -41.5t-22 -23.5q-16 -15 -38 -30t-45 -15zM55 22q8 0 16.5 4.5
t14.5 7.5q39 23 74 60t65 79t54 80q-2 1 -7 1q-10 0 -21 -7q-57 -29 -108.5 -78.5t-85.5 -105.5q-4 -6 -7.5 -14.5t-3.5 -16.5q0 -10 9 -10zM232 336q-7 0 -15 2t-8 11q0 6 5.5 11.5t11.5 5.5l161 1q1 0 3.5 -0.5t2.5 -2.5q0 -7 -21 -12.5t-50.5 -9t-55 -5t-34.5 -1.5z" />
    <glyph glyph-name="Abreve" unicode="&#x102;" horiz-adv-x="525" 
d="M10 -24q-4 0 -4 4q0 8 18.5 34t47 60t58 68t53 59.5t30.5 33.5q-24 -3 -53.5 -10t-56 -20t-40.5 -35q-8 -11 -8 -25t7.5 -20t7.5 -11q0 -2 -6 -2q-19 0 -30.5 19.5t-11.5 36.5q0 11 3 20q11 34 38 54.5t63 31t72.5 13.5t66.5 3q49 50 101 99t110 88q21 14 46 23t51 9
q28 0 49 -14t21 -45q0 -23 -10.5 -45.5t-22.5 -41.5q-7 -11 -23.5 -39t-38.5 -65t-45 -77.5t-42.5 -77t-31.5 -63t-12 -36.5q0 -3 1 -5q-12 -6 -28 -6q-19 0 -23.5 11t-4.5 28q0 15 9.5 38.5t23 49t27 48.5t22.5 38q-7 10 -24.5 16.5t-40 10.5t-42.5 6t-31 2q-16 0 -32 -1
t-32 -3q-38 -40 -75 -82t-72 -85q-17 -20 -34 -42t-35 -42l-7 -7t-9 -4zM452 220q7 12 21.5 36.5t32 54t33.5 59t27.5 53t13.5 33.5q5 20 -8 25t-23 5q-16 0 -35 -8t-32 -17q-52 -37 -100 -81.5t-92 -90.5q16 -1 41.5 -4.5t52 -11t46 -20.5t22.5 -33zM627 561
q-21 0 -39.5 13t-19.5 36q0 5 8 13t16.5 13t8.5 0q1 -21 19.5 -33t38.5 -12q19 0 42 8t43 18.5t30 16.5q5 3 8 3q4 0 5 -2.5t-4 -6.5q-15 -12 -43 -28t-58.5 -27.5t-54.5 -11.5z" />
    <glyph glyph-name="abreve" unicode="&#x103;" horiz-adv-x="341" 
d="M218 -4q-19 0 -32 12t-13 32q0 21 11.5 47.5t20.5 44.5q-12 -15 -31 -37.5t-41 -44.5t-45 -36.5t-44 -14.5q-22 0 -31.5 16t-9.5 35q0 12 3 24q7 26 27 54.5t46.5 55t54.5 49.5t50 38q10 7 21.5 12.5t24.5 5.5q16 0 29.5 -8.5t24.5 -19.5q3 5 4.5 8t7.5 3q4 0 18.5 -3
t27.5 -7t13 -8q0 -1 -1 -1q-7 -10 -15 -20l-16 -20q-25 -34 -48.5 -71t-40.5 -77q-2 -6 -4 -12.5t-2 -13.5q0 -18 18 -18q14 0 34 15t41.5 37t40.5 44.5t32 37.5t15 15q3 0 3 -4q0 -2 -15 -19.5t-36 -40.5t-38 -41.5t-22 -23.5q-16 -15 -38 -30t-45 -15zM55 22q8 0 16.5 4.5
t14.5 7.5q39 23 74 60t65 79t54 80q-2 1 -7 1q-10 0 -21 -7q-57 -29 -108.5 -78.5t-85.5 -105.5q-4 -6 -7.5 -14.5t-3.5 -16.5q0 -10 9 -10zM319 319q-21 0 -35 9.5t-15 32.5q0 5 8 13t16.5 13t8.5 0q1 -21 15 -29.5t34 -8.5q28 0 58.5 11t45.5 20q5 3 8 3q4 0 5 -2.5
t-4 -6.5q-15 -12 -40.5 -24.5t-53 -21.5t-51.5 -9z" />
    <glyph glyph-name="Aogonek" unicode="&#x104;" horiz-adv-x="525" 
d="M10 -24q-4 0 -4 4q0 8 18.5 34t47 60t58 68t53 59.5t30.5 33.5q-24 -3 -53.5 -10t-56 -20t-40.5 -35q-8 -11 -8 -25t7.5 -20t7.5 -11q0 -2 -6 -2q-19 0 -30.5 19.5t-11.5 36.5q0 11 3 20q11 34 38 54.5t63 31t72.5 13.5t66.5 3q49 50 101 99t110 88q21 14 46 23t51 9
q28 0 49 -14t21 -45q0 -23 -10.5 -45.5t-22.5 -41.5q-7 -11 -23.5 -39t-38.5 -65t-45 -77.5t-42.5 -77t-31.5 -63t-12 -36.5q0 -3 1 -5q-12 -6 -28 -6q-19 0 -23.5 11t-4.5 28q0 15 9.5 38.5t23 49t27 48.5t22.5 38q-7 10 -24.5 16.5t-40 10.5t-42.5 6t-31 2q-16 0 -32 -1
t-32 -3q-38 -40 -75 -82t-72 -85q-17 -20 -34 -42t-35 -42l-7 -7t-9 -4zM452 220q7 12 21.5 36.5t32 54t33.5 59t27.5 53t13.5 33.5q5 20 -8 25t-23 5q-16 0 -35 -8t-32 -17q-52 -37 -100 -81.5t-92 -90.5q16 -1 41.5 -4.5t52 -11t46 -20.5t22.5 -33zM334 -125
q-13 0 -25 6.5t-13 25.5q1 18 16.5 37.5t37 36.5t39.5 27q6 3 9 3q4 0 4 -3q0 -4 -8 -9q-13 -11 -28 -28t-25.5 -34t-11.5 -28q0 -18 16 -18q13 0 26 9.5t25 20.5v0.5t1 0.5t2 -3.5t-1 -5.5q-12 -16 -26.5 -27t-37.5 -11z" />
    <glyph glyph-name="aogonek" unicode="&#x105;" horiz-adv-x="341" 
d="M218 -4q-19 0 -32 12t-13 32q0 21 11.5 47.5t20.5 44.5q-12 -15 -31 -37.5t-41 -44.5t-45 -36.5t-44 -14.5q-22 0 -31.5 16t-9.5 35q0 12 3 24q7 26 27 54.5t46.5 55t54.5 49.5t50 38q10 7 21.5 12.5t24.5 5.5q16 0 29.5 -8.5t24.5 -19.5q3 5 4.5 8t7.5 3q4 0 18.5 -3
t27.5 -7t13 -8q0 -1 -1 -1q-7 -10 -15 -20l-16 -20q-25 -34 -48.5 -71t-40.5 -77q-2 -6 -4 -12.5t-2 -13.5q0 -18 18 -18q14 0 34 15t41.5 37t40.5 44.5t32 37.5t15 15q3 0 3 -4q0 -2 -15 -19.5t-36 -40.5t-38 -41.5t-22 -23.5q-16 -15 -38 -30t-45 -15zM55 22q8 0 16.5 4.5
t14.5 7.5q39 23 74 60t65 79t54 80q-2 1 -7 1q-10 0 -21 -7q-57 -29 -108.5 -78.5t-85.5 -105.5q-4 -6 -7.5 -14.5t-3.5 -16.5q0 -10 9 -10zM168 -125q-13 0 -25 6.5t-13 25.5q1 18 16.5 37.5t37 36.5t39.5 27q6 3 9 3q4 0 4 -3q0 -4 -8 -9q-13 -11 -28 -28t-25.5 -34
t-11.5 -28q0 -18 16 -18q13 0 26 9.5t25 20.5v0.5t1 0.5t2 -3.5t-1 -5.5q-12 -16 -26.5 -27t-37.5 -11z" />
    <glyph glyph-name="Cacute" unicode="&#x106;" horiz-adv-x="579" 
d="M222 -36q-54 0 -100.5 20t-74.5 59.5t-28 97.5q0 61 29 116t77.5 100.5t108 79t121.5 51.5t117 18q25 0 51.5 -8t45 -26t18.5 -48q0 -34 -25.5 -64t-52.5 -49l-7.5 -5t-8.5 -3q-5 0 -5 6q0 8 11 22t22 34.5t11 47.5q0 40 -28 55t-63 15q-66 0 -129.5 -25.5t-116 -69.5
t-86.5 -101q-16 -28 -27.5 -60t-11.5 -65q0 -54 29 -84.5t73 -43t90 -12.5q78 0 142.5 19.5t123.5 72.5q2 2 4 2q3 0 3 -6q0 -4 -2 -5q-32 -43 -85.5 -74.5t-113 -49t-112.5 -17.5zM458 557q-3 0 -2.5 5t2.5 6q19 14 57 35.5t79 34.5l10 1q10 -1 17 -8t7 -12q-1 -3 -5 -6.5
t-15 -5.5q-18 -2 -46 -9.5t-56 -18t-46 -21.5q-1 0 -1 -0.5t-1 -0.5z" />
    <glyph glyph-name="cacute" unicode="&#x107;" horiz-adv-x="233" 
d="M90 -1q-27 0 -53 14t-26 46q0 4 0.5 7.5t1.5 7.5q8 35 31 70.5t55 67t67.5 56.5t66.5 40q5 2 12 5.5t11 3.5q8 0 16.5 -12.5t14.5 -27t6 -21.5q0 -6 -2 -8.5t-7 -4.5q-54 -22 -75 -74q-1 -3 -4 -3q-4 0 -4 4q0 12 8.5 30t20.5 34t20 23q-57 -27 -105.5 -70t-71.5 -103
q-8 -19 -8 -38q0 -13 6 -22.5t21 -9.5q9 0 18.5 3.5t17.5 7.5q48 24 86 57.5t74 72.5q2 2 3 2t1 -2q0 -3 -1.5 -6.5t-3.5 -5.5q-26 -33 -62 -68t-71 -58q-28 -18 -64 -18zM256 350q-3 0 -3 4.5t2 6.5q17 16 53 40.5t76 40.5q6 2 10 2q10 0 17.5 -7.5t7.5 -12.5q0 -8 -19 -13
q-17 -4 -44.5 -13.5t-54 -21.5t-43.5 -25q-1 -1 -1.5 -1h-0.5z" />
    <glyph glyph-name="Ccircumflex" unicode="&#x108;" horiz-adv-x="579" 
d="M222 -36q-54 0 -100.5 20t-74.5 59.5t-28 97.5q0 61 29 116t77.5 100.5t108 79t121.5 51.5t117 18q25 0 51.5 -8t45 -26t18.5 -48q0 -34 -25.5 -64t-52.5 -49l-7.5 -5t-8.5 -3q-5 0 -5 6q0 8 11 22t22 34.5t11 47.5q0 40 -28 55t-63 15q-66 0 -129.5 -25.5t-116 -69.5
t-86.5 -101q-16 -28 -27.5 -60t-11.5 -65q0 -54 29 -84.5t73 -43t90 -12.5q78 0 142.5 19.5t123.5 72.5q2 2 4 2q3 0 3 -6q0 -4 -2 -5q-32 -43 -85.5 -74.5t-113 -49t-112.5 -17.5zM381 556q-5 0 -5 4q0 2 1.5 5t8.5 6q5 3 22.5 12.5t38 21t38 21t22.5 12.5q5 4 11 5
q2 0 3.5 0.5t2.5 0.5q7 0 11 -3.5t8 -7.5q11 -12 22.5 -25.5t23.5 -27.5q4 -4 9 -10.5t5 -7.5q-2 -2 -7 -2q-4 0 -9 0.5t-10 3.5q-12 4 -34 17t-37 26q-25 -11 -53 -22.5t-47 -19.5q-8 -3 -15 -6t-10 -3z" />
    <glyph glyph-name="ccircumflex" unicode="&#x109;" horiz-adv-x="233" 
d="M90 -1q-27 0 -53 14t-26 46q0 4 0.5 7.5t1.5 7.5q8 35 31 70.5t55 67t67.5 56.5t66.5 40q5 2 12 5.5t11 3.5q8 0 16.5 -12.5t14.5 -27t6 -21.5q0 -6 -2 -8.5t-7 -4.5q-54 -22 -75 -74q-1 -3 -4 -3q-4 0 -4 4q0 12 8.5 30t20.5 34t20 23q-57 -27 -105.5 -70t-71.5 -103
q-8 -19 -8 -38q0 -13 6 -22.5t21 -9.5q9 0 18.5 3.5t17.5 7.5q48 24 86 57.5t74 72.5q2 2 3 2t1 -2q0 -3 -1.5 -6.5t-3.5 -5.5q-26 -33 -62 -68t-71 -58q-28 -18 -64 -18zM344 346q-4 0 -9 0.5t-10 3.5q-12 4 -26.5 22t-24.5 33q-22 -16 -49 -28t-41 -19q-8 -4 -15 -6.5
t-10 -2.5q-5 0 -5 4q0 2 9 6.5t20 11.5q24 15 48.5 32t43.5 33q5 5 11 5q15 0 20 -10q5 -12 16 -33t18 -32q3 -4 7 -10.5t4 -7.5q-2 -2 -7 -2z" />
    <glyph glyph-name="Cdotaccent" unicode="&#x10a;" horiz-adv-x="579" 
d="M222 -36q-54 0 -100.5 20t-74.5 59.5t-28 97.5q0 61 29 116t77.5 100.5t108 79t121.5 51.5t117 18q25 0 51.5 -8t45 -26t18.5 -48q0 -34 -25.5 -64t-52.5 -49l-7.5 -5t-8.5 -3q-5 0 -5 6q0 8 11 22t22 34.5t11 47.5q0 40 -28 55t-63 15q-66 0 -129.5 -25.5t-116 -69.5
t-86.5 -101q-16 -28 -27.5 -60t-11.5 -65q0 -54 29 -84.5t73 -43t90 -12.5q78 0 142.5 19.5t123.5 72.5q2 2 4 2q3 0 3 -6q0 -4 -2 -5q-32 -43 -85.5 -74.5t-113 -49t-112.5 -17.5zM499 556q-6 0 -16.5 5t-19.5 12.5t-9 13.5q0 8 12 17.5t26.5 16.5t20.5 7q10 0 10 -7
q0 -3 -1 -4q-7 -7 -9 -13l-5 -15q-2 -6 -1.5 -19.5t-7.5 -13.5z" />
    <glyph glyph-name="cdotaccent" unicode="&#x10b;" horiz-adv-x="233" 
d="M90 -1q-27 0 -53 14t-26 46q0 4 0.5 7.5t1.5 7.5q8 35 31 70.5t55 67t67.5 56.5t66.5 40q5 2 12 5.5t11 3.5q8 0 16.5 -12.5t14.5 -27t6 -21.5q0 -6 -2 -8.5t-7 -4.5q-54 -22 -75 -74q-1 -3 -4 -3q-4 0 -4 4q0 12 8.5 30t20.5 34t20 23q-57 -27 -105.5 -70t-71.5 -103
q-8 -19 -8 -38q0 -13 6 -22.5t21 -9.5q9 0 18.5 3.5t17.5 7.5q48 24 86 57.5t74 72.5q2 2 3 2t1 -2q0 -3 -1.5 -6.5t-3.5 -5.5q-26 -33 -62 -68t-71 -58q-28 -18 -64 -18zM296 349q-6 0 -16.5 5t-19.5 12.5t-9 13.5q0 8 12 17.5t26.5 16.5t20.5 7q10 0 10 -7q0 -3 -1 -4
q-7 -7 -9 -13l-5 -15q-2 -6 -1.5 -19.5t-7.5 -13.5z" />
    <glyph glyph-name="Ccaron" unicode="&#x10c;" horiz-adv-x="579" 
d="M222 -36q-54 0 -100.5 20t-74.5 59.5t-28 97.5q0 61 29 116t77.5 100.5t108 79t121.5 51.5t117 18q25 0 51.5 -8t45 -26t18.5 -48q0 -34 -25.5 -64t-52.5 -49l-7.5 -5t-8.5 -3q-5 0 -5 6q0 8 11 22t22 34.5t11 47.5q0 40 -28 55t-63 15q-66 0 -129.5 -25.5t-116 -69.5
t-86.5 -101q-16 -28 -27.5 -60t-11.5 -65q0 -54 29 -84.5t73 -43t90 -12.5q78 0 142.5 19.5t123.5 72.5q2 2 4 2q3 0 3 -6q0 -4 -2 -5q-32 -43 -85.5 -74.5t-113 -49t-112.5 -17.5zM509 556q-7 0 -11 3.5t-8 7.5q-11 12 -22.5 26t-23.5 27q-4 5 -9 11t-5 7q2 2 7 2
q4 0 9 -0.5t10 -3.5q12 -4 34 -17t37 -26q25 11 53 23t47 19q8 3 15 6t10 3q5 0 5 -4q0 -1 -1.5 -4.5t-8.5 -6.5q-5 -3 -22.5 -12.5t-38 -21t-38 -21t-22.5 -12.5q-5 -4 -11 -5q-1 0 -2.5 -0.5t-3.5 -0.5z" />
    <glyph glyph-name="ccaron" unicode="&#x10d;" horiz-adv-x="233" 
d="M90 -1q-27 0 -53 14t-26 46q0 4 0.5 7.5t1.5 7.5q8 35 31 70.5t55 67t67.5 56.5t66.5 40q5 2 12 5.5t11 3.5q8 0 16.5 -12.5t14.5 -27t6 -21.5q0 -6 -2 -8.5t-7 -4.5q-54 -22 -75 -74q-1 -3 -4 -3q-4 0 -4 4q0 12 8.5 30t20.5 34t20 23q-57 -27 -105.5 -70t-71.5 -103
q-8 -19 -8 -38q0 -13 6 -22.5t21 -9.5q9 0 18.5 3.5t17.5 7.5q48 24 86 57.5t74 72.5q2 2 3 2t1 -2q0 -3 -1.5 -6.5t-3.5 -5.5q-26 -33 -62 -68t-71 -58q-28 -18 -64 -18zM273 346q-15 0 -20 10q-5 12 -15.5 33t-18.5 32q-3 5 -7 11t-4 7q2 2 7 2q4 0 9 -0.5t10 -3.5
q12 -4 26.5 -22t24.5 -33q23 16 49.5 28t40.5 19q8 4 15 6.5t10 2.5q5 0 5 -4q0 -1 -9 -6t-20 -12q-24 -15 -48.5 -32t-43.5 -33q-5 -5 -11 -5z" />
    <glyph glyph-name="Dcaron" unicode="&#x10e;" horiz-adv-x="638" 
d="M178 -27q-18 0 -43 1t-49.5 6t-41 16t-16.5 30q0 12 6 25q14 29 37 69t50 83.5t53.5 84t49 70t35.5 41.5q4 3 9 4t9 1q5 0 16.5 -3t11.5 -11q0 -3 -4 -7q-39 -49 -77 -100.5t-76 -102.5q-21 -30 -43 -60t-42 -62q-7 -10 -7 -20q0 -13 13.5 -22.5t47.5 -9.5q46 0 107.5 12
t125.5 35t120.5 57t94 78t44.5 98q1 3 1 6v6q0 46 -28 75.5t-70.5 46t-87.5 23.5t-80 7q-58 0 -112.5 -14t-109.5 -32q-4 -1 -7.5 -2t-8.5 -1q-12 0 -18 8t-6 19q0 25 22 34q9 4 20 6t21 5q53 12 106.5 20t106.5 8q45 0 91.5 -9t87 -31t66.5 -61q37 -54 37 -117
q0 -73 -40.5 -131t-99.5 -96q-43 -28 -98.5 -46.5t-114 -27.5t-109.5 -9zM525 527q-7 0 -11 3.5t-8 7.5q-11 12 -22.5 26t-23.5 27q-4 5 -9 11t-5 7q2 2 7 2q4 0 9 -0.5t10 -3.5q12 -4 34 -17t37 -26q25 11 53 23t47 19q8 3 15 6t10 3q5 0 5 -4q0 -1 -1.5 -4.5t-8.5 -6.5
q-5 -3 -22.5 -12.5t-38 -21t-38 -21t-22.5 -12.5q-5 -4 -11 -5q-1 0 -2.5 -0.5t-3.5 -0.5z" />
    <glyph glyph-name="dcaron" unicode="&#x10f;" horiz-adv-x="329" 
d="M207 -4q-17 0 -31.5 10t-14.5 29q0 12 6.5 31t15.5 37.5t14 29.5q-20 -28 -43.5 -54t-49.5 -49q-10 -7 -26.5 -20t-29.5 -13q-20 0 -36.5 15t-16.5 36q0 14 6 26q16 33 44.5 69.5t64.5 70.5t74 61t72 40q6 2 10 2q10 0 14.5 -10t8.5 -17q19 29 38 57l38 56
q9 13 18.5 27.5t19.5 25.5q1 2 3 1.5t3 -0.5q4 0 18.5 -3t27.5 -6.5t13 -7.5q0 -1 -1 -2q-10 -14 -21 -28l-22 -28q-33 -45 -64.5 -92t-62.5 -95q-19 -31 -38.5 -63t-34.5 -67q-7 -14 -7 -26q0 -18 17 -18q15 0 35 15t41.5 37t40.5 44.5t31.5 37.5t15.5 15t3 -4
q0 -2 -15 -19.5t-36 -40.5t-38 -41.5t-22 -23.5q-16 -15 -38 -30t-45 -15zM45 24q8 0 18 4.5t16 8.5q25 14 51.5 37.5t50.5 50.5t39 50q14 21 26.5 43.5t25.5 43.5q-67 -29 -123 -78.5t-94 -112.5q-4 -7 -10.5 -19.5t-6.5 -20.5q0 -7 7 -7zM494 385q-4 0 -5 2.5t-1 3.5
q0 3 2 7q16 16 27 42.5t11 49.5q0 6 -1 12t-1 12q0 11 8 11q6 0 16.5 -3.5t19.5 -9.5t9 -14q0 -5 -11.5 -23t-27 -39t-29 -36t-17.5 -15z" />
    <glyph glyph-name="Dcroat" unicode="&#x110;" horiz-adv-x="638" 
d="M178 -27q-18 0 -43 1t-49.5 6t-41 16t-16.5 30q0 12 6 25q14 28 35.5 66t46.5 79q-18 -4 -36 -7.5t-37 -6.5l-8 -2q-1 0 -3.5 -0.5t-4.5 -0.5q-6 0 -11 2t-6 9v2q0 5 4.5 10.5t9.5 6.5l112 18q25 39 48.5 74.5t43.5 61.5t31 36q4 3 9 4t9 1q5 0 16.5 -3t11.5 -11
q0 -3 -4 -7q-57 -72 -111 -147l40 6l59 10h4t3 -2q1 -4 -9 -10t-13 -8q-17 -7 -37 -10.5t-38 -8.5l-31 -6l-20 -27q-22 -30 -43.5 -60t-41.5 -62q-7 -10 -7 -20q0 -13 13.5 -22.5t47.5 -9.5q46 0 107.5 12t125.5 35t120.5 57t94 78t44.5 98q1 3 1 6v6q0 46 -28 75.5
t-70.5 46t-87.5 23.5t-80 7q-58 0 -112.5 -14t-109.5 -32q-4 -1 -7.5 -2t-8.5 -1q-12 0 -18 8t-6 19q0 25 22 34q9 4 20 6t21 5q53 12 106.5 20t106.5 8q45 0 91.5 -9t87 -31t66.5 -61q37 -54 37 -117q0 -73 -40.5 -131t-99.5 -96q-43 -28 -98.5 -46.5t-114 -27.5t-109.5 -9
z" />
    <glyph glyph-name="dcroat" unicode="&#x111;" horiz-adv-x="329" 
d="M207 -4q-17 0 -31.5 10t-14.5 29q0 12 6.5 31t15.5 37.5t14 29.5q-20 -28 -43.5 -54t-49.5 -49q-10 -7 -26.5 -20t-29.5 -13q-20 0 -36.5 15t-16.5 36q0 14 6 26q16 33 44.5 69.5t64.5 70.5t74 61t72 40q6 2 10 2q10 0 14.5 -10t8.5 -17q19 29 38 57l38 56
q9 13 18.5 27.5t19.5 25.5q1 2 3 1.5t3 -0.5q4 0 18.5 -3t27.5 -6.5t13 -7.5q0 -1 -1 -2q-10 -14 -21 -28l-22 -28q-33 -45 -64.5 -92t-62.5 -95q-19 -31 -38.5 -63t-34.5 -67q-7 -14 -7 -26q0 -18 17 -18q15 0 35 15t41.5 37t40.5 44.5t31.5 37.5t15.5 15t3 -4
q0 -2 -15 -19.5t-36 -40.5t-38 -41.5t-22 -23.5q-16 -15 -38 -30t-45 -15zM45 24q8 0 18 4.5t16 8.5q25 14 51.5 37.5t50.5 50.5t39 50q14 21 26.5 43.5t25.5 43.5q-67 -29 -123 -78.5t-94 -112.5q-4 -7 -10.5 -19.5t-6.5 -20.5q0 -7 7 -7zM270 350q-7 0 -15 2t-8 11
q0 6 5.5 11.5t11.5 5.5l201 1q1 0 3.5 -0.5t2.5 -2.5q0 -6 -18 -10.5t-45.5 -8t-56.5 -5.5t-51.5 -3t-29.5 -1z" />
    <glyph glyph-name="Emacron" unicode="&#x112;" horiz-adv-x="505" 
d="M157 -23q-14 0 -37 1t-46 6t-39 16.5t-16 32.5q0 17 15 49.5t39.5 73.5t54 85t58 84.5t52 72t35.5 47.5q-10 -2 -34.5 -7t-51.5 -13.5t-46 -20t-19 -26.5q0 -5 1 -7q2 -2 2 -4q0 -7 -8 -7q-7 0 -9.5 11.5t-2.5 16.5q0 23 18.5 41.5t43 32t42.5 19.5q27 10 56.5 15t57.5 9
q6 6 10.5 10t13.5 4q7 0 15 -2.5t12 -7.5q11 0 22.5 0.5t21.5 0.5q28 0 57 -3.5t49.5 -19t20.5 -51.5q0 -8 -3 -20.5t-9.5 -22t-16.5 -9.5q-4 0 -4 1q0 2 6 10t6 18q0 15 -15.5 24t-37.5 12.5t-42 4.5t-30 1q-34 0 -67 -3q-33 -43 -65 -86.5t-64 -86.5q58 0 115.5 -0.5
t115.5 -0.5q5 0 5 -4q0 -9 -9.5 -13.5t-16.5 -5.5q-13 -2 -26.5 -2.5t-27.5 -1.5q-25 -1 -56 -3t-61.5 -6t-53.5 -13q-14 -5 -32.5 -27t-36.5 -51.5t-30 -56.5t-12 -42q0 -22 16.5 -32.5t39 -13.5t38.5 -3q26 0 62 5t74.5 14t73 19.5t58.5 22.5q4 2 7 2q8 0 8 -10
q0 -19 -21 -31.5t-37 -17.5q-30 -9 -74.5 -15.5t-88.5 -10.5t-76 -4zM349 576q-7 0 -15 2t-8 11q0 6 5.5 11.5t11.5 5.5l171 1q1 0 3.5 -0.5t2.5 -2.5q0 -7 -22.5 -12.5t-54 -9t-58.5 -5t-36 -1.5z" />
    <glyph glyph-name="emacron" unicode="&#x113;" horiz-adv-x="233" 
d="M91 -1q-28 0 -54 14t-26 46q0 4 0.5 7.5t1.5 7.5q8 34 29.5 67t52 62t64 51.5t64.5 34.5q3 2 6 3t7 1q9 0 15 -9.5t9 -21.5t3 -19q0 -18 -10.5 -36.5t-23.5 -30.5q6 0 12 -0.5t12 -0.5q2 0 2 -2q0 -1 -2 -2l-4 -2l-30 -3q-28 -3 -58 -9t-57 -16q-13 -18 -26 -45t-13 -50
q0 -13 6 -22.5t21 -9.5q9 0 18.5 3.5t17.5 7.5q48 24 86 57.5t74 72.5q2 2 3 2q2 0 2 -2q0 -3 -2 -6.5t-4 -5.5q-27 -34 -62 -68.5t-71 -57.5q-28 -18 -63 -18zM129 171q23 2 46 3.5t46 1.5q6 8 10.5 21.5t4.5 23.5q0 5 -2 10.5t-9 5.5h-3q-12 -4 -30.5 -16t-35.5 -26
t-27 -24zM162 336q-7 0 -15 2t-8 11q0 6 5.5 11.5t11.5 5.5l161 1q1 0 3.5 -0.5t2.5 -2.5q0 -7 -21 -12.5t-50.5 -9t-55 -5t-34.5 -1.5z" />
    <glyph glyph-name="Ebreve" unicode="&#x114;" horiz-adv-x="505" 
d="M157 -23q-14 0 -37 1t-46 6t-39 16.5t-16 32.5q0 17 15 49.5t39.5 73.5t54 85t58 84.5t52 72t35.5 47.5q-10 -2 -34.5 -7t-51.5 -13.5t-46 -20t-19 -26.5q0 -5 1 -7q2 -2 2 -4q0 -7 -8 -7q-7 0 -9.5 11.5t-2.5 16.5q0 23 18.5 41.5t43 32t42.5 19.5q27 10 56.5 15t57.5 9
q6 6 10.5 10t13.5 4q7 0 15 -2.5t12 -7.5q11 0 22.5 0.5t21.5 0.5q28 0 57 -3.5t49.5 -19t20.5 -51.5q0 -8 -3 -20.5t-9.5 -22t-16.5 -9.5q-4 0 -4 1q0 2 6 10t6 18q0 15 -15.5 24t-37.5 12.5t-42 4.5t-30 1q-34 0 -67 -3q-33 -43 -65 -86.5t-64 -86.5q58 0 115.5 -0.5
t115.5 -0.5q5 0 5 -4q0 -9 -9.5 -13.5t-16.5 -5.5q-13 -2 -26.5 -2.5t-27.5 -1.5q-25 -1 -56 -3t-61.5 -6t-53.5 -13q-14 -5 -32.5 -27t-36.5 -51.5t-30 -56.5t-12 -42q0 -22 16.5 -32.5t39 -13.5t38.5 -3q26 0 62 5t74.5 14t73 19.5t58.5 22.5q4 2 7 2q8 0 8 -10
q0 -19 -21 -31.5t-37 -17.5q-30 -9 -74.5 -15.5t-88.5 -10.5t-76 -4zM449 562q-21 0 -39.5 13t-19.5 36q0 5 8 13t16.5 13t8.5 0q1 -21 19.5 -33t38.5 -12q19 0 42 8t43 18.5t30 16.5q5 3 8 3q4 0 5 -2.5t-4 -6.5q-15 -12 -43 -28t-58.5 -27.5t-54.5 -11.5z" />
    <glyph glyph-name="ebreve" unicode="&#x115;" horiz-adv-x="233" 
d="M91 -1q-28 0 -54 14t-26 46q0 4 0.5 7.5t1.5 7.5q8 34 29.5 67t52 62t64 51.5t64.5 34.5q3 2 6 3t7 1q9 0 15 -9.5t9 -21.5t3 -19q0 -18 -10.5 -36.5t-23.5 -30.5q6 0 12 -0.5t12 -0.5q2 0 2 -2q0 -1 -2 -2l-4 -2l-30 -3q-28 -3 -58 -9t-57 -16q-13 -18 -26 -45t-13 -50
q0 -13 6 -22.5t21 -9.5q9 0 18.5 3.5t17.5 7.5q48 24 86 57.5t74 72.5q2 2 3 2q2 0 2 -2q0 -3 -2 -6.5t-4 -5.5q-27 -34 -62 -68.5t-71 -57.5q-28 -18 -63 -18zM129 171q23 2 46 3.5t46 1.5q6 8 10.5 21.5t4.5 23.5q0 5 -2 10.5t-9 5.5h-3q-12 -4 -30.5 -16t-35.5 -26
t-27 -24zM249 319q-21 0 -35 9.5t-15 32.5q0 5 8 13t16.5 13t8.5 0q1 -21 15 -29.5t34 -8.5q28 0 58.5 11t45.5 20q5 3 8 3q4 0 5 -2.5t-4 -6.5q-15 -12 -40.5 -24.5t-53 -21.5t-51.5 -9z" />
    <glyph glyph-name="Edotaccent" unicode="&#x116;" horiz-adv-x="505" 
d="M157 -23q-14 0 -37 1t-46 6t-39 16.5t-16 32.5q0 17 15 49.5t39.5 73.5t54 85t58 84.5t52 72t35.5 47.5q-10 -2 -34.5 -7t-51.5 -13.5t-46 -20t-19 -26.5q0 -5 1 -7q2 -2 2 -4q0 -7 -8 -7q-7 0 -9.5 11.5t-2.5 16.5q0 23 18.5 41.5t43 32t42.5 19.5q27 10 56.5 15t57.5 9
q6 6 10.5 10t13.5 4q7 0 15 -2.5t12 -7.5q11 0 22.5 0.5t21.5 0.5q28 0 57 -3.5t49.5 -19t20.5 -51.5q0 -8 -3 -20.5t-9.5 -22t-16.5 -9.5q-4 0 -4 1q0 2 6 10t6 18q0 15 -15.5 24t-37.5 12.5t-42 4.5t-30 1q-34 0 -67 -3q-33 -43 -65 -86.5t-64 -86.5q58 0 115.5 -0.5
t115.5 -0.5q5 0 5 -4q0 -9 -9.5 -13.5t-16.5 -5.5q-13 -2 -26.5 -2.5t-27.5 -1.5q-25 -1 -56 -3t-61.5 -6t-53.5 -13q-14 -5 -32.5 -27t-36.5 -51.5t-30 -56.5t-12 -42q0 -22 16.5 -32.5t39 -13.5t38.5 -3q26 0 62 5t74.5 14t73 19.5t58.5 22.5q4 2 7 2q8 0 8 -10
q0 -19 -21 -31.5t-37 -17.5q-30 -9 -74.5 -15.5t-88.5 -10.5t-76 -4zM428 559q-6 0 -16.5 5t-19.5 12.5t-9 13.5q0 8 12 17.5t26.5 16.5t20.5 7q10 0 10 -7q0 -3 -1 -4q-7 -7 -9 -13l-5 -15q-2 -6 -1.5 -19.5t-7.5 -13.5z" />
    <glyph glyph-name="edotaccent" unicode="&#x117;" horiz-adv-x="233" 
d="M91 -1q-28 0 -54 14t-26 46q0 4 0.5 7.5t1.5 7.5q8 34 29.5 67t52 62t64 51.5t64.5 34.5q3 2 6 3t7 1q9 0 15 -9.5t9 -21.5t3 -19q0 -18 -10.5 -36.5t-23.5 -30.5q6 0 12 -0.5t12 -0.5q2 0 2 -2q0 -1 -2 -2l-4 -2l-30 -3q-28 -3 -58 -9t-57 -16q-13 -18 -26 -45t-13 -50
q0 -13 6 -22.5t21 -9.5q9 0 18.5 3.5t17.5 7.5q48 24 86 57.5t74 72.5q2 2 3 2q2 0 2 -2q0 -3 -2 -6.5t-4 -5.5q-27 -34 -62 -68.5t-71 -57.5q-28 -18 -63 -18zM129 171q23 2 46 3.5t46 1.5q6 8 10.5 21.5t4.5 23.5q0 5 -2 10.5t-9 5.5h-3q-12 -4 -30.5 -16t-35.5 -26
t-27 -24zM270 319q-6 0 -16.5 5t-19.5 12.5t-9 13.5q0 8 12 17.5t26.5 16.5t20.5 7q10 0 10 -7q0 -3 -1 -4q-7 -7 -9 -13l-5 -15q-2 -6 -1.5 -19.5t-7.5 -13.5z" />
    <glyph glyph-name="Eogonek" unicode="&#x118;" horiz-adv-x="505" 
d="M157 -23q-14 0 -37 1t-46 6t-39 16.5t-16 32.5q0 17 15 49.5t39.5 73.5t54 85t58 84.5t52 72t35.5 47.5q-10 -2 -34.5 -7t-51.5 -13.5t-46 -20t-19 -26.5q0 -5 1 -7q2 -2 2 -4q0 -7 -8 -7q-7 0 -9.5 11.5t-2.5 16.5q0 23 18.5 41.5t43 32t42.5 19.5q27 10 56.5 15t57.5 9
q6 6 10.5 10t13.5 4q7 0 15 -2.5t12 -7.5q11 0 22.5 0.5t21.5 0.5q28 0 57 -3.5t49.5 -19t20.5 -51.5q0 -8 -3 -20.5t-9.5 -22t-16.5 -9.5q-4 0 -4 1q0 2 6 10t6 18q0 15 -15.5 24t-37.5 12.5t-42 4.5t-30 1q-34 0 -67 -3q-33 -43 -65 -86.5t-64 -86.5q58 0 115.5 -0.5
t115.5 -0.5q5 0 5 -4q0 -9 -9.5 -13.5t-16.5 -5.5q-13 -2 -26.5 -2.5t-27.5 -1.5q-25 -1 -56 -3t-61.5 -6t-53.5 -13q-14 -5 -32.5 -27t-36.5 -51.5t-30 -56.5t-12 -42q0 -22 16.5 -32.5t39 -13.5t38.5 -3q26 0 62 5t74.5 14t73 19.5t58.5 22.5q4 2 7 2q8 0 8 -10
q0 -19 -21 -31.5t-37 -17.5q-30 -9 -74.5 -15.5t-88.5 -10.5t-76 -4zM313 -120q-13 0 -25 6.5t-13 25.5q1 18 16.5 37.5t37 36.5t39.5 27q6 3 9 3q4 0 4 -3q0 -4 -8 -9q-13 -11 -28 -28t-25.5 -34t-11.5 -28q0 -18 16 -18q13 0 26 9.5t25 20.5v0.5t1 0.5t2 -3.5t-1 -5.5
q-12 -16 -26.5 -27t-37.5 -11z" />
    <glyph glyph-name="eogonek" unicode="&#x119;" horiz-adv-x="233" 
d="M91 -1q-28 0 -54 14t-26 46q0 4 0.5 7.5t1.5 7.5q8 34 29.5 67t52 62t64 51.5t64.5 34.5q3 2 6 3t7 1q9 0 15 -9.5t9 -21.5t3 -19q0 -18 -10.5 -36.5t-23.5 -30.5q6 0 12 -0.5t12 -0.5q2 0 2 -2q0 -1 -2 -2l-4 -2l-30 -3q-28 -3 -58 -9t-57 -16q-13 -18 -26 -45t-13 -50
q0 -13 6 -22.5t21 -9.5q9 0 18.5 3.5t17.5 7.5q48 24 86 57.5t74 72.5q2 2 3 2q2 0 2 -2q0 -3 -2 -6.5t-4 -5.5q-27 -34 -62 -68.5t-71 -57.5q-28 -18 -63 -18zM129 171q23 2 46 3.5t46 1.5q6 8 10.5 21.5t4.5 23.5q0 5 -2 10.5t-9 5.5h-3q-12 -4 -30.5 -16t-35.5 -26
t-27 -24zM20 -131q-13 0 -25 6.5t-13 25.5q1 18 16.5 37.5t37 36.5t39.5 27q6 3 9 3q4 0 4 -3q0 -4 -8 -9q-13 -11 -28 -28t-25.5 -34t-11.5 -28q0 -18 16 -18q13 0 26 9.5t25 20.5v0.5t1 0.5t2 -3.5t-1 -5.5q-12 -16 -26.5 -27t-37.5 -11z" />
    <glyph glyph-name="Ecaron" unicode="&#x11a;" horiz-adv-x="505" 
d="M157 -23q-14 0 -37 1t-46 6t-39 16.5t-16 32.5q0 17 15 49.5t39.5 73.5t54 85t58 84.5t52 72t35.5 47.5q-10 -2 -34.5 -7t-51.5 -13.5t-46 -20t-19 -26.5q0 -5 1 -7q2 -2 2 -4q0 -7 -8 -7q-7 0 -9.5 11.5t-2.5 16.5q0 23 18.5 41.5t43 32t42.5 19.5q27 10 56.5 15t57.5 9
q6 6 10.5 10t13.5 4q7 0 15 -2.5t12 -7.5q11 0 22.5 0.5t21.5 0.5q28 0 57 -3.5t49.5 -19t20.5 -51.5q0 -8 -3 -20.5t-9.5 -22t-16.5 -9.5q-4 0 -4 1q0 2 6 10t6 18q0 15 -15.5 24t-37.5 12.5t-42 4.5t-30 1q-34 0 -67 -3q-33 -43 -65 -86.5t-64 -86.5q58 0 115.5 -0.5
t115.5 -0.5q5 0 5 -4q0 -9 -9.5 -13.5t-16.5 -5.5q-13 -2 -26.5 -2.5t-27.5 -1.5q-25 -1 -56 -3t-61.5 -6t-53.5 -13q-14 -5 -32.5 -27t-36.5 -51.5t-30 -56.5t-12 -42q0 -22 16.5 -32.5t39 -13.5t38.5 -3q26 0 62 5t74.5 14t73 19.5t58.5 22.5q4 2 7 2q8 0 8 -10
q0 -19 -21 -31.5t-37 -17.5q-30 -9 -74.5 -15.5t-88.5 -10.5t-76 -4zM438 559q-7 0 -11 3.5t-8 7.5q-11 12 -22.5 26t-23.5 27q-4 5 -9 11t-5 7q2 2 7 2q4 0 9 -0.5t10 -3.5q12 -4 34 -17t37 -26q25 11 53 23t47 19q8 3 15 6t10 3q5 0 5 -4q0 -1 -1.5 -4.5t-8.5 -6.5
q-5 -3 -22.5 -12.5t-38 -21t-38 -21t-22.5 -12.5q-5 -4 -11 -5q-1 0 -2.5 -0.5t-3.5 -0.5z" />
    <glyph glyph-name="ecaron" unicode="&#x11b;" horiz-adv-x="233" 
d="M91 -1q-28 0 -54 14t-26 46q0 4 0.5 7.5t1.5 7.5q8 34 29.5 67t52 62t64 51.5t64.5 34.5q3 2 6 3t7 1q9 0 15 -9.5t9 -21.5t3 -19q0 -18 -10.5 -36.5t-23.5 -30.5q6 0 12 -0.5t12 -0.5q2 0 2 -2q0 -1 -2 -2l-4 -2l-30 -3q-28 -3 -58 -9t-57 -16q-13 -18 -26 -45t-13 -50
q0 -13 6 -22.5t21 -9.5q9 0 18.5 3.5t17.5 7.5q48 24 86 57.5t74 72.5q2 2 3 2q2 0 2 -2q0 -3 -2 -6.5t-4 -5.5q-27 -34 -62 -68.5t-71 -57.5q-28 -18 -63 -18zM129 171q23 2 46 3.5t46 1.5q6 8 10.5 21.5t4.5 23.5q0 5 -2 10.5t-9 5.5h-3q-12 -4 -30.5 -16t-35.5 -26
t-27 -24zM247 316q-15 0 -20 10q-5 12 -15.5 33t-18.5 32q-3 5 -7 11t-4 7q2 2 7 2q4 0 9 -0.5t10 -3.5q12 -4 26.5 -22t24.5 -33q23 16 49.5 28t40.5 19q8 4 15 6.5t10 2.5q5 0 5 -4q0 -1 -9 -6t-20 -12q-24 -15 -48.5 -32t-43.5 -33q-5 -5 -11 -5z" />
    <glyph glyph-name="Gcircumflex" unicode="&#x11c;" horiz-adv-x="600" 
d="M222 -36q-54 0 -100 20t-74.5 59.5t-28.5 97.5q0 61 29 116t77.5 100.5t108 79t121.5 51.5t117 18q25 0 51.5 -8t45 -26t18.5 -48q0 -34 -25.5 -64t-52.5 -49q-3 -2 -7 -5t-9 -3t-5 6q0 8 11 22t22 34.5t11 47.5q0 40 -28 55t-63 15q-68 0 -131 -26.5t-114 -72.5
t-85 -103q-17 -28 -28.5 -61t-11.5 -66q0 -52 27 -81.5t68.5 -41t85.5 -11.5q35 0 81.5 6.5t92 22.5t79 43t42.5 69q1 3 1 6v6v7q-19 5 -37.5 6.5t-37.5 1.5q-25 0 -60.5 -2.5t-72 -10t-66.5 -21.5t-45 -37q-8 -13 -8 -25q0 -14 7.5 -20t7.5 -11q0 -3 -6 -3q-19 0 -30.5 20
t-11.5 36q0 5 1.5 10.5t2.5 10.5q10 33 35.5 53t59.5 30.5t69 14.5t64 4q17 0 34 -1t33 -3q12 -1 32.5 -5.5t41.5 -12.5t35.5 -20t14.5 -29q0 -2 -1.5 -8.5t-4.5 -6.5q-2 0 -2 1.5t-1 2.5q-6 8 -18.5 13.5t-22.5 7.5q1 -2 1 -8q0 -40 -24.5 -72.5t-64 -57t-85.5 -41t-90 -25
t-76 -8.5zM364 555q-5 0 -5 4q0 2 1.5 5t8.5 6q5 3 22.5 12.5t38 21t38 21t22.5 12.5q5 4 11 5q2 0 3.5 0.5t2.5 0.5q7 0 11 -3.5t8 -7.5q11 -12 22.5 -25.5t23.5 -27.5q4 -4 9 -10.5t5 -7.5q-2 -2 -7 -2q-4 0 -9 0.5t-10 3.5q-12 4 -34 17t-37 26q-25 -11 -53 -22.5
t-47 -19.5q-8 -3 -15 -6t-10 -3z" />
    <glyph glyph-name="gcircumflex" unicode="&#x11d;" horiz-adv-x="259" 
d="M-15 -160q-22 0 -41.5 7.5t-26.5 31.5l9 2q3 -14 13.5 -19.5t23.5 -5.5q24 0 46 11q32 15 63.5 51t61 81t54.5 88.5t42 74.5q-28 -35 -60 -69t-67 -63q-13 -10 -30 -20t-36 -10t-31 13.5t-12 32.5q0 8 2 14.5t5 13.5q21 46 60.5 92.5t87 84.5t93.5 57q5 2 10.5 4t11.5 2
q14 0 22 -14.5t9 -26.5q7 8 19.5 20.5t24.5 13.5v-10q-13 -1 -27 -18.5t-27.5 -44.5t-25 -56t-20 -52.5t-12.5 -34.5q-16 -43 -35.5 -87.5t-47.5 -81.5t-66.5 -59.5t-92.5 -22.5zM47 23q8 0 20.5 6.5t24.5 15t18 12.5q35 26 69.5 61.5t64.5 75.5t50 78q-66 -25 -123 -69
t-98 -103q-5 -7 -13 -20t-14.5 -26.5t-6.5 -22.5q0 -8 8 -8zM360 338q-4 0 -9 0.5t-10 3.5q-12 4 -26.5 22t-24.5 33q-22 -16 -49 -28t-41 -19q-8 -4 -15 -6.5t-10 -2.5q-5 0 -5 4q0 2 9 6.5t20 11.5q24 15 48.5 32t43.5 33q5 5 11 5q15 0 20 -10q5 -12 16 -33t18 -32
q3 -4 7 -10.5t4 -7.5q-2 -2 -7 -2z" />
    <glyph glyph-name="Gbreve" unicode="&#x11e;" horiz-adv-x="600" 
d="M222 -36q-54 0 -100 20t-74.5 59.5t-28.5 97.5q0 61 29 116t77.5 100.5t108 79t121.5 51.5t117 18q25 0 51.5 -8t45 -26t18.5 -48q0 -34 -25.5 -64t-52.5 -49q-3 -2 -7 -5t-9 -3t-5 6q0 8 11 22t22 34.5t11 47.5q0 40 -28 55t-63 15q-68 0 -131 -26.5t-114 -72.5
t-85 -103q-17 -28 -28.5 -61t-11.5 -66q0 -52 27 -81.5t68.5 -41t85.5 -11.5q35 0 81.5 6.5t92 22.5t79 43t42.5 69q1 3 1 6v6v7q-19 5 -37.5 6.5t-37.5 1.5q-25 0 -60.5 -2.5t-72 -10t-66.5 -21.5t-45 -37q-8 -13 -8 -25q0 -14 7.5 -20t7.5 -11q0 -3 -6 -3q-19 0 -30.5 20
t-11.5 36q0 5 1.5 10.5t2.5 10.5q10 33 35.5 53t59.5 30.5t69 14.5t64 4q17 0 34 -1t33 -3q12 -1 32.5 -5.5t41.5 -12.5t35.5 -20t14.5 -29q0 -2 -1.5 -8.5t-4.5 -6.5q-2 0 -2 1.5t-1 2.5q-6 8 -18.5 13.5t-22.5 7.5q1 -2 1 -8q0 -40 -24.5 -72.5t-64 -57t-85.5 -41t-90 -25
t-76 -8.5zM503 558q-21 0 -39.5 13t-19.5 36q0 5 8 13t16.5 13t8.5 0q1 -21 19.5 -33t38.5 -12q19 0 42 8t43 18.5t30 16.5q5 3 8 3q4 0 5 -2.5t-4 -6.5q-15 -12 -43 -28t-58.5 -27.5t-54.5 -11.5z" />
    <glyph glyph-name="gbreve" unicode="&#x11f;" horiz-adv-x="259" 
d="M-15 -160q-22 0 -41.5 7.5t-26.5 31.5l9 2q3 -14 13.5 -19.5t23.5 -5.5q24 0 46 11q32 15 63.5 51t61 81t54.5 88.5t42 74.5q-28 -35 -60 -69t-67 -63q-13 -10 -30 -20t-36 -10t-31 13.5t-12 32.5q0 8 2 14.5t5 13.5q21 46 60.5 92.5t87 84.5t93.5 57q5 2 10.5 4t11.5 2
q14 0 22 -14.5t9 -26.5q7 8 19.5 20.5t24.5 13.5v-10q-13 -1 -27 -18.5t-27.5 -44.5t-25 -56t-20 -52.5t-12.5 -34.5q-16 -43 -35.5 -87.5t-47.5 -81.5t-66.5 -59.5t-92.5 -22.5zM47 23q8 0 20.5 6.5t24.5 15t18 12.5q35 26 69.5 61.5t64.5 75.5t50 78q-66 -25 -123 -69
t-98 -103q-5 -7 -13 -20t-14.5 -26.5t-6.5 -22.5q0 -8 8 -8zM291 341q-21 0 -35 9.5t-15 32.5q0 5 8 13t16.5 13t8.5 0q1 -21 15 -29.5t34 -8.5q28 0 58.5 11t45.5 20q5 3 8 3q4 0 5 -2.5t-4 -6.5q-15 -12 -40.5 -24.5t-53 -21.5t-51.5 -9z" />
    <glyph glyph-name="Gdotaccent" unicode="&#x120;" horiz-adv-x="600" 
d="M222 -36q-54 0 -100 20t-74.5 59.5t-28.5 97.5q0 61 29 116t77.5 100.5t108 79t121.5 51.5t117 18q25 0 51.5 -8t45 -26t18.5 -48q0 -34 -25.5 -64t-52.5 -49q-3 -2 -7 -5t-9 -3t-5 6q0 8 11 22t22 34.5t11 47.5q0 40 -28 55t-63 15q-68 0 -131 -26.5t-114 -72.5
t-85 -103q-17 -28 -28.5 -61t-11.5 -66q0 -52 27 -81.5t68.5 -41t85.5 -11.5q35 0 81.5 6.5t92 22.5t79 43t42.5 69q1 3 1 6v6v7q-19 5 -37.5 6.5t-37.5 1.5q-25 0 -60.5 -2.5t-72 -10t-66.5 -21.5t-45 -37q-8 -13 -8 -25q0 -14 7.5 -20t7.5 -11q0 -3 -6 -3q-19 0 -30.5 20
t-11.5 36q0 5 1.5 10.5t2.5 10.5q10 33 35.5 53t59.5 30.5t69 14.5t64 4q17 0 34 -1t33 -3q12 -1 32.5 -5.5t41.5 -12.5t35.5 -20t14.5 -29q0 -2 -1.5 -8.5t-4.5 -6.5q-2 0 -2 1.5t-1 2.5q-6 8 -18.5 13.5t-22.5 7.5q1 -2 1 -8q0 -40 -24.5 -72.5t-64 -57t-85.5 -41t-90 -25
t-76 -8.5zM482 555q-6 0 -16.5 5t-19.5 12.5t-9 13.5q0 8 12 17.5t26.5 16.5t20.5 7q10 0 10 -7q0 -3 -1 -4q-7 -7 -9 -13l-5 -15q-2 -6 -1.5 -19.5t-7.5 -13.5z" />
    <glyph glyph-name="gdotaccent" unicode="&#x121;" horiz-adv-x="259" 
d="M-15 -160q-22 0 -41.5 7.5t-26.5 31.5l9 2q3 -14 13.5 -19.5t23.5 -5.5q24 0 46 11q32 15 63.5 51t61 81t54.5 88.5t42 74.5q-28 -35 -60 -69t-67 -63q-13 -10 -30 -20t-36 -10t-31 13.5t-12 32.5q0 8 2 14.5t5 13.5q21 46 60.5 92.5t87 84.5t93.5 57q5 2 10.5 4t11.5 2
q14 0 22 -14.5t9 -26.5q7 8 19.5 20.5t24.5 13.5v-10q-13 -1 -27 -18.5t-27.5 -44.5t-25 -56t-20 -52.5t-12.5 -34.5q-16 -43 -35.5 -87.5t-47.5 -81.5t-66.5 -59.5t-92.5 -22.5zM47 23q8 0 20.5 6.5t24.5 15t18 12.5q35 26 69.5 61.5t64.5 75.5t50 78q-66 -25 -123 -69
t-98 -103q-5 -7 -13 -20t-14.5 -26.5t-6.5 -22.5q0 -8 8 -8zM312 341q-6 0 -16.5 5t-19.5 12.5t-9 13.5q0 8 12 17.5t26.5 16.5t20.5 7q10 0 10 -7q0 -3 -1 -4q-7 -7 -9 -13l-5 -15q-2 -6 -1.5 -19.5t-7.5 -13.5z" />
    <glyph glyph-name="uni0122" unicode="&#x122;" horiz-adv-x="600" 
d="M222 -36q-54 0 -100 20t-74.5 59.5t-28.5 97.5q0 61 29 116t77.5 100.5t108 79t121.5 51.5t117 18q25 0 51.5 -8t45 -26t18.5 -48q0 -34 -25.5 -64t-52.5 -49q-3 -2 -7 -5t-9 -3t-5 6q0 8 11 22t22 34.5t11 47.5q0 40 -28 55t-63 15q-68 0 -131 -26.5t-114 -72.5
t-85 -103q-17 -28 -28.5 -61t-11.5 -66q0 -52 27 -81.5t68.5 -41t85.5 -11.5q35 0 81.5 6.5t92 22.5t79 43t42.5 69q1 3 1 6v6v7q-19 5 -37.5 6.5t-37.5 1.5q-25 0 -60.5 -2.5t-72 -10t-66.5 -21.5t-45 -37q-8 -13 -8 -25q0 -14 7.5 -20t7.5 -11q0 -3 -6 -3q-19 0 -30.5 20
t-11.5 36q0 5 1.5 10.5t2.5 10.5q10 33 35.5 53t59.5 30.5t69 14.5t64 4q17 0 34 -1t33 -3q12 -1 32.5 -5.5t41.5 -12.5t35.5 -20t14.5 -29q0 -2 -1.5 -8.5t-4.5 -6.5q-2 0 -2 1.5t-1 2.5q-6 8 -18.5 13.5t-22.5 7.5q1 -2 1 -8q0 -40 -24.5 -72.5t-64 -57t-85.5 -41t-90 -25
t-76 -8.5zM129 -203q-6 0 -6 6q0 2 2 6q15 13 27 29t12 38q0 5 -1.5 10.5t-1.5 11.5q0 9 9 9q6 0 17 -3t20 -8.5t9 -12.5q0 -5 -11.5 -18.5t-27 -29t-29.5 -27t-19 -11.5z" />
    <glyph glyph-name="uni0123" unicode="&#x123;" horiz-adv-x="259" 
d="M-15 -160q-22 0 -41.5 7.5t-26.5 31.5l9 2q3 -14 13.5 -19.5t23.5 -5.5q24 0 46 11q32 15 63.5 51t61 81t54.5 88.5t42 74.5q-28 -35 -60 -69t-67 -63q-13 -10 -30 -20t-36 -10t-31 13.5t-12 32.5q0 8 2 14.5t5 13.5q21 46 60.5 92.5t87 84.5t93.5 57q5 2 10.5 4t11.5 2
q14 0 22 -14.5t9 -26.5q7 8 19.5 20.5t24.5 13.5v-10q-13 -1 -27 -18.5t-27.5 -44.5t-25 -56t-20 -52.5t-12.5 -34.5q-16 -43 -35.5 -87.5t-47.5 -81.5t-66.5 -59.5t-92.5 -22.5zM47 23q8 0 20.5 6.5t24.5 15t18 12.5q35 26 69.5 61.5t64.5 75.5t50 78q-66 -25 -123 -69
t-98 -103q-5 -7 -13 -20t-14.5 -26.5t-6.5 -22.5q0 -8 8 -8zM301 341q-5 0 -16.5 3t-20.5 8.5t-9 12.5q0 5 11.5 18.5t27 29t29.5 27t19 11.5q6 0 6 -6q0 -2 -2 -6q-15 -13 -27 -29t-12 -38q0 -5 1.5 -10.5t1.5 -11.5q0 -9 -9 -9z" />
    <glyph glyph-name="Hcircumflex" unicode="&#x124;" horiz-adv-x="507" 
d="M39 -26q-4 0 -5 3.5t-1 5.5q0 7 12 31t31 56t39 64.5t36 57.5t22 35q-13 -3 -33.5 -9.5t-40 -17t-33 -24t-13.5 -31.5q0 -14 8.5 -20t8.5 -11q0 -1 -2.5 -1.5t-3.5 -0.5q-20 0 -33 19t-13 37q0 12 4 20q12 37 44.5 57.5t72.5 30t73 12.5q17 28 35.5 56t35.5 56
q-9 9 -9 19q0 7 7.5 18t17 21t15.5 12q5 2 19 4t20 2h3q6 0 13 -2t7 -7q0 -4 -4 -10t-7 -9q-15 -19 -31 -38t-32 -39t-31.5 -40.5t-31.5 -41.5q8 1 15.5 1h14.5q18 0 36.5 -1t36.5 -3q19 -2 45.5 -7t50.5 -15.5t34 -29.5q5 -10 4 -18q20 35 47 80.5t55 88.5t50.5 73.5
t33.5 35.5q10 4 19 4q4 0 11.5 -1.5t7.5 -6.5q0 -4 -3 -8.5l-5 -7.5q-52 -70 -103 -141t-96 -147q-27 -45 -50 -91.5t-45 -94.5q-1 -2 -3.5 -6.5t-5.5 -4.5q-4 0 -4.5 4.5t-0.5 5.5q0 8 -1.5 14.5t0.5 13.5q12 35 28.5 68.5t33.5 64.5q3 7 9.5 18t14.5 26q-1 2 -3 5.5
t-7 5.5q-15 10 -39.5 16t-49.5 8.5t-43 2.5q-31 0 -58.5 -1.5t-59.5 -6.5q-37 -57 -76 -116.5t-72 -119.5q-3 -4 -9.5 -14t-12.5 -10zM401 523q-5 0 -5 4q0 2 1.5 5t8.5 6q5 3 22.5 12.5t38 21t38 21t22.5 12.5q5 4 11 5q2 0 3.5 0.5t2.5 0.5q7 0 11 -3.5t8 -7.5
q11 -12 22.5 -25.5t23.5 -27.5q4 -4 9 -10.5t5 -7.5q-2 -2 -7 -2q-4 0 -9 0.5t-10 3.5q-12 4 -34 17t-37 26q-25 -11 -53 -22.5t-47 -19.5q-8 -3 -15 -6t-10 -3z" />
    <glyph glyph-name="hcircumflex" unicode="&#x125;" horiz-adv-x="303" 
d="M181 -4q-18 0 -32 10.5t-14 29.5q0 15 11.5 43t28 59.5t32.5 59t25 42.5q-22 -10 -48.5 -35t-52.5 -56.5t-48 -62.5t-35 -52q-7 -13 -18.5 -23.5t-28.5 -10.5h-8q1 15 13 46.5t32 73t43.5 86t47 86.5t42 74.5t28.5 47.5t20 29.5t31 14.5q7 0 22 -4t28.5 -9.5t15.5 -11.5
q-19 -7 -46.5 -38.5t-59 -76t-61 -92t-52.5 -87t-33 -60.5q0 -1 -0.5 -1.5t-0.5 -1.5t0.5 -1h0.5q1 0 3 3t3 4q15 18 39.5 50t53.5 65t58.5 56t54.5 23q11 0 22.5 -5.5t11.5 -17.5q0 -8 -7 -17q-5 -8 -11.5 -16t-12.5 -16q-24 -32 -45.5 -66.5t-36.5 -72.5q-2 -6 -4.5 -12.5
t-2.5 -13.5q0 -18 18 -18q15 0 34.5 15t41 37t40 44.5t31.5 37.5t16 15t3 -4q0 -2 -15 -19.5t-35.5 -40.5t-38 -41.5t-22.5 -23.5q-16 -16 -37.5 -30.5t-44.5 -14.5zM168 499q-5 0 -5 4q0 2 1.5 5t8.5 6q5 3 22.5 12.5t38 21t38 21t22.5 12.5q5 4 11 5q2 0 3.5 0.5t2.5 0.5
q7 0 11 -3.5t8 -7.5q11 -12 22.5 -25.5t23.5 -27.5q4 -4 9 -10.5t5 -7.5q-2 -2 -7 -2q-4 0 -9 0.5t-10 3.5q-12 4 -34 17t-37 26q-25 -11 -53 -22.5t-47 -19.5q-8 -3 -15 -6t-10 -3z" />
    <glyph glyph-name="Hbar" unicode="&#x126;" horiz-adv-x="507" 
d="M39 -26q-4 0 -5 3.5t-1 5.5q0 7 12 31t31 56t39 64.5t36 57.5t22 35q-13 -3 -33.5 -9.5t-40 -17t-33 -24t-13.5 -31.5q0 -14 8.5 -20t8.5 -11q0 -1 -2.5 -1.5t-3.5 -0.5q-20 0 -33 19t-13 37q0 12 4 20q12 37 44.5 57.5t72.5 30t73 12.5q12 19 24 37.5t24 37.5h-1
q-12 0 -26.5 1t-25.5 4.5t-11 11.5t15.5 15t31.5 7h38q-7 8 -7 17q0 7 7.5 18t17 21t15.5 12q5 2 19 4t20 2h3q6 0 13 -2t7 -7q0 -4 -4 -10t-7 -9q-9 -12 -18.5 -23t-18.5 -23l262 2q23 35 42.5 60t29.5 30q10 4 19 4q4 0 11.5 -1.5t7.5 -6.5q0 -4 -3 -8.5l-5 -7.5
q-13 -18 -26 -35.5t-26 -34.5h46q2 0 9.5 -0.5t7.5 -3.5q0 -6 -22 -11t-58 -9q-34 -47 -67 -95t-63 -99q-27 -45 -50 -91.5t-45 -94.5q-1 -2 -3.5 -6.5t-5.5 -4.5q-4 0 -4.5 4.5t-0.5 5.5q0 8 -1.5 14.5t0.5 13.5q12 35 28.5 68.5t33.5 64.5q3 7 9.5 18t14.5 26q-1 2 -3 5.5
t-7 5.5q-15 10 -39.5 16t-49.5 8.5t-43 2.5q-31 0 -58.5 -1.5t-59.5 -6.5q-37 -57 -76 -116.5t-72 -119.5q-3 -4 -9.5 -14t-12.5 -10zM472 234q5 -10 4 -18q19 33 44.5 76t51.5 84q-46 -4 -98 -6.5t-99 -4t-79 -2.5q-14 -18 -28.5 -36.5t-28.5 -37.5q8 1 15.5 1h14.5
q18 0 36.5 -1t36.5 -3q19 -2 45.5 -7t50.5 -15.5t34 -29.5z" />
    <glyph glyph-name="hbar" unicode="&#x127;" horiz-adv-x="303" 
d="M181 -4q-18 0 -32 10.5t-14 29.5q0 15 11.5 43t28 59.5t32.5 59t25 42.5q-22 -10 -48.5 -35t-52.5 -56.5t-48 -62.5t-35 -52q-7 -13 -18.5 -23.5t-28.5 -10.5h-8q0 14 12 44.5t31.5 70.5t42 84t45.5 85t41 74q-17 -1 -25 -1q-7 0 -17 2t-10 11q0 5 6.5 10.5t13.5 5.5h49
q10 18 17 28q10 15 20 29.5t31 14.5q7 0 22 -4t28.5 -9.5t15.5 -11.5q-10 -4 -23.5 -16t-29.5 -30h57q2 0 4.5 -0.5t2.5 -2.5q0 -7 -25.5 -12t-57.5 -9q-26 -33 -54 -74.5t-53 -82.5t-44.5 -75t-28.5 -52q0 -1 -0.5 -1.5t-0.5 -1.5t0.5 -1h0.5q1 0 3 3t3 4q15 18 39.5 50
t53.5 65t58.5 56t54.5 23q11 0 22.5 -5.5t11.5 -17.5q0 -8 -7 -17q-5 -8 -11.5 -16t-12.5 -16q-24 -32 -45.5 -66.5t-36.5 -72.5q-2 -6 -4.5 -12.5t-2.5 -13.5q0 -18 18 -18q15 0 34.5 15t41 37t40 44.5t31.5 37.5t16 15t3 -4q0 -2 -15 -19.5t-35.5 -40.5t-38 -41.5
t-22.5 -23.5q-16 -16 -37.5 -30.5t-44.5 -14.5z" />
    <glyph glyph-name="Itilde" unicode="&#x128;" horiz-adv-x="434" 
d="M247 370q-16 0 -22 15.5t-6 28.5q0 37 33 51q35 17 82 24t85 7q14 0 34.5 -2t41.5 -8t35 -17.5t14 -30.5q0 -4 -1 -11t-7 -7q-5 0 -5 5q0 2 1 3.5t1 3.5q0 13 -17.5 18.5t-37.5 7t-29 1.5q-10 0 -34.5 -2t-54.5 -6.5t-58 -12.5t-46.5 -19t-18.5 -26q0 -9 6.5 -15t6.5 -7
l-1 -0.5t-2 -0.5zM-12 -73q-9 0 -16 17t-7 24q0 28 19.5 46.5t48.5 29t58.5 15.5t49.5 5q11 20 34 58.5t52 85.5t61.5 94.5t64 85.5t57.5 57q2 1 5.5 1h5.5q7 1 20 -1.5t13 -8.5v-2q0 -5 -6 -11q-53 -63 -104.5 -120t-97.5 -115t-85 -125q11 0 30.5 -3t40 -9.5t35 -17
t14.5 -25.5q0 -3 -1 -3q-1 1 -1 2q-5 9 -22 13t-35 5t-28 1q-29 0 -56 -3q-1 -3 -5 -7.5t-7 -4.5t-3 4t1 6q-12 -2 -35.5 -7t-48.5 -14t-42 -22t-17 -31q0 -9 4.5 -13.5t4.5 -5.5t-2 -1zM512 547q-21 0 -34 8.5t-23.5 16.5t-27.5 8t-30 -12.5t-21 -19.5q-8 -2 -8 2
q3 14 16 28.5t30.5 24.5t32.5 10q20 0 35 -6.5t29.5 -13t30.5 -6.5q18 0 37 25q8 0 8 -6q0 -15 -14 -28.5t-31.5 -22t-29.5 -8.5z" />
    <glyph glyph-name="itilde" unicode="&#x129;" horiz-adv-x="170" 
d="M48 -4q-19 0 -32 12t-13 31q0 4 0.5 7.5t1.5 7.5q8 27 24.5 60.5t36 66.5t34.5 57q5 8 9.5 16.5t10.5 15.5q1 2 6 2q4 0 18.5 -3t27.5 -7t13 -8q0 -1 -1 -1q-7 -10 -15 -20l-16 -20q-25 -34 -48.5 -71t-40.5 -77q-2 -6 -4 -12.5t-2 -13.5q0 -18 17 -18q14 0 34 15
t41.5 37t40.5 44.5t32 37.5t15 15q4 0 4 -4q0 -2 -10 -14t-25.5 -29.5t-32 -35t-28.5 -30.5t-16 -16q-16 -15 -37.5 -30t-44.5 -15zM214 324q-19 0 -30.5 7.5t-21.5 15t-25 7.5q-16 0 -28 -11.5t-19 -17.5q-7 -2 -7 2q3 12 14.5 25.5t27.5 22.5t30 9q26 0 45 -12t41 -12
q10 0 17 5.5t17 17.5q7 0 7 -5q0 -14 -12.5 -26.5t-28.5 -20t-27 -7.5z" />
    <glyph glyph-name="Imacron" unicode="&#x12a;" horiz-adv-x="434" 
d="M247 370q-16 0 -22 15.5t-6 28.5q0 37 33 51q35 17 82 24t85 7q14 0 34.5 -2t41.5 -8t35 -17.5t14 -30.5q0 -4 -1 -11t-7 -7q-5 0 -5 5q0 2 1 3.5t1 3.5q0 13 -17.5 18.5t-37.5 7t-29 1.5q-10 0 -34.5 -2t-54.5 -6.5t-58 -12.5t-46.5 -19t-18.5 -26q0 -9 6.5 -15t6.5 -7
l-1 -0.5t-2 -0.5zM-12 -73q-9 0 -16 17t-7 24q0 28 19.5 46.5t48.5 29t58.5 15.5t49.5 5q11 20 34 58.5t52 85.5t61.5 94.5t64 85.5t57.5 57q2 1 5.5 1h5.5q7 1 20 -1.5t13 -8.5v-2q0 -5 -6 -11q-53 -63 -104.5 -120t-97.5 -115t-85 -125q11 0 30.5 -3t40 -9.5t35 -17
t14.5 -25.5q0 -3 -1 -3q-1 1 -1 2q-5 9 -22 13t-35 5t-28 1q-29 0 -56 -3q-1 -3 -5 -7.5t-7 -4.5t-3 4t1 6q-12 -2 -35.5 -7t-48.5 -14t-42 -22t-17 -31q0 -9 4.5 -13.5t4.5 -5.5t-2 -1zM386 562q-7 0 -15 2t-8 11q0 6 5.5 11.5t11.5 5.5l171 1q1 0 3.5 -0.5t2.5 -2.5
q0 -7 -22.5 -12.5t-54 -9t-58.5 -5t-36 -1.5z" />
    <glyph glyph-name="imacron" unicode="&#x12b;" horiz-adv-x="170" 
d="M48 -4q-19 0 -32 12t-13 31q0 4 0.5 7.5t1.5 7.5q8 27 24.5 60.5t36 66.5t34.5 57q5 8 9.5 16.5t10.5 15.5q1 2 6 2q4 0 18.5 -3t27.5 -7t13 -8q0 -1 -1 -1q-7 -10 -15 -20l-16 -20q-25 -34 -48.5 -71t-40.5 -77q-2 -6 -4 -12.5t-2 -13.5q0 -18 17 -18q14 0 34 15
t41.5 37t40.5 44.5t32 37.5t15 15q4 0 4 -4q0 -2 -10 -14t-25.5 -29.5t-32 -35t-28.5 -30.5t-16 -16q-16 -15 -37.5 -30t-44.5 -15zM91 336q-7 0 -15 2t-8 11q0 6 5.5 11.5t11.5 5.5l161 1q1 0 3.5 -0.5t2.5 -2.5q0 -7 -21 -12.5t-50.5 -9t-55 -5t-34.5 -1.5z" />
    <glyph glyph-name="Ibreve" unicode="&#x12c;" horiz-adv-x="434" 
d="M247 370q-16 0 -22 15.5t-6 28.5q0 37 33 51q35 17 82 24t85 7q14 0 34.5 -2t41.5 -8t35 -17.5t14 -30.5q0 -4 -1 -11t-7 -7q-5 0 -5 5q0 2 1 3.5t1 3.5q0 13 -17.5 18.5t-37.5 7t-29 1.5q-10 0 -34.5 -2t-54.5 -6.5t-58 -12.5t-46.5 -19t-18.5 -26q0 -9 6.5 -15t6.5 -7
l-1 -0.5t-2 -0.5zM-12 -73q-9 0 -16 17t-7 24q0 28 19.5 46.5t48.5 29t58.5 15.5t49.5 5q11 20 34 58.5t52 85.5t61.5 94.5t64 85.5t57.5 57q2 1 5.5 1h5.5q7 1 20 -1.5t13 -8.5v-2q0 -5 -6 -11q-53 -63 -104.5 -120t-97.5 -115t-85 -125q11 0 30.5 -3t40 -9.5t35 -17
t14.5 -25.5q0 -3 -1 -3q-1 1 -1 2q-5 9 -22 13t-35 5t-28 1q-29 0 -56 -3q-1 -3 -5 -7.5t-7 -4.5t-3 4t1 6q-12 -2 -35.5 -7t-48.5 -14t-42 -22t-17 -31q0 -9 4.5 -13.5t4.5 -5.5t-2 -1zM486 548q-21 0 -39.5 13t-19.5 36q0 5 8 13t16.5 13t8.5 0q1 -21 19.5 -33t38.5 -12
q19 0 42 8t43 18.5t30 16.5q5 3 8 3q4 0 5 -2.5t-4 -6.5q-15 -12 -43 -28t-58.5 -27.5t-54.5 -11.5z" />
    <glyph glyph-name="ibreve" unicode="&#x12d;" horiz-adv-x="170" 
d="M48 -4q-19 0 -32 12t-13 31q0 4 0.5 7.5t1.5 7.5q8 27 24.5 60.5t36 66.5t34.5 57q5 8 9.5 16.5t10.5 15.5q1 2 6 2q4 0 18.5 -3t27.5 -7t13 -8q0 -1 -1 -1q-7 -10 -15 -20l-16 -20q-25 -34 -48.5 -71t-40.5 -77q-2 -6 -4 -12.5t-2 -13.5q0 -18 17 -18q14 0 34 15
t41.5 37t40.5 44.5t32 37.5t15 15q4 0 4 -4q0 -2 -10 -14t-25.5 -29.5t-32 -35t-28.5 -30.5t-16 -16q-16 -15 -37.5 -30t-44.5 -15zM178 319q-21 0 -35 9.5t-15 32.5q0 5 8 13t16.5 13t8.5 0q1 -21 15 -29.5t34 -8.5q28 0 58.5 11t45.5 20q5 3 8 3q4 0 5 -2.5t-4 -6.5
q-15 -12 -40.5 -24.5t-53 -21.5t-51.5 -9z" />
    <glyph glyph-name="Iogonek" unicode="&#x12e;" horiz-adv-x="434" 
d="M247 370q-16 0 -22 15.5t-6 28.5q0 37 33 51q35 17 82 24t85 7q14 0 34.5 -2t41.5 -8t35 -17.5t14 -30.5q0 -4 -1 -11t-7 -7q-5 0 -5 5q0 2 1 3.5t1 3.5q0 13 -17.5 18.5t-37.5 7t-29 1.5q-10 0 -34.5 -2t-54.5 -6.5t-58 -12.5t-46.5 -19t-18.5 -26q0 -9 6.5 -15t6.5 -7
l-1 -0.5t-2 -0.5zM-12 -73q-9 0 -16 17t-7 24q0 28 19.5 46.5t48.5 29t58.5 15.5t49.5 5q11 20 34 58.5t52 85.5t61.5 94.5t64 85.5t57.5 57q2 1 5.5 1h5.5q7 1 20 -1.5t13 -8.5v-2q0 -5 -6 -11q-53 -63 -104.5 -120t-97.5 -115t-85 -125q11 0 30.5 -3t40 -9.5t35 -17
t14.5 -25.5q0 -3 -1 -3q-1 1 -1 2q-5 9 -22 13t-35 5t-28 1q-29 0 -56 -3q-1 -3 -5 -7.5t-7 -4.5t-3 4t1 6q-12 -2 -35.5 -7t-48.5 -14t-42 -22t-17 -31q0 -9 4.5 -13.5t4.5 -5.5t-2 -1zM64 -116q-13 0 -25 6.5t-13 25.5q1 18 16.5 37.5t37 36.5t39.5 27q6 3 9 3q4 0 4 -3
q0 -4 -8 -9q-13 -11 -28 -28t-25.5 -34t-11.5 -28q0 -18 16 -18q13 0 26 9.5t25 20.5v0.5t1 0.5t2 -3.5t-1 -5.5q-12 -16 -26.5 -27t-37.5 -11z" />
    <glyph glyph-name="iogonek" unicode="&#x12f;" horiz-adv-x="170" 
d="M48 -4q-19 0 -32 12t-13 31q0 4 0.5 7.5t1.5 7.5q8 27 24.5 60.5t36 66.5t34.5 57q5 8 9.5 16.5t10.5 15.5q1 2 6 2q4 0 18.5 -3t27.5 -7t13 -8q0 -1 -1 -1q-7 -10 -15 -20l-16 -20q-25 -34 -48.5 -71t-40.5 -77q-2 -6 -4 -12.5t-2 -13.5q0 -18 17 -18q14 0 34 15
t41.5 37t40.5 44.5t32 37.5t15 15q4 0 4 -4q0 -2 -10 -14t-25.5 -29.5t-32 -35t-28.5 -30.5t-16 -16q-16 -15 -37.5 -30t-44.5 -15zM199 319q-6 0 -16.5 5t-19.5 12.5t-9 13.5q0 8 12 17.5t26.5 16.5t20.5 7q10 0 10 -7q0 -3 -1 -4q-7 -7 -9 -13l-5 -15q-2 -6 -1.5 -19.5
t-7.5 -13.5zM-17 -125q-13 0 -25 6.5t-13 25.5q1 18 16.5 37.5t37 36.5t39.5 27q6 3 9 3q4 0 4 -3q0 -4 -8 -9q-13 -11 -28 -28t-25.5 -34t-11.5 -28q0 -18 16 -18q13 0 26 9.5t25 20.5v0.5t1 0.5t2 -3.5t-1 -5.5q-12 -16 -26.5 -27t-37.5 -11z" />
    <glyph glyph-name="Idotaccent" unicode="&#x130;" horiz-adv-x="434" 
d="M247 370q-16 0 -22 15.5t-6 28.5q0 37 33 51q35 17 82 24t85 7q14 0 34.5 -2t41.5 -8t35 -17.5t14 -30.5q0 -4 -1 -11t-7 -7q-5 0 -5 5q0 2 1 3.5t1 3.5q0 13 -17.5 18.5t-37.5 7t-29 1.5q-10 0 -34.5 -2t-54.5 -6.5t-58 -12.5t-46.5 -19t-18.5 -26q0 -9 6.5 -15t6.5 -7
l-1 -0.5t-2 -0.5zM-12 -73q-9 0 -16 17t-7 24q0 28 19.5 46.5t48.5 29t58.5 15.5t49.5 5q11 20 34 58.5t52 85.5t61.5 94.5t64 85.5t57.5 57q2 1 5.5 1h5.5q7 1 20 -1.5t13 -8.5v-2q0 -5 -6 -11q-53 -63 -104.5 -120t-97.5 -115t-85 -125q11 0 30.5 -3t40 -9.5t35 -17
t14.5 -25.5q0 -3 -1 -3q-1 1 -1 2q-5 9 -22 13t-35 5t-28 1q-29 0 -56 -3q-1 -3 -5 -7.5t-7 -4.5t-3 4t1 6q-12 -2 -35.5 -7t-48.5 -14t-42 -22t-17 -31q0 -9 4.5 -13.5t4.5 -5.5t-2 -1zM465 545q-6 0 -16.5 5t-19.5 12.5t-9 13.5q0 8 12 17.5t26.5 16.5t20.5 7q10 0 10 -7
q0 -3 -1 -4q-7 -7 -9 -13l-5 -15q-2 -6 -1.5 -19.5t-7.5 -13.5z" />
    <glyph glyph-name="dotlessi" unicode="&#x131;" horiz-adv-x="170" 
d="M48 -4q-19 0 -32 12t-13 31q0 4 0.5 7.5t1.5 7.5q8 27 24.5 60.5t36 66.5t34.5 57q5 8 9.5 16.5t10.5 15.5q1 2 6 2q4 0 18.5 -3t27.5 -7t13 -8q0 -1 -1 -1q-7 -10 -15 -20l-16 -20q-25 -34 -48.5 -71t-40.5 -77q-2 -6 -4 -12.5t-2 -13.5q0 -18 17 -18q14 0 34 15
t41.5 37t40.5 44.5t32 37.5t15 15q4 0 4 -4q0 -2 -10 -14t-25.5 -29.5t-32 -35t-28.5 -30.5t-16 -16q-16 -15 -37.5 -30t-44.5 -15z" />
    <glyph glyph-name="Jcircumflex" unicode="&#x134;" horiz-adv-x="465" 
d="M105 -40q-17 0 -41.5 5.5t-43 18.5t-18.5 35q0 48 30 90t78 76t104.5 58.5t110 39t93.5 17.5q10 21 26.5 54.5t34.5 65t34 46.5q-10 -1 -33.5 -5.5t-49 -12t-44 -18.5t-18.5 -26q0 -9 6 -14.5t6 -7.5h-3q-16 0 -22 15t-6 28q0 37 34 52q34 16 81.5 23t84.5 7q14 0 35 -2
t42 -8t35 -17.5t14 -30.5q0 -4 -1.5 -10.5t-6.5 -6.5t-5 4l1 7q0 13 -17.5 18.5t-37.5 7t-28 1.5h-15t-16 -1q-24 -15 -45.5 -45.5t-39 -64t-30.5 -59.5q22 -1 44.5 -8.5t33.5 -27.5q1 -2 1 -4t-1 -2t-8.5 5t-24.5 5q-16 0 -32.5 -2.5t-32.5 -6.5q-24 -45 -45.5 -89
t-49.5 -83t-70 -72q-26 -20 -58.5 -34.5t-65.5 -19.5q-4 -1 -9.5 -1h-10.5zM111 -20q49 0 92 28t79.5 71.5t65.5 90.5t48 85q-34 -9 -83 -30t-99.5 -49.5t-90 -61t-55.5 -64.5q-4 -7 -7.5 -15.5t-3.5 -17.5q0 -22 18 -29.5t36 -7.5zM441 556q-5 0 -5 4q0 2 1.5 5t8.5 6
q5 3 22.5 12.5t38 21t38 21t22.5 12.5q5 4 11 5q2 0 3.5 0.5t2.5 0.5q7 0 11 -3.5t8 -7.5q11 -12 22.5 -25.5t23.5 -27.5q4 -4 9 -10.5t5 -7.5q-2 -2 -7 -2q-4 0 -9 0.5t-10 3.5q-12 4 -34 17t-37 26q-25 -11 -53 -22.5t-47 -19.5q-8 -3 -15 -6t-10 -3z" />
    <glyph glyph-name="jcircumflex" unicode="&#x135;" horiz-adv-x="101" 
d="M-181 -160q-22 0 -41.5 7.5t-26.5 31.5l9 2q3 -14 13.5 -19.5t23.5 -5.5q24 0 46 11q29 14 58 45t57 72t53.5 85t47 84t37.5 68q5 9 14.5 23t21.5 25t22 10v-9q-14 -1 -29 -24t-27.5 -55t-22 -60.5t-13.5 -39.5q-15 -43 -35 -87.5t-48 -81.5t-67 -59.5t-93 -22.5z
M241 316q-4 0 -9 0.5t-10 3.5q-12 4 -26.5 22t-24.5 33q-22 -16 -49 -28t-41 -19q-8 -4 -15 -6.5t-10 -2.5q-5 0 -5 4q0 2 9 6.5t20 11.5q24 15 48.5 32t43.5 33q5 5 11 5q15 0 20 -10q5 -12 16 -33t18 -32q3 -4 7 -10.5t4 -7.5q-2 -2 -7 -2z" />
    <glyph glyph-name="uni0136" unicode="&#x136;" horiz-adv-x="423" 
d="M469 -61q-29 0 -66 12.5t-74.5 34.5t-69.5 50.5t-51.5 61.5t-19.5 67q0 36 20 66t49 55t56 43q32 21 73.5 45.5t87 48t89.5 42.5t80 31q8 2 19.5 5.5t19.5 3.5q2 0 5 -0.5t3 -4.5q0 -3 -6 -5q-13 -4 -26.5 -8.5t-26.5 -9.5q-47 -17 -104.5 -45.5t-111.5 -62t-92 -66.5
q-25 -22 -45 -51t-20 -64q0 -22 7 -40q12 -35 40.5 -70t64.5 -64t68 -46q10 -4 19 -7.5t19 -7.5q5 -2 5 -7q0 -7 -8 -7h-4zM20 -15q-5 0 -5 7q0 4 1 6q10 32 26 61.5t32 57.5q35 62 72 120q4 7 20 31.5t38 57.5t44 64.5t38 52.5t20 21q8 0 24 -8.5t21 -15.5
q-52 -58 -100 -120t-92 -127q-32 -49 -62 -98t-61 -98q-3 -4 -6.5 -8t-9.5 -4zM97 -176q-6 0 -6 6q0 2 2 6q15 13 27 29t12 38q0 5 -1.5 10.5t-1.5 11.5q0 9 9 9q6 0 17 -3t20 -8.5t9 -12.5q0 -5 -11.5 -18.5t-27 -29t-29.5 -27t-19 -11.5z" />
    <glyph glyph-name="uni0137" unicode="&#x137;" horiz-adv-x="314" 
d="M169 -9q-25 0 -36 18.5t-11 40.5q0 27 12.5 53.5t31.5 50t37 41.5q-23 -11 -51 -36.5t-52.5 -55t-39.5 -51.5q-8 -13 -20 -31t-29 -21h-18q1 15 13 46.5t32 73t43.5 86t47 86.5t42 74.5t28.5 47.5t20 29.5t31 14.5q6 0 21.5 -4t29.5 -9.5t15 -11.5q-17 -6 -41 -32.5
t-50.5 -63t-51.5 -75.5t-45 -71.5t-30 -49.5q-1 -2 -7.5 -13.5t-12.5 -22.5t-6 -12t1 -1q2 0 5 3q48 60 108.5 109.5t136.5 67.5q3 -7 3 -15q0 -20 -14 -35t-34 -23t-38 -8q-15 0 -25 7q-22 -22 -36 -52.5t-14 -62.5q0 -18 8 -36.5t30 -18.5q18 0 39.5 12.5t43 31t39.5 37.5
t30 31.5t13 12.5q4 0 4 -4v-0.5t-1 -1.5q-11 -15 -33 -37.5t-48 -46t-50.5 -41.5t-42.5 -25q-13 -6 -28 -6zM10 -176q-6 0 -6 6q0 2 2 6q15 13 27 29t12 38q0 5 -1.5 10.5t-1.5 11.5q0 9 9 9q6 0 17 -3t20 -8.5t9 -12.5q0 -5 -11.5 -18.5t-27 -29t-29.5 -27t-19 -11.5z" />
    <glyph glyph-name="kgreenlandic" unicode="&#x138;" horiz-adv-x="314" 
d="M169 -9q-25 0 -36 18.5t-11 40.5q0 27 12.5 53.5t31.5 50t37 41.5q-23 -11 -51 -36.5t-52.5 -55t-39.5 -51.5q-8 -13 -20 -31t-29 -21h-18q1 17 12 48.5t29 69.5t38 76.5t38 70.5t30 51q10 15 20 29.5t31 14.5q6 0 21.5 -4t29.5 -9.5t15 -11.5q-21 -8 -43.5 -31
t-44.5 -52.5t-40.5 -59.5t-30.5 -51q-1 -2 -7.5 -13.5t-12.5 -22.5t-6 -12t1 -1q2 0 5 3q48 60 108.5 109.5t136.5 67.5q3 -7 3 -15q0 -20 -14 -35t-34 -23t-38 -8q-15 0 -25 7q-22 -22 -36 -52.5t-14 -62.5q0 -18 8 -36.5t30 -18.5q18 0 39.5 12.5t43 31t39.5 37.5t30 31.5
t13 12.5q4 0 4 -4v-0.5t-1 -1.5q-11 -15 -33 -37.5t-48 -46t-50.5 -41.5t-42.5 -25q-13 -6 -28 -6z" />
    <glyph glyph-name="Lacute" unicode="&#x139;" horiz-adv-x="469" 
d="M157 -23q-14 0 -38 1t-48.5 6t-41.5 17t-17 33q0 5 1.5 10.5t2.5 10.5q10 28 33.5 67.5t54.5 83.5t64.5 87.5t63.5 80.5t50 61q14 15 28.5 33.5t29.5 31.5q11 10 26 10q2 0 5.5 -0.5t3.5 -3.5q0 -1 -1 -2l-1 -1q-26 -31 -50.5 -62.5t-47.5 -63.5q-13 -17 -36 -49
t-49.5 -72t-51 -79.5t-40 -72.5t-15.5 -52q0 -22 16.5 -32.5t39 -13.5t38.5 -3q35 0 84.5 9t97.5 23t80 29q4 2 6 2q8 0 8 -10q0 -20 -20.5 -32t-36.5 -17q-21 -6 -52.5 -11.5t-66 -9.5t-66.5 -6.5t-54 -2.5zM325 560q-3 0 -2.5 5t2.5 6q19 14 57 35.5t79 34.5l10 1
q10 -1 17 -8t7 -12q-1 -3 -5 -6.5t-15 -5.5q-18 -2 -46 -9.5t-56 -18t-46 -21.5q-1 0 -1 -0.5t-1 -0.5z" />
    <glyph glyph-name="lacute" unicode="&#x13a;" horiz-adv-x="180" 
d="M60 -4q-22 0 -33.5 14.5t-11.5 35.5q0 16 17 53t43 83t54.5 93t52 84t35.5 55q10 15 20 29.5t30 14.5q6 0 21.5 -4t30 -9.5t15.5 -11.5q-19 -7 -46.5 -38.5t-59 -76t-61 -92t-52.5 -87t-33 -60.5q-4 -9 -8.5 -20t-4.5 -22q0 -16 17 -16q15 0 35 15t41 37t40 44.5t32 37.5
t15 15q4 0 4 -4q0 -1 -8.5 -11.5t-18 -20.5t-11.5 -13q-13 -15 -31 -36t-38.5 -41.5t-42.5 -34t-43 -13.5zM248 508q-3 0 -2.5 5t2.5 6q19 14 57 35.5t79 34.5l10 1q10 -1 17 -8t7 -12q-1 -3 -5 -6.5t-15 -5.5q-18 -2 -46 -9.5t-56 -18t-46 -21.5q-1 0 -1 -0.5t-1 -0.5z" />
    <glyph glyph-name="uni013B" unicode="&#x13b;" horiz-adv-x="469" 
d="M157 -23q-14 0 -38 1t-48.5 6t-41.5 17t-17 33q0 5 1.5 10.5t2.5 10.5q10 28 33.5 67.5t54.5 83.5t64.5 87.5t63.5 80.5t50 61q14 15 28.5 33.5t29.5 31.5q11 10 26 10q2 0 5.5 -0.5t3.5 -3.5q0 -1 -1 -2l-1 -1q-26 -31 -50.5 -62.5t-47.5 -63.5q-13 -17 -36 -49
t-49.5 -72t-51 -79.5t-40 -72.5t-15.5 -52q0 -22 16.5 -32.5t39 -13.5t38.5 -3q35 0 84.5 9t97.5 23t80 29q4 2 6 2q8 0 8 -10q0 -20 -20.5 -32t-36.5 -17q-21 -6 -52.5 -11.5t-66 -9.5t-66.5 -6.5t-54 -2.5zM103 -194q-6 0 -6 6q0 2 2 6q15 13 27 29t12 38q0 5 -1.5 10.5
t-1.5 11.5q0 9 9 9q6 0 17 -3t20 -8.5t9 -12.5q0 -5 -11.5 -18.5t-27 -29t-29.5 -27t-19 -11.5z" />
    <glyph glyph-name="uni013C" unicode="&#x13c;" horiz-adv-x="180" 
d="M60 -4q-22 0 -33.5 14.5t-11.5 35.5q0 16 17 53t43 83t54.5 93t52 84t35.5 55q10 15 20 29.5t30 14.5q6 0 21.5 -4t30 -9.5t15.5 -11.5q-19 -7 -46.5 -38.5t-59 -76t-61 -92t-52.5 -87t-33 -60.5q-4 -9 -8.5 -20t-4.5 -22q0 -16 17 -16q15 0 35 15t41 37t40 44.5t32 37.5
t15 15q4 0 4 -4q0 -1 -8.5 -11.5t-18 -20.5t-11.5 -13q-13 -15 -31 -36t-38.5 -41.5t-42.5 -34t-43 -13.5zM-33 -176q-6 0 -6 6q0 2 2 6q15 13 27 29t12 38q0 5 -1.5 10.5t-1.5 11.5q0 9 9 9q6 0 17 -3t20 -8.5t9 -12.5q0 -5 -11.5 -18.5t-27 -29t-29.5 -27t-19 -11.5z" />
    <glyph glyph-name="Lcaron" unicode="&#x13d;" horiz-adv-x="469" 
d="M157 -23q-14 0 -38 1t-48.5 6t-41.5 17t-17 33q0 5 1.5 10.5t2.5 10.5q10 28 33.5 67.5t54.5 83.5t64.5 87.5t63.5 80.5t50 61q14 15 28.5 33.5t29.5 31.5q11 10 26 10q2 0 5.5 -0.5t3.5 -3.5q0 -1 -1 -2l-1 -1q-26 -31 -50.5 -62.5t-47.5 -63.5q-13 -17 -36 -49
t-49.5 -72t-51 -79.5t-40 -72.5t-15.5 -52q0 -22 16.5 -32.5t39 -13.5t38.5 -3q35 0 84.5 9t97.5 23t80 29q4 2 6 2q8 0 8 -10q0 -20 -20.5 -32t-36.5 -17q-21 -6 -52.5 -11.5t-66 -9.5t-66.5 -6.5t-54 -2.5zM434 372q-4 0 -5 2.5t-1 3.5q0 3 2 7q16 16 27 42.5t11 49.5
q0 6 -1 12t-1 12q0 11 8 11q6 0 16.5 -3.5t19.5 -9.5t9 -14q0 -5 -11.5 -23t-27 -39t-29 -36t-17.5 -15z" />
    <glyph glyph-name="lcaron" unicode="&#x13e;" horiz-adv-x="180" 
d="M60 -4q-22 0 -33.5 14.5t-11.5 35.5q0 16 17 53t43 83t54.5 93t52 84t35.5 55q10 15 20 29.5t30 14.5q6 0 21.5 -4t30 -9.5t15.5 -11.5q-19 -7 -46.5 -38.5t-59 -76t-61 -92t-52.5 -87t-33 -60.5q-4 -9 -8.5 -20t-4.5 -22q0 -16 17 -16q15 0 35 15t41 37t40 44.5t32 37.5
t15 15q4 0 4 -4q0 -1 -8.5 -11.5t-18 -20.5t-11.5 -13q-13 -15 -31 -36t-38.5 -41.5t-42.5 -34t-43 -13.5zM369 323q-4 0 -5 2.5t-1 3.5q0 3 2 7q16 16 27 42.5t11 49.5q0 6 -1 12t-1 12q0 11 8 11q6 0 16.5 -3.5t19.5 -9.5t9 -14q0 -5 -11.5 -23t-27 -39t-29 -36t-17.5 -15
z" />
    <glyph glyph-name="Ldot" unicode="&#x13f;" horiz-adv-x="469" 
d="M157 -23q-14 0 -38 1t-48.5 6t-41.5 17t-17 33q0 5 1.5 10.5t2.5 10.5q10 28 33.5 67.5t54.5 83.5t64.5 87.5t63.5 80.5t50 61q14 15 28.5 33.5t29.5 31.5q11 10 26 10q2 0 5.5 -0.5t3.5 -3.5q0 -1 -1 -2l-1 -1q-26 -31 -50.5 -62.5t-47.5 -63.5q-13 -17 -36 -49
t-49.5 -72t-51 -79.5t-40 -72.5t-15.5 -52q0 -22 16.5 -32.5t39 -13.5t38.5 -3q35 0 84.5 9t97.5 23t80 29q4 2 6 2q8 0 8 -10q0 -20 -20.5 -32t-36.5 -17q-21 -6 -52.5 -11.5t-66 -9.5t-66.5 -6.5t-54 -2.5zM392 196q-6 0 -16.5 5t-19.5 12.5t-9 13.5q0 8 12 17.5
t26.5 16.5t20.5 7q10 0 10 -7q0 -3 -1 -4q-7 -7 -9 -13l-5 -15q-2 -6 -1.5 -19.5t-7.5 -13.5z" />
    <glyph glyph-name="ldot" unicode="&#x140;" horiz-adv-x="180" 
d="M60 -4q-22 0 -33.5 14.5t-11.5 35.5q0 16 17 53t43 83t54.5 93t52 84t35.5 55q10 15 20 29.5t30 14.5q6 0 21.5 -4t30 -9.5t15.5 -11.5q-19 -7 -46.5 -38.5t-59 -76t-61 -92t-52.5 -87t-33 -60.5q-4 -9 -8.5 -20t-4.5 -22q0 -16 17 -16q15 0 35 15t41 37t40 44.5t32 37.5
t15 15q4 0 4 -4q0 -1 -8.5 -11.5t-18 -20.5t-11.5 -13q-13 -15 -31 -36t-38.5 -41.5t-42.5 -34t-43 -13.5zM299 215q-6 0 -16.5 5t-19.5 12.5t-9 13.5q0 8 12 17.5t26.5 16.5t20.5 7q10 0 10 -7q0 -3 -1 -4q-7 -7 -9 -13l-5 -15q-2 -6 -1.5 -19.5t-7.5 -13.5z" />
    <glyph glyph-name="Lslash" unicode="&#x141;" horiz-adv-x="469" 
d="M157 -23q-14 0 -38 1t-48.5 6t-41.5 17t-17 33q0 5 1.5 10.5t2.5 10.5q9 26 30 61.5t48 74.5l-51 -9l-8 -2q-1 0 -3.5 -0.5t-4.5 -0.5q-6 0 -11 2t-6 9v2q0 5 4.5 10.5t9.5 6.5l93 15q30 41 60.5 81t58 74t46.5 56q14 15 28.5 33.5t29.5 31.5q11 10 26 10q2 0 5.5 -0.5
t3.5 -3.5q0 -1 -1 -2l-1 -1q-26 -31 -50.5 -62.5t-47.5 -63.5q-14 -19 -42.5 -58.5t-57.5 -84.5l55 8l59 10h4t3 -2q1 -4 -9 -10t-13 -8q-17 -7 -37 -10.5t-38 -8.5l-43 -9q-30 -46 -51.5 -88t-21.5 -64t16.5 -32.5t39 -13.5t38.5 -3q35 0 84.5 9t97.5 23t80 29q4 2 6 2
q8 0 8 -10q0 -20 -20.5 -32t-36.5 -17q-21 -6 -52.5 -11.5t-66 -9.5t-66.5 -6.5t-54 -2.5z" />
    <glyph glyph-name="lslash" unicode="&#x142;" horiz-adv-x="180" 
d="M60 -4q-22 0 -33.5 14.5t-11.5 35.5q0 14 11.5 42t30.5 63l-19 -6l-6 -1q-2 -1 -7 -1q-9 0 -10 11v2q0 5 3 10.5t7 6.5l51 12q26 45 54 91t52 83.5t35 54.5q10 15 20 29.5t30 14.5q6 0 21.5 -4t30 -9.5t15.5 -11.5q-15 -6 -37 -28.5t-46.5 -55.5t-50 -71.5t-48.5 -75.5
l15 4l41 9q1 0 3 0.5t2 -1.5q1 -5 -6 -10.5t-9 -7.5q-12 -7 -26 -11t-26 -8l-11 -4q-18 -30 -31.5 -54.5t-21.5 -39.5q-4 -9 -8.5 -20t-4.5 -22q0 -16 17 -16q15 0 35 15t41 37t40 44.5t32 37.5t15 15q4 0 4 -4q0 -1 -8.5 -11.5t-18 -20.5t-11.5 -13q-13 -15 -31 -36
t-38.5 -41.5t-42.5 -34t-43 -13.5z" />
    <glyph glyph-name="Nacute" unicode="&#x143;" horiz-adv-x="484" 
d="M353 -26q-19 0 -30 11t-9 29t19 51.5t41.5 76t52 88t51.5 88t39 75.5t15 51q0 8 -6.5 15.5t-14.5 7.5q-15 0 -37 -10.5t-34 -19.5q-40 -29 -86 -70t-93.5 -89t-91.5 -99t-79.5 -100t-57.5 -92l-4.5 -0.5t-9.5 -0.5q-7 0 -11.5 1.5t-3.5 7.5q36 95 88.5 193.5t103.5 185.5
q20 32 40 65.5t43 63.5q5 6 15.5 9.5t21.5 3.5q14 0 25 -5t11 -16q0 -9 -10 -22q-19 -22 -35.5 -45.5t-33.5 -47.5q-30 -44 -59 -89l-58 -90q23 25 58.5 62.5t78 78t88 76t88 58t77.5 22.5q52 0 52 -54q0 -28 -13 -56.5t-27 -52.5q-8 -13 -24.5 -40.5t-37.5 -63t-42.5 -73.5
t-40 -72.5t-30 -59.5t-11.5 -34q0 -3 2 -5q-6 -3 -10 -8t-10 -5zM506 559q-3 0 -2.5 5t2.5 6q19 14 57 35.5t79 34.5l10 1q10 -1 17 -8t7 -12q-1 -3 -5 -6.5t-15 -5.5q-18 -2 -46 -9.5t-56 -18t-46 -21.5q-1 0 -1 -0.5t-1 -0.5z" />
    <glyph glyph-name="nacute" unicode="&#x144;" horiz-adv-x="320" 
d="M201 -3q-20 0 -30 13.5t-10 32.5q0 26 12 57t27 60t27 49.5t12 26.5q0 2 -2 2q-3 0 -7 -2.5t-6 -4.5q-30 -20 -62.5 -56t-61 -75.5t-47.5 -71.5q-11 -19 -25.5 -23.5t-34.5 -4.5q7 16 15 31t15 29q12 24 22 47.5t20 47.5q8 21 17 49.5t9 50.5q0 6 -1 12t-4 11l-3 3
q0 6 7 6q6 0 21 -7t28.5 -16.5t13.5 -17.5q0 -15 -11.5 -43t-26 -54.5t-24.5 -39.5q-1 -1 -2.5 -3t-1.5 -4l1 -1q2 0 16 17.5t35.5 43.5t47.5 52.5t52 44t48 17.5q11 0 25 -5.5t14 -19.5q0 -4 -2 -7.5t-4 -7.5q-31 -42 -58 -81.5t-48 -89.5q-2 -6 -4.5 -12.5t-2.5 -13.5
q0 -18 18 -18q15 0 35 15t41.5 37t40.5 44.5t32 37.5t15 15q3 0 3 -4q0 -1 -8.5 -11.5t-17.5 -20.5t-12 -13q-17 -19 -38.5 -44.5t-45.5 -46.5t-49 -30q-9 -3 -20 -3zM254 320q-3 0 -3 4.5t2 6.5q17 16 53 40.5t76 40.5q6 2 10 2q10 0 17.5 -7.5t7.5 -12.5q0 -8 -19 -13
q-17 -4 -44.5 -13.5t-54 -21.5t-43.5 -25q-1 -1 -1.5 -1h-0.5z" />
    <glyph glyph-name="uni0145" unicode="&#x145;" horiz-adv-x="484" 
d="M353 -26q-19 0 -30 11t-9 29t19 51.5t41.5 76t52 88t51.5 88t39 75.5t15 51q0 8 -6.5 15.5t-14.5 7.5q-15 0 -37 -10.5t-34 -19.5q-40 -29 -86 -70t-93.5 -89t-91.5 -99t-79.5 -100t-57.5 -92l-4.5 -0.5t-9.5 -0.5q-7 0 -11.5 1.5t-3.5 7.5q36 95 88.5 193.5t103.5 185.5
q20 32 40 65.5t43 63.5q5 6 15.5 9.5t21.5 3.5q14 0 25 -5t11 -16q0 -9 -10 -22q-19 -22 -35.5 -45.5t-33.5 -47.5q-30 -44 -59 -89l-58 -90q23 25 58.5 62.5t78 78t88 76t88 58t77.5 22.5q52 0 52 -54q0 -28 -13 -56.5t-27 -52.5q-8 -13 -24.5 -40.5t-37.5 -63t-42.5 -73.5
t-40 -72.5t-30 -59.5t-11.5 -34q0 -3 2 -5q-6 -3 -10 -8t-10 -5zM101 -176q-6 0 -6 6q0 2 2 6q15 13 27 29t12 38q0 5 -1.5 10.5t-1.5 11.5q0 9 9 9q6 0 17 -3t20 -8.5t9 -12.5q0 -5 -11.5 -18.5t-27 -29t-29.5 -27t-19 -11.5z" />
    <glyph glyph-name="uni0146" unicode="&#x146;" horiz-adv-x="320" 
d="M201 -3q-20 0 -30 13.5t-10 32.5q0 26 12 57t27 60t27 49.5t12 26.5q0 2 -2 2q-3 0 -7 -2.5t-6 -4.5q-30 -20 -62.5 -56t-61 -75.5t-47.5 -71.5q-11 -19 -25.5 -23.5t-34.5 -4.5q7 16 15 31t15 29q12 24 22 47.5t20 47.5q8 21 17 49.5t9 50.5q0 6 -1 12t-4 11l-3 3
q0 6 7 6q6 0 21 -7t28.5 -16.5t13.5 -17.5q0 -15 -11.5 -43t-26 -54.5t-24.5 -39.5q-1 -1 -2.5 -3t-1.5 -4l1 -1q2 0 16 17.5t35.5 43.5t47.5 52.5t52 44t48 17.5q11 0 25 -5.5t14 -19.5q0 -4 -2 -7.5t-4 -7.5q-31 -42 -58 -81.5t-48 -89.5q-2 -6 -4.5 -12.5t-2.5 -13.5
q0 -18 18 -18q15 0 35 15t41.5 37t40.5 44.5t32 37.5t15 15q3 0 3 -4q0 -1 -8.5 -11.5t-17.5 -20.5t-12 -13q-17 -19 -38.5 -44.5t-45.5 -46.5t-49 -30q-9 -3 -20 -3zM36 -176q-6 0 -6 6q0 2 2 6q15 13 27 29t12 38q0 5 -1.5 10.5t-1.5 11.5q0 9 9 9q6 0 17 -3t20 -8.5
t9 -12.5q0 -5 -11.5 -18.5t-27 -29t-29.5 -27t-19 -11.5z" />
    <glyph glyph-name="Ncaron" unicode="&#x147;" horiz-adv-x="484" 
d="M353 -26q-19 0 -30 11t-9 29t19 51.5t41.5 76t52 88t51.5 88t39 75.5t15 51q0 8 -6.5 15.5t-14.5 7.5q-15 0 -37 -10.5t-34 -19.5q-40 -29 -86 -70t-93.5 -89t-91.5 -99t-79.5 -100t-57.5 -92l-4.5 -0.5t-9.5 -0.5q-7 0 -11.5 1.5t-3.5 7.5q36 95 88.5 193.5t103.5 185.5
q20 32 40 65.5t43 63.5q5 6 15.5 9.5t21.5 3.5q14 0 25 -5t11 -16q0 -9 -10 -22q-19 -22 -35.5 -45.5t-33.5 -47.5q-30 -44 -59 -89l-58 -90q23 25 58.5 62.5t78 78t88 76t88 58t77.5 22.5q52 0 52 -54q0 -28 -13 -56.5t-27 -52.5q-8 -13 -24.5 -40.5t-37.5 -63t-42.5 -73.5
t-40 -72.5t-30 -59.5t-11.5 -34q0 -3 2 -5q-6 -3 -10 -8t-10 -5zM557 558q-7 0 -11 3.5t-8 7.5q-11 12 -22.5 26t-23.5 27q-4 5 -9 11t-5 7q2 2 7 2q4 0 9 -0.5t10 -3.5q12 -4 34 -17t37 -26q25 11 53 23t47 19q8 3 15 6t10 3q5 0 5 -4q0 -1 -1.5 -4.5t-8.5 -6.5
q-5 -3 -22.5 -12.5t-38 -21t-38 -21t-22.5 -12.5q-5 -4 -11 -5q-1 0 -2.5 -0.5t-3.5 -0.5z" />
    <glyph glyph-name="ncaron" unicode="&#x148;" horiz-adv-x="320" 
d="M201 -3q-20 0 -30 13.5t-10 32.5q0 26 12 57t27 60t27 49.5t12 26.5q0 2 -2 2q-3 0 -7 -2.5t-6 -4.5q-30 -20 -62.5 -56t-61 -75.5t-47.5 -71.5q-11 -19 -25.5 -23.5t-34.5 -4.5q7 16 15 31t15 29q12 24 22 47.5t20 47.5q8 21 17 49.5t9 50.5q0 6 -1 12t-4 11l-3 3
q0 6 7 6q6 0 21 -7t28.5 -16.5t13.5 -17.5q0 -15 -11.5 -43t-26 -54.5t-24.5 -39.5q-1 -1 -2.5 -3t-1.5 -4l1 -1q2 0 16 17.5t35.5 43.5t47.5 52.5t52 44t48 17.5q11 0 25 -5.5t14 -19.5q0 -4 -2 -7.5t-4 -7.5q-31 -42 -58 -81.5t-48 -89.5q-2 -6 -4.5 -12.5t-2.5 -13.5
q0 -18 18 -18q15 0 35 15t41.5 37t40.5 44.5t32 37.5t15 15q3 0 3 -4q0 -1 -8.5 -11.5t-17.5 -20.5t-12 -13q-17 -19 -38.5 -44.5t-45.5 -46.5t-49 -30q-9 -3 -20 -3zM271 316q-15 0 -20 10q-5 12 -15.5 33t-18.5 32q-3 5 -7 11t-4 7q2 2 7 2q4 0 9 -0.5t10 -3.5
q12 -4 26.5 -22t24.5 -33q23 16 49.5 28t40.5 19q8 4 15 6.5t10 2.5q5 0 5 -4q0 -1 -9 -6t-20 -12q-24 -15 -48.5 -32t-43.5 -33q-5 -5 -11 -5z" />
    <glyph glyph-name="Eng" unicode="&#x14a;" horiz-adv-x="484" 
d="M66 -323q-22 0 -41.5 7.5t-26.5 31.5l9 2q3 -14 13.5 -19.5t23.5 -5.5q24 0 46 11q24 12 50 39t52 61.5t49 69.5t40 63q10 16 32 54t50.5 89.5t58 107t54.5 107.5t40.5 91.5t15.5 57.5q0 8 -6.5 15.5t-14.5 7.5q-15 0 -37 -10.5t-34 -19.5q-40 -29 -86 -70t-93.5 -89
t-91.5 -99t-79.5 -100t-57.5 -92l-4.5 -0.5t-9.5 -0.5q-7 0 -11.5 1.5t-3.5 7.5q36 95 88.5 193.5t103.5 185.5q20 32 40 65.5t43 63.5q5 6 15.5 9.5t21.5 3.5q14 0 25 -5t11 -16q0 -9 -10 -22q-19 -22 -35.5 -45.5t-33.5 -47.5q-30 -44 -59 -89l-58 -90q23 25 58.5 62.5
t78 78t88 76t88 58t77.5 22.5q52 0 52 -54q0 -28 -14.5 -55.5t-25.5 -53.5q-5 -13 -21.5 -45t-40 -75t-48.5 -89.5t-48 -88t-39.5 -71t-21.5 -37.5q-42 -69 -84 -126.5t-88 -91.5t-100 -34z" />
    <glyph glyph-name="eng" unicode="&#x14b;" horiz-adv-x="320" 
d="M-72 -269q-22 0 -41.5 7.5t-26.5 31.5l9 2q3 -14 13.5 -19.5t23.5 -5.5q24 0 46 11q51 25 105 99t104 186q11 24 24.5 54.5t25.5 60t20 51t8 27.5q0 2 -2 2q-3 0 -7 -2.5t-6 -4.5q-30 -20 -62.5 -56t-61 -75.5t-47.5 -71.5q-11 -19 -25.5 -23.5t-34.5 -4.5q7 16 15 31
t15 29q12 24 22 47.5t20 47.5q8 21 17 49.5t9 50.5q0 6 -1 12t-4 11l-3 3q0 6 7 6q6 0 21 -7t28.5 -16.5t13.5 -17.5q0 -15 -11.5 -43t-26 -54.5t-24.5 -39.5q-1 -1 -2.5 -3t-1.5 -4l1 -1q2 0 16 17.5t35.5 43.5t47.5 52.5t52 44t48 17.5q11 0 25 -5.5t14 -19.5
q0 -4 -2 -7.5t-4 -7.5q-20 -28 -36.5 -51.5t-30.5 -48.5t-29 -59q-42 -99 -87 -177.5t-96 -123.5t-113 -45z" />
    <glyph glyph-name="Omacron" unicode="&#x14c;" horiz-adv-x="484" 
d="M122 -5q-52 0 -81.5 26.5t-29.5 80.5q0 50 22 107t60.5 112t87 100t102.5 72t106 27q54 0 93.5 -31t39.5 -87q0 -49 -21.5 -98.5t-47.5 -90.5q-26 -39 -62 -78t-79 -70.5t-91 -50.5t-99 -19zM153 19q38 0 77.5 20t76.5 51.5t67 66t49 64.5q25 38 45.5 86.5t20.5 94.5
q0 38 -18.5 63t-59.5 25q-38 0 -77.5 -20t-76.5 -51t-67 -65.5t-49 -64.5q-25 -38 -45.5 -86.5t-20.5 -94.5q0 -38 19 -63.5t59 -25.5zM392 586q-7 0 -15 2t-8 11q0 6 5.5 11.5t11.5 5.5l171 1q1 0 3.5 -0.5t2.5 -2.5q0 -7 -22.5 -12.5t-54 -9t-58.5 -5t-36 -1.5z" />
    <glyph glyph-name="omacron" unicode="&#x14d;" 
d="M92 -4q-29 0 -53.5 18t-24.5 49q0 23 15 55t39.5 65t54.5 61.5t59.5 46t53.5 17.5q8 0 17.5 -2.5t13.5 -10.5q20 1 28 -11.5t8 -30.5q0 -27 -15.5 -61t-36.5 -65t-38 -51l6 -1q29 -1 51.5 12t42 33t37.5 38l2 2q3 0 3 -5q0 -2 -1 -3q-14 -20 -36 -40.5t-48 -34t-52 -13.5
h-7.5t-7.5 1q-13 -14 -31 -30t-38.5 -27.5t-41.5 -11.5zM98 11q26 0 50.5 22t40.5 40q-6 3 -15 10.5t-9 15.5q0 14 19 26.5t42 22.5t33 15q10 16 18 37.5t8 40.5q0 11 -4.5 19t-17.5 8q-11 0 -23 -5t-21 -10q-51 -27 -92.5 -74t-57.5 -104q-1 -6 -2.5 -12.5t-1.5 -12.5
q0 -16 8 -27.5t25 -11.5zM198 361q-7 0 -15 2t-8 11q0 6 5.5 11.5t11.5 5.5l161 1q1 0 3.5 -0.5t2.5 -2.5q0 -7 -21 -12.5t-50.5 -9t-55 -5t-34.5 -1.5z" />
    <glyph glyph-name="Obreve" unicode="&#x14e;" horiz-adv-x="484" 
d="M122 -5q-52 0 -81.5 26.5t-29.5 80.5q0 50 22 107t60.5 112t87 100t102.5 72t106 27q54 0 93.5 -31t39.5 -87q0 -49 -21.5 -98.5t-47.5 -90.5q-26 -39 -62 -78t-79 -70.5t-91 -50.5t-99 -19zM153 19q38 0 77.5 20t76.5 51.5t67 66t49 64.5q25 38 45.5 86.5t20.5 94.5
q0 38 -18.5 63t-59.5 25q-38 0 -77.5 -20t-76.5 -51t-67 -65.5t-49 -64.5q-25 -38 -45.5 -86.5t-20.5 -94.5q0 -38 19 -63.5t59 -25.5zM492 572q-21 0 -39.5 13t-19.5 36q0 5 8 13t16.5 13t8.5 0q1 -21 19.5 -33t38.5 -12q19 0 42 8t43 18.5t30 16.5q5 3 8 3q4 0 5 -2.5
t-4 -6.5q-15 -12 -43 -28t-58.5 -27.5t-54.5 -11.5z" />
    <glyph glyph-name="obreve" unicode="&#x14f;" 
d="M92 -4q-29 0 -53.5 18t-24.5 49q0 23 15 55t39.5 65t54.5 61.5t59.5 46t53.5 17.5q8 0 17.5 -2.5t13.5 -10.5q20 1 28 -11.5t8 -30.5q0 -27 -15.5 -61t-36.5 -65t-38 -51l6 -1q29 -1 51.5 12t42 33t37.5 38l2 2q3 0 3 -5q0 -2 -1 -3q-14 -20 -36 -40.5t-48 -34t-52 -13.5
h-7.5t-7.5 1q-13 -14 -31 -30t-38.5 -27.5t-41.5 -11.5zM98 11q26 0 50.5 22t40.5 40q-6 3 -15 10.5t-9 15.5q0 14 19 26.5t42 22.5t33 15q10 16 18 37.5t8 40.5q0 11 -4.5 19t-17.5 8q-11 0 -23 -5t-21 -10q-51 -27 -92.5 -74t-57.5 -104q-1 -6 -2.5 -12.5t-1.5 -12.5
q0 -16 8 -27.5t25 -11.5zM285 344q-21 0 -35 9.5t-15 32.5q0 5 8 13t16.5 13t8.5 0q1 -21 15 -29.5t34 -8.5q28 0 58.5 11t45.5 20q5 3 8 3q4 0 5 -2.5t-4 -6.5q-15 -12 -40.5 -24.5t-53 -21.5t-51.5 -9z" />
    <glyph glyph-name="Ohungarumlaut" unicode="&#x150;" horiz-adv-x="484" 
d="M122 -5q-52 0 -81.5 26.5t-29.5 80.5q0 50 22 107t60.5 112t87 100t102.5 72t106 27q54 0 93.5 -31t39.5 -87q0 -49 -21.5 -98.5t-47.5 -90.5q-26 -39 -62 -78t-79 -70.5t-91 -50.5t-99 -19zM153 19q38 0 77.5 20t76.5 51.5t67 66t49 64.5q25 38 45.5 86.5t20.5 94.5
q0 38 -18.5 63t-59.5 25q-38 0 -77.5 -20t-76.5 -51t-67 -65.5t-49 -64.5q-25 -38 -45.5 -86.5t-20.5 -94.5q0 -38 19 -63.5t59 -25.5zM427 563q-1 0 -3.5 0.5t-4.5 1.5q-3 2 -3 12q0 14 5 35.5t11.5 40t12.5 21.5q8 4 17 4q8 0 11 -3q3 -1 3 -4q0 -4 -2 -6.5t-4 -4.5
q-4 -6 -11 -21t-14 -32.5l-12 -30t-6 -13.5zM494 563q-5 0 -8 2t-3 12q0 14 4.5 36t11.5 40t12 21q8 4 17 4q8 0 11 -3q3 -1 3 -4t-2 -6t-4 -5q-4 -5 -10.5 -20t-13.5 -32.5t-12 -30.5t-6 -14z" />
    <glyph glyph-name="ohungarumlaut" unicode="&#x151;" 
d="M92 -4q-29 0 -53.5 18t-24.5 49q0 23 15 55t39.5 65t54.5 61.5t59.5 46t53.5 17.5q8 0 17.5 -2.5t13.5 -10.5q20 1 28 -11.5t8 -30.5q0 -27 -15.5 -61t-36.5 -65t-38 -51l6 -1q29 -1 51.5 12t42 33t37.5 38l2 2q3 0 3 -5q0 -2 -1 -3q-14 -20 -36 -40.5t-48 -34t-52 -13.5
h-7.5t-7.5 1q-13 -14 -31 -30t-38.5 -27.5t-41.5 -11.5zM98 11q26 0 50.5 22t40.5 40q-6 3 -15 10.5t-9 15.5q0 14 19 26.5t42 22.5t33 15q10 16 18 37.5t8 40.5q0 11 -4.5 19t-17.5 8q-11 0 -23 -5t-21 -10q-51 -27 -92.5 -74t-57.5 -104q-1 -6 -2.5 -12.5t-1.5 -12.5
q0 -16 8 -27.5t25 -11.5zM233 338q-1 0 -3.5 0.5t-4.5 1.5q-3 2 -3 12q0 14 4.5 35t11 39t12.5 21q8 4 17 4q8 0 11 -3q3 -1 3 -4q0 -4 -2 -6.5t-4 -4.5q-4 -6 -11 -20.5t-13.5 -31.5t-11.5 -29.5t-6 -13.5zM300 338q-5 0 -8 2t-3 12q0 14 4.5 35.5t11 39t11.5 20.5
q8 4 17 4q8 0 11 -3q3 -1 3 -4t-2 -6t-4 -5q-4 -5 -10.5 -20t-13.5 -32t-11.5 -29.5t-5.5 -13.5z" />
    <glyph glyph-name="OE" unicode="&#x152;" horiz-adv-x="767" 
d="M126 -24q-57 0 -87.5 29.5t-30.5 87.5q0 53 23 114.5t63.5 121.5t92 109.5t108.5 79t114 29.5q68 0 102.5 -41t28.5 -106q16 24 37 55t40 51q5 3 9 3q13 0 32 -9t30 -16h225q4 0 4 -3q0 -7 -11.5 -17t-25.5 -18t-21 -8q-26 0 -52.5 3t-53.5 3q-36 0 -62 -5t-47 -19.5
t-45 -43.5q-17 -22 -33 -45.5t-31 -46.5h260q3 0 3 -1q0 -4 -9.5 -12t-12.5 -10q-37 0 -74 -3l-74 -6q-22 -1 -44 -3t-43 -5q-25 -3 -42.5 -21t-29 -41.5t-21.5 -44.5q-9 -18 -16 -38.5t-7 -40.5q0 -37 26 -48.5t57 -11.5q38 0 84 10.5t91.5 26.5t81.5 30q-6 -15 -17 -33
t-26 -25q-13 -6 -45 -11t-70 -9t-71 -6.5t-49 -2.5h-3q-24 0 -51.5 3t-46.5 17t-19 46q0 14 3 28.5t7 28.5q-49 -51 -113 -88t-138 -37zM159 3q37 0 75.5 19t73.5 47t59 53l17.5 17.5t15.5 18.5q5 8 8.5 17.5t7.5 17.5q8 16 16.5 31.5t17.5 30.5q9 17 18 32.5t19 31.5
q4 6 9 13t8 14q6 13 9 35.5t3 36.5q0 41 -19.5 68.5t-63.5 27.5q-41 0 -83 -22t-81 -55.5t-71 -71t-52 -69.5q-26 -42 -48 -94.5t-22 -102.5q0 -40 20 -68t63 -28z" />
    <glyph glyph-name="oe" unicode="&#x153;" horiz-adv-x="430" 
d="M92 -4q-28 0 -53 18t-25 49q0 23 15 54.5t39.5 65t54 62t59 46t54.5 17.5q8 0 17.5 -2.5t13.5 -10.5q20 1 28 -11.5t8 -30.5q0 -12 -2.5 -24t-6.5 -23q26 25 59 48t66 35q8 4 13 4q7 0 14.5 -11t12.5 -23.5t5 -19.5t-8 -12q-18 -10 -34.5 -21.5t-26.5 -30.5l21 1h16.5
t16.5 -1q2 0 2 -2q0 -1 -2 -2l-4 -2q-13 -2 -27 -3t-28 -3q0 -6 -4 -6t-4 4q-21 -3 -41.5 -7.5t-40.5 -12.5q-13 -18 -26 -45t-13 -50q0 -13 6 -22.5t21 -9.5q10 0 19 3.5t17 7.5q49 25 86 57.5t74 72.5q2 2 3 2q2 0 2 -2q0 -6 -6 -12q-27 -34 -61.5 -68t-71.5 -58
q-27 -18 -63 -18q-28 0 -53.5 14t-25.5 46v6t1 6q-13 -15 -32.5 -32.5t-41 -30t-43.5 -12.5zM99 11q18 0 40.5 15.5t45.5 40.5t43 53t34.5 53.5t18.5 41.5q5 15 5 28q0 11 -5 18.5t-17 7.5q-11 0 -23 -5.5t-22 -10.5q-50 -27 -92.5 -74.5t-57.5 -103.5q-1 -6 -2.5 -12.5
t-1.5 -12.5q0 -16 8.5 -27.5t25.5 -11.5zM325 171q15 2 30.5 2.5t30.5 1.5q13 36 32 62q-25 -13 -49 -29t-44 -37z" />
    <glyph glyph-name="Racute" unicode="&#x154;" horiz-adv-x="469" 
d="M54 -67q-9 0 -9 9q0 13 12.5 42t30 63t34 62.5t24.5 41.5q-6 17 -6 35q0 26 14.5 35.5t38.5 7.5q19 30 38.5 59.5t40.5 58.5q9 13 19 27.5t21 25.5q2 2 8 2q5 0 19 -3t14 -10q0 -1 -4 -3q-10 -12 -20 -24.5t-20 -25.5q-26 -33 -51 -67.5t-49 -69.5q25 3 64 15t82.5 31
t82.5 43t63.5 52t24.5 58q0 27 -21 39.5t-48.5 16.5t-46.5 4q-64 0 -134.5 -18t-132.5 -36q-7 -3 -16 -3q-11 0 -17.5 7.5t-6.5 18.5q0 25 22 34q6 3 14 5t15 3q59 12 120 22.5t122 10.5q27 0 57 -4.5t55.5 -16.5t42 -33.5t16.5 -55.5t-24 -64t-60 -53.5t-74 -39.5t-66 -24
q-34 -9 -67.5 -17.5t-67.5 -15.5q7 -26 23 -49t35 -41q37 -34 87.5 -61t99.5 -38q11 -2 20.5 -3t19.5 -3q6 0 6 -6q0 -5 -6.5 -6.5t-11.5 -1.5q-37 0 -84 11.5t-94 32t-85 48.5t-59 61q-15 -24 -33.5 -54t-35 -61t-25.5 -57q-1 -4 -3 -10.5t-8 -6.5zM437 552q-3 0 -2.5 5
t2.5 6q19 14 57 35.5t79 34.5l10 1q10 -1 17 -8t7 -12q-1 -3 -5 -6.5t-15 -5.5q-18 -2 -46 -9.5t-56 -18t-46 -21.5q-1 0 -1 -0.5t-1 -0.5z" />
    <glyph glyph-name="racute" unicode="&#x155;" horiz-adv-x="266" 
d="M144 -4q-20 0 -32.5 12t-12.5 32t12.5 49t30.5 61t36 60.5t29 46.5q-7 -3 -17 -3q-11 0 -23 3.5t-23 7.5q-3 -5 -14.5 -21.5t-27 -38t-31.5 -41.5t-27.5 -33.5t-15.5 -13.5q-3 0 -3 3q0 2 3 5q11 14 22.5 27t22.5 27q17 21 32 44t27 48q-6 4 -16 12t-10 16q0 11 13 21.5
t29 18.5l24 12q4 1 18.5 7.5t15.5 6.5q4 0 4 -4q0 -1 -12.5 -12.5t-25 -27.5t-12.5 -32q0 -14 12 -20t24 -6q11 0 18 4q3 5 8 5q8 0 20 -2.5t22 -8t10 -15.5q0 -7 -4 -13.5t-9 -11.5q-10 -12 -29.5 -35.5t-40 -51.5t-34.5 -53t-14 -39q0 -10 7 -16.5t17 -6.5q16 0 37 15.5
t42.5 38t40.5 44.5t32 37.5t15 15.5q4 0 4 -4q0 -2 -10 -14t-25.5 -29.5t-32 -35t-28.5 -30.5t-16 -16q-16 -15 -37.5 -30t-44.5 -15zM252 390q-3 0 -3 4.5t2 6.5q17 16 53 40.5t76 40.5q6 2 10 2q10 0 17.5 -7.5t7.5 -12.5q0 -8 -19 -13q-17 -4 -44.5 -13.5t-54 -21.5
t-43.5 -25q-1 -1 -1.5 -1h-0.5z" />
    </font>
</defs>
</svg>
